%TF.GenerationSoftware,KiCad,Pcbnew,9.0.3*%
%TF.CreationDate,2025-07-17T11:53:43-06:00*%
%TF.ProjectId,EncoderBoard,456e636f-6465-4724-926f-6172642e6b69,rev?*%
%TF.SameCoordinates,Original*%
%TF.FileFunction,Soldermask,Top*%
%TF.FilePolarity,Negative*%
%FSLAX46Y46*%
G04 Gerber Fmt 4.6, Leading zero omitted, Abs format (unit mm)*
G04 Created by KiCad (PCBNEW 9.0.3) date 2025-07-17 11:53:43*
%MOMM*%
%LPD*%
G01*
G04 APERTURE LIST*
G04 Aperture macros list*
%AMRoundRect*
0 Rectangle with rounded corners*
0 $1 Rounding radius*
0 $2 $3 $4 $5 $6 $7 $8 $9 X,Y pos of 4 corners*
0 Add a 4 corners polygon primitive as box body*
4,1,4,$2,$3,$4,$5,$6,$7,$8,$9,$2,$3,0*
0 Add four circle primitives for the rounded corners*
1,1,$1+$1,$2,$3*
1,1,$1+$1,$4,$5*
1,1,$1+$1,$6,$7*
1,1,$1+$1,$8,$9*
0 Add four rect primitives between the rounded corners*
20,1,$1+$1,$2,$3,$4,$5,0*
20,1,$1+$1,$4,$5,$6,$7,0*
20,1,$1+$1,$6,$7,$8,$9,0*
20,1,$1+$1,$8,$9,$2,$3,0*%
G04 Aperture macros list end*
%ADD10RoundRect,0.150000X-0.335045X0.632649X-0.564858X0.439813X0.335045X-0.632649X0.564858X-0.439813X0*%
%ADD11RoundRect,0.250000X-0.515555X1.003346X-0.898577X0.681952X0.515555X-1.003346X0.898577X-0.681952X0*%
%ADD12RoundRect,0.100000X-0.637500X-0.100000X0.637500X-0.100000X0.637500X0.100000X-0.637500X0.100000X0*%
%ADD13RoundRect,0.150000X-0.564858X-0.439813X-0.335045X-0.632649X0.564858X0.439813X0.335045X0.632649X0*%
%ADD14RoundRect,0.250000X-0.898577X-0.681952X-0.515555X-1.003346X0.898577X0.681952X0.515555X1.003346X0*%
%ADD15RoundRect,0.150000X0.564858X0.439813X0.335045X0.632649X-0.564858X-0.439813X-0.335045X-0.632649X0*%
%ADD16RoundRect,0.250000X0.898577X0.681952X0.515555X1.003346X-0.898577X-0.681952X-0.515555X-1.003346X0*%
%ADD17C,3.200000*%
%ADD18RoundRect,0.150000X0.335045X-0.632649X0.564858X-0.439813X-0.335045X0.632649X-0.564858X0.439813X0*%
%ADD19RoundRect,0.250000X0.515555X-1.003346X0.898577X-0.681952X-0.515555X1.003346X-0.898577X0.681952X0*%
%ADD20RoundRect,0.225000X0.046884X-0.333057X0.336138X0.011663X-0.046884X0.333057X-0.336138X-0.011663X0*%
%ADD21RoundRect,0.225000X0.225000X0.250000X-0.225000X0.250000X-0.225000X-0.250000X0.225000X-0.250000X0*%
G04 APERTURE END LIST*
D10*
%TO.C,J1*%
X145558046Y-91508471D03*
X144600490Y-92311955D03*
X143642935Y-93115440D03*
X142685379Y-93918924D03*
X141727824Y-94722409D03*
X140770268Y-95525894D03*
D11*
X144918308Y-87867972D03*
X137296166Y-94263708D03*
%TD*%
D12*
%TO.C,U1*%
X147137500Y-98050000D03*
X147137500Y-98700000D03*
X147137500Y-99350000D03*
X147137500Y-100000000D03*
X147137500Y-100650000D03*
X147137500Y-101300000D03*
X147137500Y-101950000D03*
X152862500Y-101950000D03*
X152862500Y-101300000D03*
X152862500Y-100650000D03*
X152862500Y-100000000D03*
X152862500Y-99350000D03*
X152862500Y-98700000D03*
X152862500Y-98050000D03*
%TD*%
D13*
%TO.C,J4*%
X142123438Y-105550870D03*
X143080993Y-106354355D03*
X144038549Y-107157839D03*
D14*
X138649335Y-106813055D03*
X143398811Y-110798339D03*
%TD*%
D15*
%TO.C,J2*%
X158734118Y-95177616D03*
X157776564Y-94374131D03*
X156819008Y-93570646D03*
X155861452Y-92767162D03*
X154903898Y-91963678D03*
D16*
X162208222Y-93915430D03*
X155543635Y-88323178D03*
%TD*%
D17*
%TO.C,H4*%
X140550000Y-100000000D03*
%TD*%
%TO.C,H2*%
X150000000Y-92050000D03*
%TD*%
D18*
%TO.C,J3*%
X154953897Y-108011323D03*
X155911452Y-107207838D03*
X156869008Y-106404354D03*
X157826563Y-105600869D03*
X158784119Y-104797385D03*
D19*
X155593635Y-111651822D03*
X162258222Y-106059570D03*
%TD*%
D20*
%TO.C,C1*%
X156051840Y-98043684D03*
X157048160Y-96856316D03*
%TD*%
D21*
%TO.C,C2*%
X149775000Y-96100000D03*
X148225000Y-96100000D03*
%TD*%
D17*
%TO.C,H1*%
X150000000Y-107950000D03*
%TD*%
%TO.C,H3*%
X159450000Y-100000000D03*
%TD*%
M02*
