%TF.GenerationSoftware,KiCad,Pcbnew,9.0.3*%
%TF.CreationDate,2025-07-17T11:53:43-06:00*%
%TF.ProjectId,EncoderBoard,456e636f-6465-4724-926f-6172642e6b69,rev?*%
%TF.SameCoordinates,Original*%
%TF.FileFunction,Copper,L2,Bot*%
%TF.FilePolarity,Positive*%
%FSLAX46Y46*%
G04 Gerber Fmt 4.6, Leading zero omitted, Abs format (unit mm)*
G04 Created by KiCad (PCBNEW 9.0.3) date 2025-07-17 11:53:43*
%MOMM*%
%LPD*%
G01*
G04 APERTURE LIST*
G04 Aperture macros list*
%AMFreePoly0*
4,1,23,0.550000,-0.750000,0.000000,-0.750000,0.000000,-0.745722,-0.065263,-0.745722,-0.191342,-0.711940,-0.304381,-0.646677,-0.396677,-0.554381,-0.461940,-0.441342,-0.495722,-0.315263,-0.495722,-0.250000,-0.500000,-0.250000,-0.500000,0.250000,-0.495722,0.250000,-0.495722,0.315263,-0.461940,0.441342,-0.396677,0.554381,-0.304381,0.646677,-0.191342,0.711940,-0.065263,0.745722,0.000000,0.745722,
0.000000,0.750000,0.550000,0.750000,0.550000,-0.750000,0.550000,-0.750000,$1*%
%AMFreePoly1*
4,1,23,0.000000,0.745722,0.065263,0.745722,0.191342,0.711940,0.304381,0.646677,0.396677,0.554381,0.461940,0.441342,0.495722,0.315263,0.495722,0.250000,0.500000,0.250000,0.500000,-0.250000,0.495722,-0.250000,0.495722,-0.315263,0.461940,-0.441342,0.396677,-0.554381,0.304381,-0.646677,0.191342,-0.711940,0.065263,-0.745722,0.000000,-0.745722,0.000000,-0.750000,-0.550000,-0.750000,
-0.550000,0.750000,0.000000,0.750000,0.000000,0.745722,0.000000,0.745722,$1*%
G04 Aperture macros list end*
%TA.AperFunction,SMDPad,CuDef*%
%ADD10FreePoly0,270.000000*%
%TD*%
%TA.AperFunction,SMDPad,CuDef*%
%ADD11R,1.500000X1.000000*%
%TD*%
%TA.AperFunction,SMDPad,CuDef*%
%ADD12FreePoly1,270.000000*%
%TD*%
%TA.AperFunction,ViaPad*%
%ADD13C,0.600000*%
%TD*%
%TA.AperFunction,Conductor*%
%ADD14C,0.200000*%
%TD*%
G04 APERTURE END LIST*
D10*
%TO.P,JP1,1,A*%
%TO.N,Net-(JP1-A)*%
X150000000Y-98700000D03*
D11*
%TO.P,JP1,2,C*%
%TO.N,Net-(JP1-C)*%
X150000000Y-100000000D03*
D12*
%TO.P,JP1,3,B*%
%TO.N,VDD*%
X150000000Y-101300000D03*
%TD*%
D13*
%TO.N,GND*%
X153852354Y-98711358D03*
X145050000Y-101300000D03*
%TO.N,VDD*%
X154650000Y-98650000D03*
X151550000Y-101300000D03*
X142150000Y-96850000D03*
X153650000Y-93450000D03*
%TO.N,Net-(JP1-A)*%
X149800000Y-97450000D03*
%TO.N,Net-(JP1-C)*%
X151450735Y-99900735D03*
%TD*%
D14*
%TO.N,VDD*%
X154650000Y-94450000D02*
X154650000Y-98650000D01*
X142150000Y-96850000D02*
X146600000Y-101300000D01*
X153650000Y-93450000D02*
X154650000Y-94450000D01*
X146600000Y-101300000D02*
X150000000Y-101300000D01*
X151550000Y-101300000D02*
X150000000Y-101300000D01*
%TO.N,Net-(JP1-A)*%
X150000000Y-97650000D02*
X149800000Y-97450000D01*
X150000000Y-98700000D02*
X150000000Y-97650000D01*
%TO.N,Net-(JP1-C)*%
X150099265Y-99900735D02*
X150000000Y-100000000D01*
X151450735Y-99900735D02*
X150099265Y-99900735D01*
%TD*%
%TA.AperFunction,Conductor*%
%TO.N,GND*%
G36*
X144462807Y-86615982D02*
G01*
X144489970Y-86621441D01*
X144569727Y-86647012D01*
X144595005Y-86658369D01*
X144595336Y-86658565D01*
X144667091Y-86701017D01*
X144689213Y-86717702D01*
X144745899Y-86771388D01*
X144755158Y-86780157D01*
X144764685Y-86790250D01*
X144802637Y-86835255D01*
X146667106Y-89046218D01*
X146667154Y-89046275D01*
X146712951Y-89100650D01*
X146712959Y-89100658D01*
X146876109Y-89245268D01*
X146876111Y-89245269D01*
X146876113Y-89245271D01*
X147058459Y-89364786D01*
X147058462Y-89364787D01*
X147058463Y-89364788D01*
X147256166Y-89456689D01*
X147256176Y-89456693D01*
X147465072Y-89519048D01*
X147465075Y-89519048D01*
X147465080Y-89519050D01*
X147680814Y-89550560D01*
X147789826Y-89550500D01*
X152210174Y-89550500D01*
X152233031Y-89550500D01*
X152319183Y-89550549D01*
X152534911Y-89519043D01*
X152743820Y-89456688D01*
X152941525Y-89364796D01*
X153123872Y-89245294D01*
X153287033Y-89100692D01*
X153357262Y-89017321D01*
X153357268Y-89017326D01*
X153357296Y-89017280D01*
X153375591Y-88995585D01*
X153399741Y-88966949D01*
X153413879Y-88950185D01*
X153413885Y-88950174D01*
X155235188Y-86790399D01*
X155244708Y-86780314D01*
X155310617Y-86717900D01*
X155332747Y-86701211D01*
X155404842Y-86658565D01*
X155430127Y-86647208D01*
X155489859Y-86628064D01*
X155509899Y-86621641D01*
X155537065Y-86616186D01*
X155620533Y-86608979D01*
X155648227Y-86609695D01*
X155731211Y-86621210D01*
X155758058Y-86628062D01*
X155836410Y-86657723D01*
X155861059Y-86670365D01*
X155937023Y-86720779D01*
X155948121Y-86729075D01*
X155992995Y-86766712D01*
X155992996Y-86766712D01*
X155998561Y-86771380D01*
X155998570Y-86771387D01*
X163662761Y-93199417D01*
X163662771Y-93199431D01*
X163707934Y-93237305D01*
X163718051Y-93246804D01*
X163775557Y-93307205D01*
X163780696Y-93312602D01*
X163797459Y-93334711D01*
X163840321Y-93406765D01*
X163851745Y-93432038D01*
X163877517Y-93511824D01*
X163883037Y-93539013D01*
X163890423Y-93622527D01*
X163889760Y-93650263D01*
X163878393Y-93733330D01*
X163871580Y-93760224D01*
X163842030Y-93838681D01*
X163829407Y-93863389D01*
X163779562Y-93938738D01*
X163771261Y-93949876D01*
X163733132Y-93995466D01*
X163733132Y-93995467D01*
X162301742Y-95706912D01*
X162301651Y-95707036D01*
X162281861Y-95730690D01*
X162281858Y-95730693D01*
X162281855Y-95730698D01*
X162203301Y-95856764D01*
X162171128Y-95908396D01*
X162171127Y-95908397D01*
X162086156Y-96099722D01*
X162086150Y-96099738D01*
X162028569Y-96301012D01*
X162028565Y-96301033D01*
X161999486Y-96508358D01*
X161999494Y-96565604D01*
X161999500Y-96613040D01*
X161999497Y-96678932D01*
X161999500Y-96678943D01*
X161999500Y-103363943D01*
X161999497Y-103363993D01*
X161999497Y-103386067D01*
X161999485Y-103386104D01*
X161999486Y-103386105D01*
X161999452Y-103542012D01*
X161999453Y-103542015D01*
X162028457Y-103749085D01*
X162028458Y-103749088D01*
X162028459Y-103749093D01*
X162085903Y-103950151D01*
X162170674Y-104141301D01*
X162170676Y-104141305D01*
X162170679Y-104141310D01*
X162281131Y-104318843D01*
X162281133Y-104318845D01*
X162281134Y-104318847D01*
X162346753Y-104397402D01*
X162348160Y-104399087D01*
X162348160Y-104399088D01*
X162363482Y-104417440D01*
X163708980Y-106029079D01*
X163708986Y-106029092D01*
X163736259Y-106061756D01*
X163740397Y-106066713D01*
X163746758Y-106074331D01*
X163755048Y-106085475D01*
X163805085Y-106161249D01*
X163817683Y-106185953D01*
X163847168Y-106264403D01*
X163853960Y-106291292D01*
X163865270Y-106374323D01*
X163865917Y-106402048D01*
X163858490Y-106485524D01*
X163852960Y-106512694D01*
X163852959Y-106512699D01*
X163827167Y-106592434D01*
X163815733Y-106617703D01*
X163772862Y-106689713D01*
X163756101Y-106711805D01*
X163693674Y-106777342D01*
X163683546Y-106786846D01*
X163636072Y-106826641D01*
X163636067Y-106826644D01*
X163636068Y-106826645D01*
X155955004Y-113265491D01*
X155954994Y-113265499D01*
X155947903Y-113271442D01*
X155936793Y-113279742D01*
X155861166Y-113329903D01*
X155836500Y-113342546D01*
X155758165Y-113372180D01*
X155731312Y-113379027D01*
X155648353Y-113390523D01*
X155620645Y-113391236D01*
X155537196Y-113384017D01*
X155510025Y-113378557D01*
X155430273Y-113352987D01*
X155404992Y-113341629D01*
X155332908Y-113298982D01*
X155310785Y-113282296D01*
X155244838Y-113219839D01*
X155235314Y-113209749D01*
X155189214Y-113155081D01*
X155189204Y-113155071D01*
X153332893Y-110953781D01*
X153332845Y-110953724D01*
X153287047Y-110899349D01*
X153287044Y-110899345D01*
X153287041Y-110899343D01*
X153287040Y-110899341D01*
X153123890Y-110754731D01*
X152941536Y-110635211D01*
X152743833Y-110543310D01*
X152743823Y-110543306D01*
X152534927Y-110480951D01*
X152534916Y-110480949D01*
X152319192Y-110449440D01*
X152319186Y-110449440D01*
X152210174Y-110449500D01*
X147766969Y-110449500D01*
X147680816Y-110449450D01*
X147465086Y-110480957D01*
X147465085Y-110480957D01*
X147256188Y-110543309D01*
X147256176Y-110543313D01*
X147058479Y-110635202D01*
X147058474Y-110635204D01*
X146876124Y-110754708D01*
X146712976Y-110899299D01*
X146712964Y-110899310D01*
X146643238Y-110982084D01*
X146643196Y-110982134D01*
X146623939Y-111004970D01*
X146623938Y-111004971D01*
X146601955Y-111031037D01*
X146601953Y-111031042D01*
X144804344Y-113162720D01*
X144804344Y-113162721D01*
X144764641Y-113209802D01*
X144764638Y-113209803D01*
X144755113Y-113219895D01*
X144689221Y-113282299D01*
X144667094Y-113298988D01*
X144595008Y-113341636D01*
X144569728Y-113352994D01*
X144489975Y-113378565D01*
X144462803Y-113384025D01*
X144379353Y-113391244D01*
X144351646Y-113390531D01*
X144268686Y-113379035D01*
X144241832Y-113372188D01*
X144229331Y-113367458D01*
X144163492Y-113342551D01*
X144138831Y-113329911D01*
X144081504Y-113291888D01*
X144063256Y-113279784D01*
X144052137Y-113271477D01*
X143990541Y-113219843D01*
X141381861Y-111033051D01*
X137667842Y-107919681D01*
X137559322Y-107828711D01*
X148149500Y-107828711D01*
X148149500Y-108071288D01*
X148181161Y-108311785D01*
X148243947Y-108546104D01*
X148336773Y-108770205D01*
X148336776Y-108770212D01*
X148458064Y-108980289D01*
X148458066Y-108980292D01*
X148458067Y-108980293D01*
X148605733Y-109172736D01*
X148605739Y-109172743D01*
X148777256Y-109344260D01*
X148777262Y-109344265D01*
X148969711Y-109491936D01*
X149179788Y-109613224D01*
X149403900Y-109706054D01*
X149638211Y-109768838D01*
X149818586Y-109792584D01*
X149878711Y-109800500D01*
X149878712Y-109800500D01*
X150121289Y-109800500D01*
X150169388Y-109794167D01*
X150361789Y-109768838D01*
X150596100Y-109706054D01*
X150820212Y-109613224D01*
X151030289Y-109491936D01*
X151222738Y-109344265D01*
X151394265Y-109172738D01*
X151541936Y-108980289D01*
X151663224Y-108770212D01*
X151756054Y-108546100D01*
X151818838Y-108311789D01*
X151850500Y-108071288D01*
X151850500Y-107828712D01*
X151818838Y-107588211D01*
X151756054Y-107353900D01*
X151663224Y-107129788D01*
X151541936Y-106919711D01*
X151394265Y-106727262D01*
X151394260Y-106727256D01*
X151222743Y-106555739D01*
X151222736Y-106555733D01*
X151030293Y-106408067D01*
X151030292Y-106408066D01*
X151030289Y-106408064D01*
X150820212Y-106286776D01*
X150766199Y-106264403D01*
X150596104Y-106193947D01*
X150361785Y-106131161D01*
X150121289Y-106099500D01*
X150121288Y-106099500D01*
X149878712Y-106099500D01*
X149878711Y-106099500D01*
X149638214Y-106131161D01*
X149403895Y-106193947D01*
X149179794Y-106286773D01*
X149179785Y-106286777D01*
X148969706Y-106408067D01*
X148777263Y-106555733D01*
X148777256Y-106555739D01*
X148605739Y-106727256D01*
X148605733Y-106727263D01*
X148458067Y-106919706D01*
X148336777Y-107129785D01*
X148336773Y-107129794D01*
X148243947Y-107353895D01*
X148181161Y-107588214D01*
X148149500Y-107828711D01*
X137559322Y-107828711D01*
X136316703Y-106787055D01*
X136306572Y-106777546D01*
X136275310Y-106744722D01*
X136243955Y-106711800D01*
X136227196Y-106689709D01*
X136184333Y-106617703D01*
X136184330Y-106617697D01*
X136172900Y-106592434D01*
X136147108Y-106512694D01*
X136141578Y-106485525D01*
X136134152Y-106402047D01*
X136134797Y-106374335D01*
X136146108Y-106291285D01*
X136152900Y-106264402D01*
X136182382Y-106185953D01*
X136194972Y-106161259D01*
X136245247Y-106085118D01*
X136253528Y-106073985D01*
X137622535Y-104434187D01*
X137622647Y-104434111D01*
X137654238Y-104396222D01*
X137658653Y-104390926D01*
X137658707Y-104390862D01*
X137701523Y-104339577D01*
X137701892Y-104339069D01*
X137720552Y-104316692D01*
X137830183Y-104140979D01*
X137830183Y-104140976D01*
X137830187Y-104140972D01*
X137830187Y-104140970D01*
X137914633Y-103951878D01*
X137914636Y-103951872D01*
X137956312Y-103808127D01*
X137972307Y-103752961D01*
X137972308Y-103752956D01*
X138002107Y-103548002D01*
X138002316Y-103518786D01*
X138002365Y-103518118D01*
X138002416Y-103510351D01*
X138002417Y-103510348D01*
X138024982Y-100080259D01*
X138025042Y-100073198D01*
X138025063Y-100073127D01*
X138025500Y-100066792D01*
X138025500Y-100002005D01*
X138025503Y-100001188D01*
X138025645Y-99979577D01*
X138025901Y-99940692D01*
X138025900Y-99940690D01*
X138025927Y-99936658D01*
X138025519Y-99930241D01*
X138025500Y-99923038D01*
X138025517Y-99922978D01*
X138025500Y-99922711D01*
X138025500Y-99878711D01*
X138699500Y-99878711D01*
X138699500Y-100121288D01*
X138731161Y-100361785D01*
X138793947Y-100596104D01*
X138874140Y-100789707D01*
X138886776Y-100820212D01*
X139008064Y-101030289D01*
X139008066Y-101030292D01*
X139008067Y-101030293D01*
X139155733Y-101222736D01*
X139155739Y-101222743D01*
X139327256Y-101394260D01*
X139327262Y-101394265D01*
X139519711Y-101541936D01*
X139729788Y-101663224D01*
X139953900Y-101756054D01*
X140188211Y-101818838D01*
X140368586Y-101842584D01*
X140428711Y-101850500D01*
X140428712Y-101850500D01*
X140671289Y-101850500D01*
X140719388Y-101844167D01*
X140911789Y-101818838D01*
X141146100Y-101756054D01*
X141370212Y-101663224D01*
X141580289Y-101541936D01*
X141772738Y-101394265D01*
X141944265Y-101222738D01*
X142091936Y-101030289D01*
X142213224Y-100820212D01*
X142306054Y-100596100D01*
X142368838Y-100361789D01*
X142400500Y-100121288D01*
X142400500Y-99878712D01*
X142368838Y-99638211D01*
X142306054Y-99403900D01*
X142213224Y-99179788D01*
X142091936Y-98969711D01*
X141944265Y-98777262D01*
X141944260Y-98777256D01*
X141772743Y-98605739D01*
X141772736Y-98605733D01*
X141580293Y-98458067D01*
X141580292Y-98458066D01*
X141580289Y-98458064D01*
X141370212Y-98336776D01*
X141370205Y-98336773D01*
X141146104Y-98243947D01*
X140911785Y-98181161D01*
X140671289Y-98149500D01*
X140671288Y-98149500D01*
X140428712Y-98149500D01*
X140428711Y-98149500D01*
X140188214Y-98181161D01*
X139953895Y-98243947D01*
X139729794Y-98336773D01*
X139729785Y-98336777D01*
X139519706Y-98458067D01*
X139327263Y-98605733D01*
X139327256Y-98605739D01*
X139155739Y-98777256D01*
X139155733Y-98777263D01*
X139008067Y-98969706D01*
X138886777Y-99179785D01*
X138886773Y-99179794D01*
X138793947Y-99403895D01*
X138731161Y-99638214D01*
X138699500Y-99878711D01*
X138025500Y-99878711D01*
X138025500Y-96771153D01*
X141349500Y-96771153D01*
X141349500Y-96928846D01*
X141380261Y-97083489D01*
X141380264Y-97083501D01*
X141440602Y-97229172D01*
X141440609Y-97229185D01*
X141528210Y-97360288D01*
X141528213Y-97360292D01*
X141639707Y-97471786D01*
X141639711Y-97471789D01*
X141770814Y-97559390D01*
X141770827Y-97559397D01*
X141916498Y-97619735D01*
X141916503Y-97619737D01*
X141981147Y-97632595D01*
X142071849Y-97650638D01*
X142133760Y-97683023D01*
X142135339Y-97684574D01*
X146115139Y-101664374D01*
X146115149Y-101664385D01*
X146119479Y-101668715D01*
X146119480Y-101668716D01*
X146231284Y-101780520D01*
X146231286Y-101780521D01*
X146231290Y-101780524D01*
X146297653Y-101818838D01*
X146368216Y-101859577D01*
X146480019Y-101889534D01*
X146520942Y-101900500D01*
X146520943Y-101900500D01*
X148882239Y-101900500D01*
X148949278Y-101920185D01*
X148980615Y-101949014D01*
X148992456Y-101964446D01*
X148992458Y-101964448D01*
X148992459Y-101964449D01*
X149085551Y-102057541D01*
X149085555Y-102057544D01*
X149190232Y-102137867D01*
X149190236Y-102137869D01*
X149190243Y-102137875D01*
X149190250Y-102137879D01*
X149304248Y-102203696D01*
X149304249Y-102203697D01*
X149304252Y-102203698D01*
X149304257Y-102203701D01*
X149426171Y-102254200D01*
X149553338Y-102288275D01*
X149684174Y-102305500D01*
X149684181Y-102305500D01*
X150315819Y-102305500D01*
X150315826Y-102305500D01*
X150446662Y-102288275D01*
X150573829Y-102254200D01*
X150695743Y-102203701D01*
X150809757Y-102137875D01*
X150914449Y-102057541D01*
X150974041Y-101997949D01*
X151035364Y-101964464D01*
X151105056Y-101969448D01*
X151130611Y-101982526D01*
X151170821Y-102009394D01*
X151170823Y-102009395D01*
X151170827Y-102009397D01*
X151287059Y-102057541D01*
X151316503Y-102069737D01*
X151471153Y-102100499D01*
X151471156Y-102100500D01*
X151471158Y-102100500D01*
X151628844Y-102100500D01*
X151628845Y-102100499D01*
X151783497Y-102069737D01*
X151929179Y-102009394D01*
X152060289Y-101921789D01*
X152171789Y-101810289D01*
X152259394Y-101679179D01*
X152319737Y-101533497D01*
X152350500Y-101378842D01*
X152350500Y-101221158D01*
X152350500Y-101221155D01*
X152350499Y-101221153D01*
X152319738Y-101066510D01*
X152319737Y-101066503D01*
X152319735Y-101066498D01*
X152259397Y-100920827D01*
X152259390Y-100920814D01*
X152171789Y-100789711D01*
X152171786Y-100789707D01*
X152060290Y-100678211D01*
X152033085Y-100660033D01*
X151988281Y-100606420D01*
X151979575Y-100537095D01*
X152009731Y-100474068D01*
X152014278Y-100469269D01*
X152072524Y-100411024D01*
X152160129Y-100279914D01*
X152220472Y-100134232D01*
X152251235Y-99979577D01*
X152251235Y-99878711D01*
X157599500Y-99878711D01*
X157599500Y-100121288D01*
X157631161Y-100361785D01*
X157693947Y-100596104D01*
X157774140Y-100789707D01*
X157786776Y-100820212D01*
X157908064Y-101030289D01*
X157908066Y-101030292D01*
X157908067Y-101030293D01*
X158055733Y-101222736D01*
X158055739Y-101222743D01*
X158227256Y-101394260D01*
X158227262Y-101394265D01*
X158419711Y-101541936D01*
X158629788Y-101663224D01*
X158853900Y-101756054D01*
X159088211Y-101818838D01*
X159268586Y-101842584D01*
X159328711Y-101850500D01*
X159328712Y-101850500D01*
X159571289Y-101850500D01*
X159619388Y-101844167D01*
X159811789Y-101818838D01*
X160046100Y-101756054D01*
X160270212Y-101663224D01*
X160480289Y-101541936D01*
X160672738Y-101394265D01*
X160844265Y-101222738D01*
X160991936Y-101030289D01*
X161113224Y-100820212D01*
X161206054Y-100596100D01*
X161268838Y-100361789D01*
X161300500Y-100121288D01*
X161300500Y-99878712D01*
X161268838Y-99638211D01*
X161206054Y-99403900D01*
X161113224Y-99179788D01*
X160991936Y-98969711D01*
X160844265Y-98777262D01*
X160844260Y-98777256D01*
X160672743Y-98605739D01*
X160672736Y-98605733D01*
X160480293Y-98458067D01*
X160480292Y-98458066D01*
X160480289Y-98458064D01*
X160270212Y-98336776D01*
X160270205Y-98336773D01*
X160046104Y-98243947D01*
X159811785Y-98181161D01*
X159571289Y-98149500D01*
X159571288Y-98149500D01*
X159328712Y-98149500D01*
X159328711Y-98149500D01*
X159088214Y-98181161D01*
X158853895Y-98243947D01*
X158629794Y-98336773D01*
X158629785Y-98336777D01*
X158419706Y-98458067D01*
X158227263Y-98605733D01*
X158227256Y-98605739D01*
X158055739Y-98777256D01*
X158055733Y-98777263D01*
X157908067Y-98969706D01*
X157786777Y-99179785D01*
X157786773Y-99179794D01*
X157693947Y-99403895D01*
X157631161Y-99638214D01*
X157599500Y-99878711D01*
X152251235Y-99878711D01*
X152251235Y-99821893D01*
X152251235Y-99821890D01*
X152251234Y-99821888D01*
X152220473Y-99667245D01*
X152220472Y-99667238D01*
X152208449Y-99638211D01*
X152160132Y-99521562D01*
X152160125Y-99521549D01*
X152072524Y-99390446D01*
X152072521Y-99390442D01*
X151961027Y-99278948D01*
X151961023Y-99278945D01*
X151829920Y-99191344D01*
X151829907Y-99191337D01*
X151684236Y-99130999D01*
X151684224Y-99130996D01*
X151529580Y-99100235D01*
X151529577Y-99100235D01*
X151379500Y-99100235D01*
X151312461Y-99080550D01*
X151266706Y-99027746D01*
X151255500Y-98976235D01*
X151255500Y-98634180D01*
X151255499Y-98634166D01*
X151238275Y-98503341D01*
X151238275Y-98503338D01*
X151204200Y-98376171D01*
X151153701Y-98254257D01*
X151153698Y-98254252D01*
X151153697Y-98254249D01*
X151153696Y-98254248D01*
X151087879Y-98140250D01*
X151087875Y-98140243D01*
X151087017Y-98139125D01*
X151007544Y-98035555D01*
X151007541Y-98035551D01*
X150914449Y-97942459D01*
X150861070Y-97901499D01*
X150809767Y-97862132D01*
X150809749Y-97862120D01*
X150695753Y-97796304D01*
X150695739Y-97796297D01*
X150677046Y-97788554D01*
X150662135Y-97776537D01*
X150644607Y-97768825D01*
X150635493Y-97755067D01*
X150622643Y-97744712D01*
X150616595Y-97726541D01*
X150606020Y-97710577D01*
X150601656Y-97681650D01*
X150600580Y-97678417D01*
X150600513Y-97675715D01*
X150600501Y-97674850D01*
X150600501Y-97570943D01*
X150598979Y-97565267D01*
X150598788Y-97551440D01*
X150600515Y-97545237D01*
X150600851Y-97534995D01*
X150599903Y-97534902D01*
X150600500Y-97528843D01*
X150600500Y-97371155D01*
X150600499Y-97371153D01*
X150598338Y-97360288D01*
X150569737Y-97216503D01*
X150569735Y-97216498D01*
X150509397Y-97070827D01*
X150509390Y-97070814D01*
X150421789Y-96939711D01*
X150421786Y-96939707D01*
X150310292Y-96828213D01*
X150310288Y-96828210D01*
X150179185Y-96740609D01*
X150179172Y-96740602D01*
X150033501Y-96680264D01*
X150033489Y-96680261D01*
X149878845Y-96649500D01*
X149878842Y-96649500D01*
X149721158Y-96649500D01*
X149721155Y-96649500D01*
X149566510Y-96680261D01*
X149566498Y-96680264D01*
X149420827Y-96740602D01*
X149420814Y-96740609D01*
X149289711Y-96828210D01*
X149289707Y-96828213D01*
X149178213Y-96939707D01*
X149178210Y-96939711D01*
X149090609Y-97070814D01*
X149090602Y-97070827D01*
X149030264Y-97216498D01*
X149030261Y-97216510D01*
X148999500Y-97371153D01*
X148999500Y-97528846D01*
X149030261Y-97683489D01*
X149030264Y-97683501D01*
X149090597Y-97829159D01*
X149098066Y-97898628D01*
X149066790Y-97961107D01*
X149063718Y-97964292D01*
X148992455Y-98035555D01*
X148912132Y-98140232D01*
X148912120Y-98140250D01*
X148846303Y-98254248D01*
X148846302Y-98254249D01*
X148795800Y-98376170D01*
X148761724Y-98503341D01*
X148744500Y-98634166D01*
X148744500Y-99250002D01*
X148749645Y-99321941D01*
X148753107Y-99333732D01*
X148754470Y-99384561D01*
X148756738Y-99384805D01*
X148749501Y-99452116D01*
X148749500Y-99452135D01*
X148749500Y-100547870D01*
X148749501Y-100547879D01*
X148751046Y-100562248D01*
X148738639Y-100631007D01*
X148691027Y-100682143D01*
X148627756Y-100699500D01*
X146900097Y-100699500D01*
X146833058Y-100679815D01*
X146812416Y-100663181D01*
X142984574Y-96835339D01*
X142951089Y-96774016D01*
X142950638Y-96771849D01*
X142932155Y-96678932D01*
X142919737Y-96616503D01*
X142898654Y-96565604D01*
X142859397Y-96470827D01*
X142859390Y-96470814D01*
X142771789Y-96339711D01*
X142771786Y-96339707D01*
X142660292Y-96228213D01*
X142660288Y-96228210D01*
X142529185Y-96140609D01*
X142529172Y-96140602D01*
X142383501Y-96080264D01*
X142383489Y-96080261D01*
X142228845Y-96049500D01*
X142228842Y-96049500D01*
X142071158Y-96049500D01*
X142071155Y-96049500D01*
X141916510Y-96080261D01*
X141916498Y-96080264D01*
X141770827Y-96140602D01*
X141770814Y-96140609D01*
X141639711Y-96228210D01*
X141639707Y-96228213D01*
X141528213Y-96339707D01*
X141528210Y-96339711D01*
X141440609Y-96470814D01*
X141440602Y-96470827D01*
X141380264Y-96616498D01*
X141380261Y-96616510D01*
X141349500Y-96771153D01*
X138025500Y-96771153D01*
X138025500Y-96491770D01*
X138025473Y-96491381D01*
X138025465Y-96460253D01*
X138025465Y-96460248D01*
X137996022Y-96251617D01*
X137996019Y-96251600D01*
X137989283Y-96228210D01*
X137937706Y-96049115D01*
X137851667Y-95856764D01*
X137851667Y-95856763D01*
X137739595Y-95678328D01*
X137739592Y-95678323D01*
X137719696Y-95654737D01*
X137714188Y-95648207D01*
X137714158Y-95648141D01*
X137671660Y-95597790D01*
X137671660Y-95597789D01*
X137629160Y-95547435D01*
X137629158Y-95547434D01*
X137624644Y-95542085D01*
X137624627Y-95542066D01*
X136956177Y-94750097D01*
X136259193Y-93924322D01*
X136250813Y-93913177D01*
X136200236Y-93837389D01*
X136187486Y-93812661D01*
X136157576Y-93734064D01*
X136150660Y-93707115D01*
X136140787Y-93636433D01*
X136139025Y-93623821D01*
X136138293Y-93596018D01*
X136145523Y-93512225D01*
X136151010Y-93484953D01*
X136176741Y-93404883D01*
X136188167Y-93379525D01*
X136231106Y-93307203D01*
X136247900Y-93285030D01*
X136310910Y-93218819D01*
X136321057Y-93209291D01*
X137848695Y-91928711D01*
X148149500Y-91928711D01*
X148149500Y-92171288D01*
X148180206Y-92404534D01*
X148181162Y-92411789D01*
X148201899Y-92489181D01*
X148243947Y-92646104D01*
X148319379Y-92828213D01*
X148336776Y-92870212D01*
X148458064Y-93080289D01*
X148458066Y-93080292D01*
X148458067Y-93080293D01*
X148605733Y-93272736D01*
X148605739Y-93272743D01*
X148777256Y-93444260D01*
X148777262Y-93444265D01*
X148969711Y-93591936D01*
X149179788Y-93713224D01*
X149403900Y-93806054D01*
X149638211Y-93868838D01*
X149818586Y-93892584D01*
X149878711Y-93900500D01*
X149878712Y-93900500D01*
X150121289Y-93900500D01*
X150169388Y-93894167D01*
X150361789Y-93868838D01*
X150596100Y-93806054D01*
X150820212Y-93713224D01*
X151030289Y-93591936D01*
X151222738Y-93444265D01*
X151295850Y-93371153D01*
X152849500Y-93371153D01*
X152849500Y-93528846D01*
X152880261Y-93683489D01*
X152880264Y-93683501D01*
X152940602Y-93829172D01*
X152940609Y-93829185D01*
X153028210Y-93960288D01*
X153028213Y-93960292D01*
X153139707Y-94071786D01*
X153139711Y-94071789D01*
X153270814Y-94159390D01*
X153270827Y-94159397D01*
X153412814Y-94218209D01*
X153416503Y-94219737D01*
X153481147Y-94232595D01*
X153571849Y-94250638D01*
X153633760Y-94283023D01*
X153635339Y-94284574D01*
X154013181Y-94662416D01*
X154046666Y-94723739D01*
X154049500Y-94750097D01*
X154049500Y-98070234D01*
X154029815Y-98137273D01*
X154028602Y-98139125D01*
X153940609Y-98270814D01*
X153940602Y-98270827D01*
X153880264Y-98416498D01*
X153880261Y-98416510D01*
X153849500Y-98571153D01*
X153849500Y-98728846D01*
X153880261Y-98883489D01*
X153880264Y-98883501D01*
X153940602Y-99029172D01*
X153940609Y-99029185D01*
X154028210Y-99160288D01*
X154028213Y-99160292D01*
X154139707Y-99271786D01*
X154139711Y-99271789D01*
X154270814Y-99359390D01*
X154270827Y-99359397D01*
X154416498Y-99419735D01*
X154416503Y-99419737D01*
X154571153Y-99450499D01*
X154571156Y-99450500D01*
X154571158Y-99450500D01*
X154728844Y-99450500D01*
X154728845Y-99450499D01*
X154883497Y-99419737D01*
X155029179Y-99359394D01*
X155160289Y-99271789D01*
X155271789Y-99160289D01*
X155359394Y-99029179D01*
X155419737Y-98883497D01*
X155450500Y-98728842D01*
X155450500Y-98571158D01*
X155450500Y-98571155D01*
X155450499Y-98571153D01*
X155437010Y-98503341D01*
X155419737Y-98416503D01*
X155386714Y-98336777D01*
X155359397Y-98270827D01*
X155359390Y-98270814D01*
X155271398Y-98139125D01*
X155250520Y-98072447D01*
X155250500Y-98070234D01*
X155250500Y-94539060D01*
X155250501Y-94539047D01*
X155250501Y-94370944D01*
X155250501Y-94370943D01*
X155209577Y-94218216D01*
X155175618Y-94159397D01*
X155130524Y-94081290D01*
X155130518Y-94081282D01*
X154484573Y-93435337D01*
X154451088Y-93374014D01*
X154450637Y-93371847D01*
X154430923Y-93272738D01*
X154419737Y-93216503D01*
X154418678Y-93213946D01*
X154359397Y-93070827D01*
X154359390Y-93070814D01*
X154271789Y-92939711D01*
X154271786Y-92939707D01*
X154160292Y-92828213D01*
X154160288Y-92828210D01*
X154029185Y-92740609D01*
X154029172Y-92740602D01*
X153883501Y-92680264D01*
X153883489Y-92680261D01*
X153728845Y-92649500D01*
X153728842Y-92649500D01*
X153571158Y-92649500D01*
X153571155Y-92649500D01*
X153416510Y-92680261D01*
X153416498Y-92680264D01*
X153270827Y-92740602D01*
X153270814Y-92740609D01*
X153139711Y-92828210D01*
X153139707Y-92828213D01*
X153028213Y-92939707D01*
X153028210Y-92939711D01*
X152940609Y-93070814D01*
X152940602Y-93070827D01*
X152880264Y-93216498D01*
X152880261Y-93216510D01*
X152849500Y-93371153D01*
X151295850Y-93371153D01*
X151389619Y-93277385D01*
X151394260Y-93272743D01*
X151394265Y-93272738D01*
X151541936Y-93080289D01*
X151663224Y-92870212D01*
X151756054Y-92646100D01*
X151818838Y-92411789D01*
X151850500Y-92171288D01*
X151850500Y-91928712D01*
X151818838Y-91688211D01*
X151756054Y-91453900D01*
X151663224Y-91229788D01*
X151541936Y-91019711D01*
X151394265Y-90827262D01*
X151394260Y-90827256D01*
X151222743Y-90655739D01*
X151222736Y-90655733D01*
X151030293Y-90508067D01*
X151030292Y-90508066D01*
X151030289Y-90508064D01*
X150820212Y-90386776D01*
X150820205Y-90386773D01*
X150596104Y-90293947D01*
X150361785Y-90231161D01*
X150121289Y-90199500D01*
X150121288Y-90199500D01*
X149878712Y-90199500D01*
X149878711Y-90199500D01*
X149638214Y-90231161D01*
X149403895Y-90293947D01*
X149179794Y-90386773D01*
X149179785Y-90386777D01*
X148969706Y-90508067D01*
X148777263Y-90655733D01*
X148777256Y-90655739D01*
X148605739Y-90827256D01*
X148605733Y-90827263D01*
X148458067Y-91019706D01*
X148336777Y-91229785D01*
X148336773Y-91229794D01*
X148243947Y-91453895D01*
X148181161Y-91688214D01*
X148149500Y-91928711D01*
X137848695Y-91928711D01*
X144047083Y-86732759D01*
X144047084Y-86732760D01*
X144047092Y-86732751D01*
X144052112Y-86728543D01*
X144063199Y-86720262D01*
X144138839Y-86670093D01*
X144163488Y-86657458D01*
X144241840Y-86627817D01*
X144268685Y-86620972D01*
X144351652Y-86609475D01*
X144379348Y-86608763D01*
X144462807Y-86615982D01*
G37*
%TD.AperFunction*%
%TD*%
M02*
