%TF.GenerationSoftware,KiCad,Pcbnew,9.0.3*%
%TF.CreationDate,2025-07-17T11:53:43-06:00*%
%TF.ProjectId,EncoderBoard,456e636f-6465-4724-926f-6172642e6b69,rev?*%
%TF.SameCoordinates,Original*%
%TF.FileFunction,Legend,Bot*%
%TF.FilePolarity,Positive*%
%FSLAX46Y46*%
G04 Gerber Fmt 4.6, Leading zero omitted, Abs format (unit mm)*
G04 Created by KiCad (PCBNEW 9.0.3) date 2025-07-17 11:53:43*
%MOMM*%
%LPD*%
G01*
G04 APERTURE LIST*
%ADD10C,0.160000*%
%ADD11C,0.120000*%
G04 APERTURE END LIST*
D10*
X138045046Y-92476792D02*
X137493264Y-93374927D01*
X137493264Y-93374927D02*
X138473571Y-92987488D01*
X137921790Y-93885624D02*
X138687834Y-93242836D01*
X138687834Y-93242836D02*
X138840879Y-93425228D01*
X138840879Y-93425228D02*
X138896227Y-93565272D01*
X138896227Y-93565272D02*
X138884488Y-93699446D01*
X138884488Y-93699446D02*
X138842141Y-93797142D01*
X138842141Y-93797142D02*
X138726836Y-93956056D01*
X138726836Y-93956056D02*
X138617402Y-94047883D01*
X138617402Y-94047883D02*
X138440879Y-94133841D01*
X138440879Y-94133841D02*
X138337314Y-94158580D01*
X138337314Y-94158580D02*
X138203139Y-94146841D01*
X138203139Y-94146841D02*
X138074834Y-94068015D01*
X138074834Y-94068015D02*
X137921790Y-93885624D01*
X138564577Y-94651668D02*
X139330622Y-94008881D01*
X139330622Y-94008881D02*
X139483666Y-94191272D01*
X139483666Y-94191272D02*
X139539015Y-94331316D01*
X139539015Y-94331316D02*
X139527276Y-94465491D01*
X139527276Y-94465491D02*
X139484928Y-94563187D01*
X139484928Y-94563187D02*
X139369624Y-94722101D01*
X139369624Y-94722101D02*
X139260189Y-94813928D01*
X139260189Y-94813928D02*
X139083667Y-94899885D01*
X139083667Y-94899885D02*
X138980101Y-94924625D01*
X138980101Y-94924625D02*
X138845927Y-94912886D01*
X138845927Y-94912886D02*
X138717622Y-94834060D01*
X138717622Y-94834060D02*
X138564577Y-94651668D01*
X138520829Y-92229014D02*
X139286873Y-91586227D01*
X139286873Y-91586227D02*
X138953961Y-92300709D01*
X138953961Y-92300709D02*
X139715398Y-92096923D01*
X139715398Y-92096923D02*
X138949354Y-92739711D01*
X140143923Y-92607619D02*
X140266359Y-92753532D01*
X140266359Y-92753532D02*
X140291098Y-92857098D01*
X140291098Y-92857098D02*
X140279360Y-92991272D01*
X140279360Y-92991272D02*
X140164055Y-93150186D01*
X140164055Y-93150186D02*
X139908707Y-93364449D01*
X139908707Y-93364449D02*
X139732185Y-93450406D01*
X139732185Y-93450406D02*
X139598011Y-93438668D01*
X139598011Y-93438668D02*
X139500314Y-93396320D01*
X139500314Y-93396320D02*
X139377879Y-93250407D01*
X139377879Y-93250407D02*
X139353139Y-93146841D01*
X139353139Y-93146841D02*
X139364878Y-93012667D01*
X139364878Y-93012667D02*
X139480182Y-92853753D01*
X139480182Y-92853753D02*
X139735530Y-92639490D01*
X139735530Y-92639490D02*
X139912053Y-92553533D01*
X139912053Y-92553533D02*
X140046227Y-92565271D01*
X140046227Y-92565271D02*
X140143923Y-92607619D01*
X139934709Y-93839929D02*
X139990057Y-93979973D01*
X139990057Y-93979973D02*
X140143102Y-94162364D01*
X140143102Y-94162364D02*
X140240798Y-94204712D01*
X140240798Y-94204712D02*
X140307885Y-94210581D01*
X140307885Y-94210581D02*
X140411451Y-94185842D01*
X140411451Y-94185842D02*
X140484408Y-94124624D01*
X140484408Y-94124624D02*
X140526755Y-94026928D01*
X140526755Y-94026928D02*
X140532625Y-93959841D01*
X140532625Y-93959841D02*
X140507885Y-93856275D01*
X140507885Y-93856275D02*
X140421928Y-93679753D01*
X140421928Y-93679753D02*
X140397188Y-93576187D01*
X140397188Y-93576187D02*
X140403057Y-93509100D01*
X140403057Y-93509100D02*
X140445405Y-93411404D01*
X140445405Y-93411404D02*
X140518362Y-93350186D01*
X140518362Y-93350186D02*
X140621927Y-93325446D01*
X140621927Y-93325446D02*
X140689015Y-93331316D01*
X140689015Y-93331316D02*
X140786711Y-93373663D01*
X140786711Y-93373663D02*
X140939755Y-93556055D01*
X140939755Y-93556055D02*
X140995104Y-93696099D01*
X140541018Y-94636582D02*
X141307063Y-93993795D01*
X142370583Y-110702959D02*
X141604539Y-110060171D01*
X141604539Y-110060171D02*
X141849410Y-109768345D01*
X141849410Y-109768345D02*
X141947106Y-109725997D01*
X141947106Y-109725997D02*
X142014194Y-109720128D01*
X142014194Y-109720128D02*
X142117759Y-109744867D01*
X142117759Y-109744867D02*
X142227194Y-109836694D01*
X142227194Y-109836694D02*
X142269542Y-109934390D01*
X142269542Y-109934390D02*
X142275411Y-110001478D01*
X142275411Y-110001478D02*
X142250672Y-110105043D01*
X142250672Y-110105043D02*
X142005800Y-110396870D01*
X142186108Y-109367083D02*
X143105198Y-109827480D01*
X143105198Y-109827480D02*
X142680459Y-109222432D01*
X142680459Y-109222432D02*
X143350069Y-109535653D01*
X143350069Y-109535653D02*
X142737069Y-108710474D01*
X143747985Y-109061435D02*
X142981941Y-108418648D01*
X142981941Y-108418648D02*
X143743378Y-108622433D01*
X143743378Y-108622433D02*
X143410466Y-107907951D01*
X143410466Y-107907951D02*
X144176510Y-108550739D01*
X147469299Y-102401879D02*
X147469299Y-101782832D01*
X147469299Y-101782832D02*
X147850251Y-102116165D01*
X147850251Y-102116165D02*
X147850251Y-101973308D01*
X147850251Y-101973308D02*
X147897870Y-101878070D01*
X147897870Y-101878070D02*
X147945489Y-101830451D01*
X147945489Y-101830451D02*
X148040727Y-101782832D01*
X148040727Y-101782832D02*
X148278822Y-101782832D01*
X148278822Y-101782832D02*
X148374060Y-101830451D01*
X148374060Y-101830451D02*
X148421680Y-101878070D01*
X148421680Y-101878070D02*
X148469299Y-101973308D01*
X148469299Y-101973308D02*
X148469299Y-102259022D01*
X148469299Y-102259022D02*
X148421680Y-102354260D01*
X148421680Y-102354260D02*
X148374060Y-102401879D01*
X147469299Y-101497117D02*
X148469299Y-101163784D01*
X148469299Y-101163784D02*
X147469299Y-100830451D01*
X147469299Y-100592355D02*
X147469299Y-99973308D01*
X147469299Y-99973308D02*
X147850251Y-100306641D01*
X147850251Y-100306641D02*
X147850251Y-100163784D01*
X147850251Y-100163784D02*
X147897870Y-100068546D01*
X147897870Y-100068546D02*
X147945489Y-100020927D01*
X147945489Y-100020927D02*
X148040727Y-99973308D01*
X148040727Y-99973308D02*
X148278822Y-99973308D01*
X148278822Y-99973308D02*
X148374060Y-100020927D01*
X148374060Y-100020927D02*
X148421680Y-100068546D01*
X148421680Y-100068546D02*
X148469299Y-100163784D01*
X148469299Y-100163784D02*
X148469299Y-100449498D01*
X148469299Y-100449498D02*
X148421680Y-100544736D01*
X148421680Y-100544736D02*
X148374060Y-100592355D01*
X143887093Y-88268097D02*
X143862354Y-88164531D01*
X143862354Y-88164531D02*
X143770527Y-88055096D01*
X143770527Y-88055096D02*
X143642222Y-87976270D01*
X143642222Y-87976270D02*
X143508047Y-87964532D01*
X143508047Y-87964532D02*
X143404482Y-87989271D01*
X143404482Y-87989271D02*
X143227959Y-88075229D01*
X143227959Y-88075229D02*
X143118524Y-88167056D01*
X143118524Y-88167056D02*
X143003220Y-88325970D01*
X143003220Y-88325970D02*
X142960873Y-88423666D01*
X142960873Y-88423666D02*
X142949134Y-88557840D01*
X142949134Y-88557840D02*
X143004482Y-88697884D01*
X143004482Y-88697884D02*
X143065700Y-88770841D01*
X143065700Y-88770841D02*
X143194005Y-88849667D01*
X143194005Y-88849667D02*
X143261092Y-88855536D01*
X143261092Y-88855536D02*
X143516441Y-88641273D01*
X143516441Y-88641273D02*
X143394005Y-88495360D01*
X143463616Y-89245059D02*
X144229661Y-88602271D01*
X144229661Y-88602271D02*
X143830923Y-89682798D01*
X143830923Y-89682798D02*
X144596968Y-89040011D01*
X144137013Y-90047581D02*
X144903057Y-89404794D01*
X144903057Y-89404794D02*
X145056102Y-89587185D01*
X145056102Y-89587185D02*
X145111450Y-89727229D01*
X145111450Y-89727229D02*
X145099712Y-89861404D01*
X145099712Y-89861404D02*
X145057364Y-89959100D01*
X145057364Y-89959100D02*
X144942060Y-90118014D01*
X144942060Y-90118014D02*
X144832625Y-90209841D01*
X144832625Y-90209841D02*
X144656103Y-90295798D01*
X144656103Y-90295798D02*
X144552537Y-90320538D01*
X144552537Y-90320538D02*
X144418363Y-90308799D01*
X144418363Y-90308799D02*
X144290057Y-90229973D01*
X144290057Y-90229973D02*
X144137013Y-90047581D01*
X160678201Y-105287384D02*
X160126419Y-106185519D01*
X160126419Y-106185519D02*
X161106726Y-105798080D01*
X160554945Y-106696216D02*
X161320989Y-106053428D01*
X161320989Y-106053428D02*
X161474034Y-106235820D01*
X161474034Y-106235820D02*
X161529382Y-106375864D01*
X161529382Y-106375864D02*
X161517643Y-106510038D01*
X161517643Y-106510038D02*
X161475296Y-106607734D01*
X161475296Y-106607734D02*
X161359991Y-106766648D01*
X161359991Y-106766648D02*
X161250557Y-106858475D01*
X161250557Y-106858475D02*
X161074034Y-106944433D01*
X161074034Y-106944433D02*
X160970469Y-106969172D01*
X160970469Y-106969172D02*
X160836294Y-106957433D01*
X160836294Y-106957433D02*
X160707989Y-106878607D01*
X160707989Y-106878607D02*
X160554945Y-106696216D01*
X161197732Y-107462260D02*
X161963777Y-106819473D01*
X161963777Y-106819473D02*
X162116821Y-107001864D01*
X162116821Y-107001864D02*
X162172170Y-107141908D01*
X162172170Y-107141908D02*
X162160431Y-107276083D01*
X162160431Y-107276083D02*
X162118083Y-107373779D01*
X162118083Y-107373779D02*
X162002779Y-107532693D01*
X162002779Y-107532693D02*
X161893344Y-107624520D01*
X161893344Y-107624520D02*
X161716822Y-107710477D01*
X161716822Y-107710477D02*
X161613256Y-107735217D01*
X161613256Y-107735217D02*
X161479082Y-107723478D01*
X161479082Y-107723478D02*
X161350777Y-107644652D01*
X161350777Y-107644652D02*
X161197732Y-107462260D01*
X159536739Y-106431671D02*
X158916608Y-106952022D01*
X158916608Y-106952022D02*
X158874260Y-107049719D01*
X158874260Y-107049719D02*
X158868391Y-107116806D01*
X158868391Y-107116806D02*
X158893130Y-107220371D01*
X158893130Y-107220371D02*
X159015566Y-107366285D01*
X159015566Y-107366285D02*
X159113262Y-107408632D01*
X159113262Y-107408632D02*
X159180350Y-107414502D01*
X159180350Y-107414502D02*
X159283915Y-107389762D01*
X159283915Y-107389762D02*
X159904046Y-106869410D01*
X158211623Y-107357088D02*
X157659841Y-108255223D01*
X157659841Y-108255223D02*
X158640148Y-107867784D01*
X157008943Y-108428418D02*
X156395943Y-109253597D01*
X156395943Y-109253597D02*
X157065554Y-108940376D01*
X157065554Y-108940376D02*
X156640815Y-109545424D01*
X156640815Y-109545424D02*
X157559904Y-109085028D01*
X156137092Y-109968097D02*
X156112353Y-109864531D01*
X156112353Y-109864531D02*
X156020526Y-109755096D01*
X156020526Y-109755096D02*
X155892221Y-109676270D01*
X155892221Y-109676270D02*
X155758046Y-109664532D01*
X155758046Y-109664532D02*
X155654481Y-109689271D01*
X155654481Y-109689271D02*
X155477958Y-109775229D01*
X155477958Y-109775229D02*
X155368523Y-109867056D01*
X155368523Y-109867056D02*
X155253219Y-110025970D01*
X155253219Y-110025970D02*
X155210872Y-110123666D01*
X155210872Y-110123666D02*
X155199133Y-110257840D01*
X155199133Y-110257840D02*
X155254481Y-110397884D01*
X155254481Y-110397884D02*
X155315699Y-110470841D01*
X155315699Y-110470841D02*
X155444004Y-110549667D01*
X155444004Y-110549667D02*
X155511091Y-110555536D01*
X155511091Y-110555536D02*
X155766440Y-110341273D01*
X155766440Y-110341273D02*
X155644004Y-110195360D01*
X155713615Y-110945059D02*
X156479660Y-110302271D01*
X156479660Y-110302271D02*
X156080922Y-111382798D01*
X156080922Y-111382798D02*
X156846967Y-110740011D01*
X156387012Y-111747581D02*
X157153056Y-111104794D01*
X157153056Y-111104794D02*
X157306101Y-111287185D01*
X157306101Y-111287185D02*
X157361449Y-111427229D01*
X157361449Y-111427229D02*
X157349711Y-111561404D01*
X157349711Y-111561404D02*
X157307363Y-111659100D01*
X157307363Y-111659100D02*
X157192059Y-111818014D01*
X157192059Y-111818014D02*
X157082624Y-111909841D01*
X157082624Y-111909841D02*
X156906102Y-111995798D01*
X156906102Y-111995798D02*
X156802536Y-112020538D01*
X156802536Y-112020538D02*
X156668362Y-112008799D01*
X156668362Y-112008799D02*
X156540056Y-111929973D01*
X156540056Y-111929973D02*
X156387012Y-111747581D01*
X152780700Y-98619548D02*
X152780700Y-98143358D01*
X152780700Y-98143358D02*
X152304510Y-98095739D01*
X152304510Y-98095739D02*
X152352129Y-98143358D01*
X152352129Y-98143358D02*
X152399748Y-98238596D01*
X152399748Y-98238596D02*
X152399748Y-98476691D01*
X152399748Y-98476691D02*
X152352129Y-98571929D01*
X152352129Y-98571929D02*
X152304510Y-98619548D01*
X152304510Y-98619548D02*
X152209272Y-98667167D01*
X152209272Y-98667167D02*
X151971177Y-98667167D01*
X151971177Y-98667167D02*
X151875939Y-98619548D01*
X151875939Y-98619548D02*
X151828320Y-98571929D01*
X151828320Y-98571929D02*
X151780700Y-98476691D01*
X151780700Y-98476691D02*
X151780700Y-98238596D01*
X151780700Y-98238596D02*
X151828320Y-98143358D01*
X151828320Y-98143358D02*
X151875939Y-98095739D01*
X152780700Y-98952882D02*
X151780700Y-99286215D01*
X151780700Y-99286215D02*
X152780700Y-99619548D01*
X140961092Y-90705536D02*
X140894005Y-90699667D01*
X140894005Y-90699667D02*
X140765700Y-90620841D01*
X140765700Y-90620841D02*
X140704482Y-90547884D01*
X140704482Y-90547884D02*
X140649134Y-90407840D01*
X140649134Y-90407840D02*
X140660873Y-90273666D01*
X140660873Y-90273666D02*
X140703220Y-90175970D01*
X140703220Y-90175970D02*
X140818524Y-90017056D01*
X140818524Y-90017056D02*
X140927959Y-89925229D01*
X140927959Y-89925229D02*
X141104482Y-89839271D01*
X141104482Y-89839271D02*
X141208047Y-89814532D01*
X141208047Y-89814532D02*
X141342222Y-89826270D01*
X141342222Y-89826270D02*
X141470527Y-89905096D01*
X141470527Y-89905096D02*
X141531745Y-89978053D01*
X141531745Y-89978053D02*
X141587093Y-90118097D01*
X141587093Y-90118097D02*
X141581224Y-90185184D01*
X141469706Y-91459842D02*
X141163616Y-91095059D01*
X141163616Y-91095059D02*
X141929661Y-90452271D01*
X141683968Y-91715190D02*
X142450013Y-91072402D01*
X142051275Y-92152930D02*
X142213535Y-91457318D01*
X142817320Y-91510142D02*
X142012273Y-91439710D01*
X144509355Y-106156641D02*
X143509355Y-106156641D01*
X143509355Y-106156641D02*
X143509355Y-105918546D01*
X143509355Y-105918546D02*
X143556974Y-105775689D01*
X143556974Y-105775689D02*
X143652212Y-105680451D01*
X143652212Y-105680451D02*
X143747450Y-105632832D01*
X143747450Y-105632832D02*
X143937926Y-105585213D01*
X143937926Y-105585213D02*
X144080783Y-105585213D01*
X144080783Y-105585213D02*
X144271259Y-105632832D01*
X144271259Y-105632832D02*
X144366497Y-105680451D01*
X144366497Y-105680451D02*
X144461736Y-105775689D01*
X144461736Y-105775689D02*
X144509355Y-105918546D01*
X144509355Y-105918546D02*
X144509355Y-106156641D01*
X144461736Y-104775689D02*
X144509355Y-104870927D01*
X144509355Y-104870927D02*
X144509355Y-105061403D01*
X144509355Y-105061403D02*
X144461736Y-105156641D01*
X144461736Y-105156641D02*
X144366497Y-105204260D01*
X144366497Y-105204260D02*
X143985545Y-105204260D01*
X143985545Y-105204260D02*
X143890307Y-105156641D01*
X143890307Y-105156641D02*
X143842688Y-105061403D01*
X143842688Y-105061403D02*
X143842688Y-104870927D01*
X143842688Y-104870927D02*
X143890307Y-104775689D01*
X143890307Y-104775689D02*
X143985545Y-104728070D01*
X143985545Y-104728070D02*
X144080783Y-104728070D01*
X144080783Y-104728070D02*
X144176021Y-105204260D01*
X144461736Y-104347117D02*
X144509355Y-104251879D01*
X144509355Y-104251879D02*
X144509355Y-104061403D01*
X144509355Y-104061403D02*
X144461736Y-103966165D01*
X144461736Y-103966165D02*
X144366497Y-103918546D01*
X144366497Y-103918546D02*
X144318878Y-103918546D01*
X144318878Y-103918546D02*
X144223640Y-103966165D01*
X144223640Y-103966165D02*
X144176021Y-104061403D01*
X144176021Y-104061403D02*
X144176021Y-104204260D01*
X144176021Y-104204260D02*
X144128402Y-104299498D01*
X144128402Y-104299498D02*
X144033164Y-104347117D01*
X144033164Y-104347117D02*
X143985545Y-104347117D01*
X143985545Y-104347117D02*
X143890307Y-104299498D01*
X143890307Y-104299498D02*
X143842688Y-104204260D01*
X143842688Y-104204260D02*
X143842688Y-104061403D01*
X143842688Y-104061403D02*
X143890307Y-103966165D01*
X144509355Y-103489974D02*
X143842688Y-103489974D01*
X143509355Y-103489974D02*
X143556974Y-103537593D01*
X143556974Y-103537593D02*
X143604593Y-103489974D01*
X143604593Y-103489974D02*
X143556974Y-103442355D01*
X143556974Y-103442355D02*
X143509355Y-103489974D01*
X143509355Y-103489974D02*
X143604593Y-103489974D01*
X143842688Y-102585213D02*
X144652212Y-102585213D01*
X144652212Y-102585213D02*
X144747450Y-102632832D01*
X144747450Y-102632832D02*
X144795069Y-102680451D01*
X144795069Y-102680451D02*
X144842688Y-102775689D01*
X144842688Y-102775689D02*
X144842688Y-102918546D01*
X144842688Y-102918546D02*
X144795069Y-103013784D01*
X144461736Y-102585213D02*
X144509355Y-102680451D01*
X144509355Y-102680451D02*
X144509355Y-102870927D01*
X144509355Y-102870927D02*
X144461736Y-102966165D01*
X144461736Y-102966165D02*
X144414116Y-103013784D01*
X144414116Y-103013784D02*
X144318878Y-103061403D01*
X144318878Y-103061403D02*
X144033164Y-103061403D01*
X144033164Y-103061403D02*
X143937926Y-103013784D01*
X143937926Y-103013784D02*
X143890307Y-102966165D01*
X143890307Y-102966165D02*
X143842688Y-102870927D01*
X143842688Y-102870927D02*
X143842688Y-102680451D01*
X143842688Y-102680451D02*
X143890307Y-102585213D01*
X143842688Y-102109022D02*
X144509355Y-102109022D01*
X143937926Y-102109022D02*
X143890307Y-102061403D01*
X143890307Y-102061403D02*
X143842688Y-101966165D01*
X143842688Y-101966165D02*
X143842688Y-101823308D01*
X143842688Y-101823308D02*
X143890307Y-101728070D01*
X143890307Y-101728070D02*
X143985545Y-101680451D01*
X143985545Y-101680451D02*
X144509355Y-101680451D01*
X144461736Y-100823308D02*
X144509355Y-100918546D01*
X144509355Y-100918546D02*
X144509355Y-101109022D01*
X144509355Y-101109022D02*
X144461736Y-101204260D01*
X144461736Y-101204260D02*
X144366497Y-101251879D01*
X144366497Y-101251879D02*
X143985545Y-101251879D01*
X143985545Y-101251879D02*
X143890307Y-101204260D01*
X143890307Y-101204260D02*
X143842688Y-101109022D01*
X143842688Y-101109022D02*
X143842688Y-100918546D01*
X143842688Y-100918546D02*
X143890307Y-100823308D01*
X143890307Y-100823308D02*
X143985545Y-100775689D01*
X143985545Y-100775689D02*
X144080783Y-100775689D01*
X144080783Y-100775689D02*
X144176021Y-101251879D01*
X144509355Y-99918546D02*
X143509355Y-99918546D01*
X144461736Y-99918546D02*
X144509355Y-100013784D01*
X144509355Y-100013784D02*
X144509355Y-100204260D01*
X144509355Y-100204260D02*
X144461736Y-100299498D01*
X144461736Y-100299498D02*
X144414116Y-100347117D01*
X144414116Y-100347117D02*
X144318878Y-100394736D01*
X144318878Y-100394736D02*
X144033164Y-100394736D01*
X144033164Y-100394736D02*
X143937926Y-100347117D01*
X143937926Y-100347117D02*
X143890307Y-100299498D01*
X143890307Y-100299498D02*
X143842688Y-100204260D01*
X143842688Y-100204260D02*
X143842688Y-100013784D01*
X143842688Y-100013784D02*
X143890307Y-99918546D01*
X143985545Y-98347117D02*
X144033164Y-98204260D01*
X144033164Y-98204260D02*
X144080783Y-98156641D01*
X144080783Y-98156641D02*
X144176021Y-98109022D01*
X144176021Y-98109022D02*
X144318878Y-98109022D01*
X144318878Y-98109022D02*
X144414116Y-98156641D01*
X144414116Y-98156641D02*
X144461736Y-98204260D01*
X144461736Y-98204260D02*
X144509355Y-98299498D01*
X144509355Y-98299498D02*
X144509355Y-98680450D01*
X144509355Y-98680450D02*
X143509355Y-98680450D01*
X143509355Y-98680450D02*
X143509355Y-98347117D01*
X143509355Y-98347117D02*
X143556974Y-98251879D01*
X143556974Y-98251879D02*
X143604593Y-98204260D01*
X143604593Y-98204260D02*
X143699831Y-98156641D01*
X143699831Y-98156641D02*
X143795069Y-98156641D01*
X143795069Y-98156641D02*
X143890307Y-98204260D01*
X143890307Y-98204260D02*
X143937926Y-98251879D01*
X143937926Y-98251879D02*
X143985545Y-98347117D01*
X143985545Y-98347117D02*
X143985545Y-98680450D01*
X143842688Y-97775688D02*
X144509355Y-97537593D01*
X143842688Y-97299498D02*
X144509355Y-97537593D01*
X144509355Y-97537593D02*
X144747450Y-97632831D01*
X144747450Y-97632831D02*
X144795069Y-97680450D01*
X144795069Y-97680450D02*
X144842688Y-97775688D01*
X144414116Y-96918545D02*
X144461736Y-96870926D01*
X144461736Y-96870926D02*
X144509355Y-96918545D01*
X144509355Y-96918545D02*
X144461736Y-96966164D01*
X144461736Y-96966164D02*
X144414116Y-96918545D01*
X144414116Y-96918545D02*
X144509355Y-96918545D01*
X143890307Y-96918545D02*
X143937926Y-96870926D01*
X143937926Y-96870926D02*
X143985545Y-96918545D01*
X143985545Y-96918545D02*
X143937926Y-96966164D01*
X143937926Y-96966164D02*
X143890307Y-96918545D01*
X143890307Y-96918545D02*
X143985545Y-96918545D01*
X145119299Y-106251879D02*
X146119299Y-106013784D01*
X146119299Y-106013784D02*
X145405013Y-105823308D01*
X145405013Y-105823308D02*
X146119299Y-105632832D01*
X146119299Y-105632832D02*
X145119299Y-105394737D01*
X146071680Y-104632832D02*
X146119299Y-104728070D01*
X146119299Y-104728070D02*
X146119299Y-104918546D01*
X146119299Y-104918546D02*
X146071680Y-105013784D01*
X146071680Y-105013784D02*
X145976441Y-105061403D01*
X145976441Y-105061403D02*
X145595489Y-105061403D01*
X145595489Y-105061403D02*
X145500251Y-105013784D01*
X145500251Y-105013784D02*
X145452632Y-104918546D01*
X145452632Y-104918546D02*
X145452632Y-104728070D01*
X145452632Y-104728070D02*
X145500251Y-104632832D01*
X145500251Y-104632832D02*
X145595489Y-104585213D01*
X145595489Y-104585213D02*
X145690727Y-104585213D01*
X145690727Y-104585213D02*
X145785965Y-105061403D01*
X146071680Y-104204260D02*
X146119299Y-104109022D01*
X146119299Y-104109022D02*
X146119299Y-103918546D01*
X146119299Y-103918546D02*
X146071680Y-103823308D01*
X146071680Y-103823308D02*
X145976441Y-103775689D01*
X145976441Y-103775689D02*
X145928822Y-103775689D01*
X145928822Y-103775689D02*
X145833584Y-103823308D01*
X145833584Y-103823308D02*
X145785965Y-103918546D01*
X145785965Y-103918546D02*
X145785965Y-104061403D01*
X145785965Y-104061403D02*
X145738346Y-104156641D01*
X145738346Y-104156641D02*
X145643108Y-104204260D01*
X145643108Y-104204260D02*
X145595489Y-104204260D01*
X145595489Y-104204260D02*
X145500251Y-104156641D01*
X145500251Y-104156641D02*
X145452632Y-104061403D01*
X145452632Y-104061403D02*
X145452632Y-103918546D01*
X145452632Y-103918546D02*
X145500251Y-103823308D01*
X145452632Y-103489974D02*
X145452632Y-103109022D01*
X145119299Y-103347117D02*
X145976441Y-103347117D01*
X145976441Y-103347117D02*
X146071680Y-103299498D01*
X146071680Y-103299498D02*
X146119299Y-103204260D01*
X146119299Y-103204260D02*
X146119299Y-103109022D01*
X146119299Y-102632831D02*
X146071680Y-102728069D01*
X146071680Y-102728069D02*
X145976441Y-102775688D01*
X145976441Y-102775688D02*
X145119299Y-102775688D01*
X145452632Y-102347116D02*
X146119299Y-102109021D01*
X145452632Y-101870926D02*
X146119299Y-102109021D01*
X146119299Y-102109021D02*
X146357394Y-102204259D01*
X146357394Y-102204259D02*
X146405013Y-102251878D01*
X146405013Y-102251878D02*
X146452632Y-102347116D01*
X145595489Y-100394735D02*
X145643108Y-100251878D01*
X145643108Y-100251878D02*
X145690727Y-100204259D01*
X145690727Y-100204259D02*
X145785965Y-100156640D01*
X145785965Y-100156640D02*
X145928822Y-100156640D01*
X145928822Y-100156640D02*
X146024060Y-100204259D01*
X146024060Y-100204259D02*
X146071680Y-100251878D01*
X146071680Y-100251878D02*
X146119299Y-100347116D01*
X146119299Y-100347116D02*
X146119299Y-100728068D01*
X146119299Y-100728068D02*
X145119299Y-100728068D01*
X145119299Y-100728068D02*
X145119299Y-100394735D01*
X145119299Y-100394735D02*
X145166918Y-100299497D01*
X145166918Y-100299497D02*
X145214537Y-100251878D01*
X145214537Y-100251878D02*
X145309775Y-100204259D01*
X145309775Y-100204259D02*
X145405013Y-100204259D01*
X145405013Y-100204259D02*
X145500251Y-100251878D01*
X145500251Y-100251878D02*
X145547870Y-100299497D01*
X145547870Y-100299497D02*
X145595489Y-100394735D01*
X145595489Y-100394735D02*
X145595489Y-100728068D01*
X146119299Y-99585211D02*
X146071680Y-99680449D01*
X146071680Y-99680449D02*
X146024060Y-99728068D01*
X146024060Y-99728068D02*
X145928822Y-99775687D01*
X145928822Y-99775687D02*
X145643108Y-99775687D01*
X145643108Y-99775687D02*
X145547870Y-99728068D01*
X145547870Y-99728068D02*
X145500251Y-99680449D01*
X145500251Y-99680449D02*
X145452632Y-99585211D01*
X145452632Y-99585211D02*
X145452632Y-99442354D01*
X145452632Y-99442354D02*
X145500251Y-99347116D01*
X145500251Y-99347116D02*
X145547870Y-99299497D01*
X145547870Y-99299497D02*
X145643108Y-99251878D01*
X145643108Y-99251878D02*
X145928822Y-99251878D01*
X145928822Y-99251878D02*
X146024060Y-99299497D01*
X146024060Y-99299497D02*
X146071680Y-99347116D01*
X146071680Y-99347116D02*
X146119299Y-99442354D01*
X146119299Y-99442354D02*
X146119299Y-99585211D01*
X145452632Y-98394735D02*
X146119299Y-98394735D01*
X145452632Y-98823306D02*
X145976441Y-98823306D01*
X145976441Y-98823306D02*
X146071680Y-98775687D01*
X146071680Y-98775687D02*
X146119299Y-98680449D01*
X146119299Y-98680449D02*
X146119299Y-98537592D01*
X146119299Y-98537592D02*
X146071680Y-98442354D01*
X146071680Y-98442354D02*
X146024060Y-98394735D01*
X146071680Y-97489973D02*
X146119299Y-97585211D01*
X146119299Y-97585211D02*
X146119299Y-97775687D01*
X146119299Y-97775687D02*
X146071680Y-97870925D01*
X146071680Y-97870925D02*
X146024060Y-97918544D01*
X146024060Y-97918544D02*
X145928822Y-97966163D01*
X145928822Y-97966163D02*
X145643108Y-97966163D01*
X145643108Y-97966163D02*
X145547870Y-97918544D01*
X145547870Y-97918544D02*
X145500251Y-97870925D01*
X145500251Y-97870925D02*
X145452632Y-97775687D01*
X145452632Y-97775687D02*
X145452632Y-97585211D01*
X145452632Y-97585211D02*
X145500251Y-97489973D01*
X146119299Y-97061401D02*
X145119299Y-97061401D01*
X146119299Y-96632830D02*
X145595489Y-96632830D01*
X145595489Y-96632830D02*
X145500251Y-96680449D01*
X145500251Y-96680449D02*
X145452632Y-96775687D01*
X145452632Y-96775687D02*
X145452632Y-96918544D01*
X145452632Y-96918544D02*
X145500251Y-97013782D01*
X145500251Y-97013782D02*
X145547870Y-97061401D01*
X146119299Y-95728068D02*
X145595489Y-95728068D01*
X145595489Y-95728068D02*
X145500251Y-95775687D01*
X145500251Y-95775687D02*
X145452632Y-95870925D01*
X145452632Y-95870925D02*
X145452632Y-96061401D01*
X145452632Y-96061401D02*
X145500251Y-96156639D01*
X146071680Y-95728068D02*
X146119299Y-95823306D01*
X146119299Y-95823306D02*
X146119299Y-96061401D01*
X146119299Y-96061401D02*
X146071680Y-96156639D01*
X146071680Y-96156639D02*
X145976441Y-96204258D01*
X145976441Y-96204258D02*
X145881203Y-96204258D01*
X145881203Y-96204258D02*
X145785965Y-96156639D01*
X145785965Y-96156639D02*
X145738346Y-96061401D01*
X145738346Y-96061401D02*
X145738346Y-95823306D01*
X145738346Y-95823306D02*
X145690727Y-95728068D01*
X146119299Y-95251877D02*
X145452632Y-95251877D01*
X145643108Y-95251877D02*
X145547870Y-95204258D01*
X145547870Y-95204258D02*
X145500251Y-95156639D01*
X145500251Y-95156639D02*
X145452632Y-95061401D01*
X145452632Y-95061401D02*
X145452632Y-94966163D01*
X146119299Y-94204258D02*
X145119299Y-94204258D01*
X146071680Y-94204258D02*
X146119299Y-94299496D01*
X146119299Y-94299496D02*
X146119299Y-94489972D01*
X146119299Y-94489972D02*
X146071680Y-94585210D01*
X146071680Y-94585210D02*
X146024060Y-94632829D01*
X146024060Y-94632829D02*
X145928822Y-94680448D01*
X145928822Y-94680448D02*
X145643108Y-94680448D01*
X145643108Y-94680448D02*
X145547870Y-94632829D01*
X145547870Y-94632829D02*
X145500251Y-94585210D01*
X145500251Y-94585210D02*
X145452632Y-94489972D01*
X145452632Y-94489972D02*
X145452632Y-94299496D01*
X145452632Y-94299496D02*
X145500251Y-94204258D01*
X139427715Y-107639519D02*
X139330019Y-107681867D01*
X139330019Y-107681867D02*
X139238192Y-107791301D01*
X139238192Y-107791301D02*
X139182844Y-107931345D01*
X139182844Y-107931345D02*
X139194583Y-108065520D01*
X139194583Y-108065520D02*
X139236930Y-108163216D01*
X139236930Y-108163216D02*
X139352235Y-108322130D01*
X139352235Y-108322130D02*
X139461669Y-108413957D01*
X139461669Y-108413957D02*
X139638192Y-108499914D01*
X139638192Y-108499914D02*
X139741757Y-108524654D01*
X139741757Y-108524654D02*
X139875932Y-108512915D01*
X139875932Y-108512915D02*
X140004237Y-108434089D01*
X140004237Y-108434089D02*
X140065455Y-108361132D01*
X140065455Y-108361132D02*
X140120803Y-108221089D01*
X140120803Y-108221089D02*
X140114934Y-108154001D01*
X140114934Y-108154001D02*
X139859586Y-107939739D01*
X139859586Y-107939739D02*
X139737150Y-108085652D01*
X140463371Y-107886914D02*
X139697326Y-107244127D01*
X139697326Y-107244127D02*
X140830678Y-107449175D01*
X140830678Y-107449175D02*
X140064634Y-106806387D01*
X141136767Y-107084392D02*
X140370723Y-106441604D01*
X140370723Y-106441604D02*
X140523768Y-106259213D01*
X140523768Y-106259213D02*
X140652073Y-106180387D01*
X140652073Y-106180387D02*
X140786247Y-106168648D01*
X140786247Y-106168648D02*
X140889813Y-106193387D01*
X140889813Y-106193387D02*
X141066335Y-106279345D01*
X141066335Y-106279345D02*
X141175770Y-106371172D01*
X141175770Y-106371172D02*
X141291074Y-106530086D01*
X141291074Y-106530086D02*
X141333422Y-106627782D01*
X141333422Y-106627782D02*
X141345160Y-106761956D01*
X141345160Y-106761956D02*
X141289812Y-106902000D01*
X141289812Y-106902000D02*
X141136767Y-107084392D01*
X139603993Y-91379014D02*
X140370037Y-90736227D01*
X140370037Y-90736227D02*
X140037125Y-91450709D01*
X140037125Y-91450709D02*
X140798562Y-91246923D01*
X140798562Y-91246923D02*
X140032518Y-91889711D01*
X140338607Y-92254493D02*
X141104651Y-91611706D01*
X140650565Y-92552189D02*
X140705914Y-92692233D01*
X140705914Y-92692233D02*
X140858959Y-92874624D01*
X140858959Y-92874624D02*
X140956655Y-92916972D01*
X140956655Y-92916972D02*
X141023742Y-92922841D01*
X141023742Y-92922841D02*
X141127308Y-92898102D01*
X141127308Y-92898102D02*
X141200264Y-92836884D01*
X141200264Y-92836884D02*
X141242612Y-92739188D01*
X141242612Y-92739188D02*
X141248481Y-92672101D01*
X141248481Y-92672101D02*
X141223742Y-92568535D01*
X141223742Y-92568535D02*
X141137784Y-92392013D01*
X141137784Y-92392013D02*
X141113045Y-92288447D01*
X141113045Y-92288447D02*
X141118914Y-92221360D01*
X141118914Y-92221360D02*
X141161262Y-92123664D01*
X141161262Y-92123664D02*
X141234218Y-92062446D01*
X141234218Y-92062446D02*
X141337784Y-92037706D01*
X141337784Y-92037706D02*
X141404871Y-92043576D01*
X141404871Y-92043576D02*
X141502567Y-92085923D01*
X141502567Y-92085923D02*
X141655612Y-92268315D01*
X141655612Y-92268315D02*
X141710960Y-92408359D01*
X142145355Y-92851968D02*
X142267791Y-92997881D01*
X142267791Y-92997881D02*
X142292530Y-93101447D01*
X142292530Y-93101447D02*
X142280791Y-93235621D01*
X142280791Y-93235621D02*
X142165487Y-93394535D01*
X142165487Y-93394535D02*
X141910139Y-93608798D01*
X141910139Y-93608798D02*
X141733617Y-93694755D01*
X141733617Y-93694755D02*
X141599442Y-93683016D01*
X141599442Y-93683016D02*
X141501746Y-93640669D01*
X141501746Y-93640669D02*
X141379310Y-93494756D01*
X141379310Y-93494756D02*
X141354571Y-93391190D01*
X141354571Y-93391190D02*
X141366310Y-93257016D01*
X141366310Y-93257016D02*
X141481614Y-93098102D01*
X141481614Y-93098102D02*
X141736962Y-92883839D01*
X141736962Y-92883839D02*
X141913484Y-92797882D01*
X141913484Y-92797882D02*
X142047659Y-92809620D01*
X142047659Y-92809620D02*
X142145355Y-92851968D01*
X142111092Y-89855536D02*
X142044005Y-89849667D01*
X142044005Y-89849667D02*
X141915700Y-89770841D01*
X141915700Y-89770841D02*
X141854482Y-89697884D01*
X141854482Y-89697884D02*
X141799134Y-89557840D01*
X141799134Y-89557840D02*
X141810873Y-89423666D01*
X141810873Y-89423666D02*
X141853220Y-89325970D01*
X141853220Y-89325970D02*
X141968524Y-89167056D01*
X141968524Y-89167056D02*
X142077959Y-89075229D01*
X142077959Y-89075229D02*
X142254482Y-88989271D01*
X142254482Y-88989271D02*
X142358047Y-88964532D01*
X142358047Y-88964532D02*
X142492222Y-88976270D01*
X142492222Y-88976270D02*
X142620527Y-89055096D01*
X142620527Y-89055096D02*
X142681745Y-89128053D01*
X142681745Y-89128053D02*
X142737093Y-89268097D01*
X142737093Y-89268097D02*
X142731224Y-89335184D01*
X142319486Y-90177971D02*
X142374834Y-90318015D01*
X142374834Y-90318015D02*
X142527879Y-90500407D01*
X142527879Y-90500407D02*
X142625575Y-90542754D01*
X142625575Y-90542754D02*
X142692662Y-90548624D01*
X142692662Y-90548624D02*
X142796228Y-90523884D01*
X142796228Y-90523884D02*
X142869184Y-90462666D01*
X142869184Y-90462666D02*
X142911532Y-90364970D01*
X142911532Y-90364970D02*
X142917401Y-90297883D01*
X142917401Y-90297883D02*
X142892662Y-90194317D01*
X142892662Y-90194317D02*
X142806704Y-90017795D01*
X142806704Y-90017795D02*
X142781965Y-89914230D01*
X142781965Y-89914230D02*
X142787834Y-89847143D01*
X142787834Y-89847143D02*
X142830182Y-89749446D01*
X142830182Y-89749446D02*
X142903139Y-89688228D01*
X142903139Y-89688228D02*
X143006704Y-89663489D01*
X143006704Y-89663489D02*
X143073791Y-89669358D01*
X143073791Y-89669358D02*
X143171488Y-89711706D01*
X143171488Y-89711706D02*
X143324532Y-89894098D01*
X143324532Y-89894098D02*
X143379881Y-90034141D01*
X142925795Y-90974625D02*
X143691839Y-90331837D01*
X143691839Y-90331837D02*
X143293102Y-91412365D01*
X143293102Y-91412365D02*
X144059147Y-90769577D01*
X155043627Y-89955183D02*
X156023934Y-90342623D01*
X156023934Y-90342623D02*
X155472153Y-89444487D01*
X156452460Y-89831926D02*
X155686415Y-89189139D01*
X155686415Y-89189139D02*
X155839460Y-89006747D01*
X155839460Y-89006747D02*
X155967765Y-88927921D01*
X155967765Y-88927921D02*
X156101939Y-88916182D01*
X156101939Y-88916182D02*
X156205505Y-88940922D01*
X156205505Y-88940922D02*
X156382027Y-89026879D01*
X156382027Y-89026879D02*
X156491462Y-89118706D01*
X156491462Y-89118706D02*
X156606766Y-89277620D01*
X156606766Y-89277620D02*
X156649114Y-89375316D01*
X156649114Y-89375316D02*
X156660853Y-89509491D01*
X156660853Y-89509491D02*
X156605504Y-89649535D01*
X156605504Y-89649535D02*
X156452460Y-89831926D01*
X157095247Y-89065882D02*
X156329203Y-88423094D01*
X156329203Y-88423094D02*
X156482247Y-88240703D01*
X156482247Y-88240703D02*
X156610553Y-88161877D01*
X156610553Y-88161877D02*
X156744727Y-88150138D01*
X156744727Y-88150138D02*
X156848293Y-88174877D01*
X156848293Y-88174877D02*
X157024815Y-88260835D01*
X157024815Y-88260835D02*
X157134250Y-88352662D01*
X157134250Y-88352662D02*
X157249554Y-88511576D01*
X157249554Y-88511576D02*
X157291902Y-88609272D01*
X157291902Y-88609272D02*
X157303640Y-88743446D01*
X157303640Y-88743446D02*
X157248292Y-88883490D01*
X157248292Y-88883490D02*
X157095247Y-89065882D01*
X157544663Y-90220015D02*
X157672968Y-90141189D01*
X157672968Y-90141189D02*
X157740055Y-90135319D01*
X157740055Y-90135319D02*
X157843621Y-90160059D01*
X157843621Y-90160059D02*
X157953056Y-90251886D01*
X157953056Y-90251886D02*
X157995403Y-90349582D01*
X157995403Y-90349582D02*
X158001273Y-90416669D01*
X158001273Y-90416669D02*
X157976533Y-90520235D01*
X157976533Y-90520235D02*
X157731662Y-90812061D01*
X157731662Y-90812061D02*
X156965617Y-90169274D01*
X156965617Y-90169274D02*
X157179880Y-89913925D01*
X157179880Y-89913925D02*
X157277576Y-89871578D01*
X157277576Y-89871578D02*
X157344663Y-89865708D01*
X157344663Y-89865708D02*
X157448229Y-89890448D01*
X157448229Y-89890448D02*
X157521185Y-89951666D01*
X157521185Y-89951666D02*
X157563533Y-90049362D01*
X157563533Y-90049362D02*
X157569402Y-90116449D01*
X157569402Y-90116449D02*
X157544663Y-90220015D01*
X157544663Y-90220015D02*
X157330400Y-90475363D01*
X158761386Y-91645020D02*
X159067475Y-91280237D01*
X158919038Y-91901630D02*
X158367256Y-91003495D01*
X158367256Y-91003495D02*
X159347563Y-91390934D01*
X160366589Y-92681134D02*
X159600544Y-92038347D01*
X160380569Y-93687460D02*
X160282873Y-93729808D01*
X160282873Y-93729808D02*
X160191046Y-93839243D01*
X160191046Y-93839243D02*
X160135698Y-93979287D01*
X160135698Y-93979287D02*
X160147436Y-94113461D01*
X160147436Y-94113461D02*
X160189784Y-94211157D01*
X160189784Y-94211157D02*
X160305088Y-94370072D01*
X160305088Y-94370072D02*
X160414523Y-94461898D01*
X160414523Y-94461898D02*
X160591045Y-94547856D01*
X160591045Y-94547856D02*
X160694611Y-94572595D01*
X160694611Y-94572595D02*
X160828785Y-94560857D01*
X160828785Y-94560857D02*
X160957090Y-94482031D01*
X160957090Y-94482031D02*
X161018308Y-94409074D01*
X161018308Y-94409074D02*
X161073657Y-94269030D01*
X161073657Y-94269030D02*
X161067787Y-94201943D01*
X161067787Y-94201943D02*
X160812439Y-93987680D01*
X160812439Y-93987680D02*
X160690004Y-94133594D01*
X161416224Y-93934856D02*
X160650180Y-93292068D01*
X160650180Y-93292068D02*
X161783532Y-93497116D01*
X161783532Y-93497116D02*
X161017487Y-92854329D01*
X162089621Y-93132333D02*
X161323577Y-92489546D01*
X161323577Y-92489546D02*
X161476621Y-92307154D01*
X161476621Y-92307154D02*
X161604926Y-92228328D01*
X161604926Y-92228328D02*
X161739101Y-92216589D01*
X161739101Y-92216589D02*
X161842666Y-92241329D01*
X161842666Y-92241329D02*
X162019189Y-92327286D01*
X162019189Y-92327286D02*
X162128623Y-92419113D01*
X162128623Y-92419113D02*
X162243928Y-92578027D01*
X162243928Y-92578027D02*
X162286275Y-92675723D01*
X162286275Y-92675723D02*
X162298014Y-92809898D01*
X162298014Y-92809898D02*
X162242666Y-92949942D01*
X162242666Y-92949942D02*
X162089621Y-93132333D01*
X140112712Y-109219606D02*
X141093019Y-109607046D01*
X141093019Y-109607046D02*
X140541237Y-108708910D01*
X141521544Y-109096349D02*
X140755500Y-108453562D01*
X140755500Y-108453562D02*
X140908544Y-108271170D01*
X140908544Y-108271170D02*
X141036849Y-108192344D01*
X141036849Y-108192344D02*
X141171024Y-108180605D01*
X141171024Y-108180605D02*
X141274589Y-108205345D01*
X141274589Y-108205345D02*
X141451112Y-108291302D01*
X141451112Y-108291302D02*
X141560547Y-108383129D01*
X141560547Y-108383129D02*
X141675851Y-108542043D01*
X141675851Y-108542043D02*
X141718199Y-108639739D01*
X141718199Y-108639739D02*
X141729937Y-108773914D01*
X141729937Y-108773914D02*
X141674589Y-108913958D01*
X141674589Y-108913958D02*
X141521544Y-109096349D01*
X142164332Y-108330305D02*
X141398287Y-107687517D01*
X141398287Y-107687517D02*
X141551332Y-107505126D01*
X141551332Y-107505126D02*
X141679637Y-107426300D01*
X141679637Y-107426300D02*
X141813812Y-107414561D01*
X141813812Y-107414561D02*
X141917377Y-107439300D01*
X141917377Y-107439300D02*
X142093899Y-107525258D01*
X142093899Y-107525258D02*
X142203334Y-107617085D01*
X142203334Y-107617085D02*
X142318638Y-107775999D01*
X142318638Y-107775999D02*
X142360986Y-107873695D01*
X142360986Y-107873695D02*
X142372725Y-108007869D01*
X142372725Y-108007869D02*
X142317376Y-108147913D01*
X142317376Y-108147913D02*
X142164332Y-108330305D01*
D11*
%TO.C,JP1*%
X149000000Y-98600000D02*
X149000000Y-101400000D01*
X149700000Y-102050000D02*
X150300000Y-102050000D01*
X150300000Y-97950000D02*
X149700000Y-97950000D01*
X151000000Y-101400000D02*
X151000000Y-98600000D01*
X151200000Y-98800000D02*
X151500000Y-98500000D01*
X151200000Y-98800000D02*
X151500000Y-99100000D01*
X151500000Y-98500000D02*
X151500000Y-99100000D01*
X149000000Y-98650000D02*
G75*
G02*
X149700000Y-97950000I699999J1D01*
G01*
X149700000Y-102050000D02*
G75*
G02*
X149000000Y-101350000I0J700000D01*
G01*
X150300000Y-97950000D02*
G75*
G02*
X151000000Y-98650000I1J-699999D01*
G01*
X151000000Y-101350000D02*
G75*
G02*
X150300000Y-102050000I-700000J0D01*
G01*
%TD*%
M02*
