%TF.GenerationSoftware,KiCad,Pcbnew,9.0.3*%
%TF.CreationDate,2025-07-17T11:53:43-06:00*%
%TF.ProjectId,EncoderBoard,456e636f-6465-4724-926f-6172642e6b69,rev?*%
%TF.SameCoordinates,Original*%
%TF.FileFunction,Copper,L1,Top*%
%TF.FilePolarity,Positive*%
%FSLAX46Y46*%
G04 Gerber Fmt 4.6, Leading zero omitted, Abs format (unit mm)*
G04 Created by KiCad (PCBNEW 9.0.3) date 2025-07-17 11:53:43*
%MOMM*%
%LPD*%
G01*
G04 APERTURE LIST*
G04 Aperture macros list*
%AMRoundRect*
0 Rectangle with rounded corners*
0 $1 Rounding radius*
0 $2 $3 $4 $5 $6 $7 $8 $9 X,Y pos of 4 corners*
0 Add a 4 corners polygon primitive as box body*
4,1,4,$2,$3,$4,$5,$6,$7,$8,$9,$2,$3,0*
0 Add four circle primitives for the rounded corners*
1,1,$1+$1,$2,$3*
1,1,$1+$1,$4,$5*
1,1,$1+$1,$6,$7*
1,1,$1+$1,$8,$9*
0 Add four rect primitives between the rounded corners*
20,1,$1+$1,$2,$3,$4,$5,0*
20,1,$1+$1,$4,$5,$6,$7,0*
20,1,$1+$1,$6,$7,$8,$9,0*
20,1,$1+$1,$8,$9,$2,$3,0*%
G04 Aperture macros list end*
%TA.AperFunction,SMDPad,CuDef*%
%ADD10RoundRect,0.150000X-0.335045X0.632649X-0.564858X0.439813X0.335045X-0.632649X0.564858X-0.439813X0*%
%TD*%
%TA.AperFunction,SMDPad,CuDef*%
%ADD11RoundRect,0.250000X-0.515555X1.003346X-0.898577X0.681952X0.515555X-1.003346X0.898577X-0.681952X0*%
%TD*%
%TA.AperFunction,SMDPad,CuDef*%
%ADD12RoundRect,0.100000X-0.637500X-0.100000X0.637500X-0.100000X0.637500X0.100000X-0.637500X0.100000X0*%
%TD*%
%TA.AperFunction,SMDPad,CuDef*%
%ADD13RoundRect,0.150000X-0.564858X-0.439813X-0.335045X-0.632649X0.564858X0.439813X0.335045X0.632649X0*%
%TD*%
%TA.AperFunction,SMDPad,CuDef*%
%ADD14RoundRect,0.250000X-0.898577X-0.681952X-0.515555X-1.003346X0.898577X0.681952X0.515555X1.003346X0*%
%TD*%
%TA.AperFunction,SMDPad,CuDef*%
%ADD15RoundRect,0.150000X0.564858X0.439813X0.335045X0.632649X-0.564858X-0.439813X-0.335045X-0.632649X0*%
%TD*%
%TA.AperFunction,SMDPad,CuDef*%
%ADD16RoundRect,0.250000X0.898577X0.681952X0.515555X1.003346X-0.898577X-0.681952X-0.515555X-1.003346X0*%
%TD*%
%TA.AperFunction,SMDPad,CuDef*%
%ADD17RoundRect,0.150000X0.335045X-0.632649X0.564858X-0.439813X-0.335045X0.632649X-0.564858X0.439813X0*%
%TD*%
%TA.AperFunction,SMDPad,CuDef*%
%ADD18RoundRect,0.250000X0.515555X-1.003346X0.898577X-0.681952X-0.515555X1.003346X-0.898577X0.681952X0*%
%TD*%
%TA.AperFunction,SMDPad,CuDef*%
%ADD19RoundRect,0.225000X0.046884X-0.333057X0.336138X0.011663X-0.046884X0.333057X-0.336138X-0.011663X0*%
%TD*%
%TA.AperFunction,SMDPad,CuDef*%
%ADD20RoundRect,0.225000X0.225000X0.250000X-0.225000X0.250000X-0.225000X-0.250000X0.225000X-0.250000X0*%
%TD*%
%TA.AperFunction,ViaPad*%
%ADD21C,0.600000*%
%TD*%
%TA.AperFunction,Conductor*%
%ADD22C,0.200000*%
%TD*%
G04 APERTURE END LIST*
D10*
%TO.P,J1,1,Pin_1*%
%TO.N,GND*%
X145558046Y-91508471D03*
%TO.P,J1,2,Pin_2*%
%TO.N,Net-(J1-Pin_2)*%
X144600490Y-92311955D03*
%TO.P,J1,3,Pin_3*%
%TO.N,Net-(J1-Pin_3)*%
X143642935Y-93115440D03*
%TO.P,J1,4,Pin_4*%
%TO.N,Net-(J1-Pin_4)*%
X142685379Y-93918924D03*
%TO.P,J1,5,Pin_5*%
%TO.N,Net-(J1-Pin_5)*%
X141727824Y-94722409D03*
%TO.P,J1,6,Pin_6*%
%TO.N,VDD*%
X140770268Y-95525894D03*
D11*
%TO.P,J1,MP,MountPin*%
%TO.N,unconnected-(J1-MountPin-PadMP)*%
X144918308Y-87867972D03*
X137296166Y-94263708D03*
%TD*%
D12*
%TO.P,U1,1,~{CS}*%
%TO.N,Net-(J1-Pin_2)*%
X147137500Y-98050000D03*
%TO.P,U1,2,CLK*%
%TO.N,Net-(J1-Pin_3)*%
X147137500Y-98700000D03*
%TO.P,U1,3,MISO*%
%TO.N,Net-(J1-Pin_4)*%
X147137500Y-99350000D03*
%TO.P,U1,4,MOSI*%
%TO.N,Net-(J1-Pin_5)*%
X147137500Y-100000000D03*
%TO.P,U1,5,TST*%
%TO.N,GND*%
X147137500Y-100650000D03*
%TO.P,U1,6,B*%
%TO.N,Net-(J2-Pin_4)*%
X147137500Y-101300000D03*
%TO.P,U1,7,A*%
%TO.N,Net-(J2-Pin_3)*%
X147137500Y-101950000D03*
%TO.P,U1,8,W/PWM*%
%TO.N,Net-(J3-Pin_2)*%
X152862500Y-101950000D03*
%TO.P,U1,9,V*%
%TO.N,Net-(J3-Pin_3)*%
X152862500Y-101300000D03*
%TO.P,U1,10,U*%
%TO.N,Net-(J3-Pin_4)*%
X152862500Y-100650000D03*
%TO.P,U1,11,VDD*%
%TO.N,VDD*%
X152862500Y-100000000D03*
%TO.P,U1,12,VDD3V3*%
%TO.N,Net-(JP1-C)*%
X152862500Y-99350000D03*
%TO.P,U1,13,GND*%
%TO.N,GND*%
X152862500Y-98700000D03*
%TO.P,U1,14,I/PWM*%
%TO.N,Net-(J2-Pin_2)*%
X152862500Y-98050000D03*
%TD*%
D13*
%TO.P,J4,1,Pin_1*%
%TO.N,GND*%
X142123438Y-105550870D03*
%TO.P,J4,2,Pin_2*%
%TO.N,VDD*%
X143080993Y-106354355D03*
%TO.P,J4,3,Pin_3*%
%TO.N,Net-(J3-Pin_2)*%
X144038549Y-107157839D03*
D14*
%TO.P,J4,MP,MountPin*%
%TO.N,unconnected-(J4-MountPin-PadMP)*%
X138649335Y-106813055D03*
X143398811Y-110798339D03*
%TD*%
D15*
%TO.P,J2,1,Pin_1*%
%TO.N,GND*%
X158734118Y-95177616D03*
%TO.P,J2,2,Pin_2*%
%TO.N,Net-(J2-Pin_2)*%
X157776564Y-94374131D03*
%TO.P,J2,3,Pin_3*%
%TO.N,Net-(J2-Pin_3)*%
X156819008Y-93570646D03*
%TO.P,J2,4,Pin_4*%
%TO.N,Net-(J2-Pin_4)*%
X155861452Y-92767162D03*
%TO.P,J2,5,Pin_5*%
%TO.N,VDD*%
X154903898Y-91963678D03*
D16*
%TO.P,J2,MP,MountPin*%
%TO.N,unconnected-(J2-MountPin-PadMP)*%
X162208222Y-93915430D03*
X155543635Y-88323178D03*
%TD*%
D17*
%TO.P,J3,1,Pin_1*%
%TO.N,GND*%
X154953897Y-108011323D03*
%TO.P,J3,2,Pin_2*%
%TO.N,Net-(J3-Pin_2)*%
X155911452Y-107207838D03*
%TO.P,J3,3,Pin_3*%
%TO.N,Net-(J3-Pin_3)*%
X156869008Y-106404354D03*
%TO.P,J3,4,Pin_4*%
%TO.N,Net-(J3-Pin_4)*%
X157826563Y-105600869D03*
%TO.P,J3,5,Pin_5*%
%TO.N,VDD*%
X158784119Y-104797385D03*
D18*
%TO.P,J3,MP,MountPin*%
%TO.N,unconnected-(J3-MountPin-PadMP)*%
X155593635Y-111651822D03*
X162258222Y-106059570D03*
%TD*%
D19*
%TO.P,C1,1*%
%TO.N,VDD*%
X156051840Y-98043684D03*
%TO.P,C1,2*%
%TO.N,GND*%
X157048160Y-96856316D03*
%TD*%
D20*
%TO.P,C2,1*%
%TO.N,Net-(JP1-A)*%
X149775000Y-96100000D03*
%TO.P,C2,2*%
%TO.N,GND*%
X148225000Y-96100000D03*
%TD*%
D21*
%TO.N,GND*%
X153852354Y-98711358D03*
X145050000Y-101300000D03*
%TO.N,VDD*%
X154650000Y-98650000D03*
X151550000Y-101300000D03*
X142150000Y-96850000D03*
X153650000Y-93450000D03*
%TO.N,Net-(JP1-A)*%
X149800000Y-97450000D03*
%TO.N,Net-(JP1-C)*%
X151450735Y-99900735D03*
%TD*%
D22*
%TO.N,GND*%
X152862500Y-98700000D02*
X153840996Y-98700000D01*
X145700000Y-100650000D02*
X145050000Y-101300000D01*
X147137500Y-100650000D02*
X145700000Y-100650000D01*
X153840996Y-98700000D02*
X153852354Y-98711358D01*
%TO.N,VDD*%
X152200000Y-100000000D02*
X151550000Y-100650000D01*
X154650000Y-98700000D02*
X155022762Y-99072762D01*
X154903897Y-92196103D02*
X153650000Y-93450000D01*
X152862500Y-100000000D02*
X152200000Y-100000000D01*
X155022762Y-100972762D02*
X155022762Y-99072762D01*
X152862500Y-100000000D02*
X154095524Y-100000000D01*
X140770268Y-95525894D02*
X140825894Y-95525894D01*
X143080993Y-106354355D02*
X145635348Y-103800000D01*
X151550000Y-100650000D02*
X151550000Y-101300000D01*
X154650000Y-98650000D02*
X154650000Y-98700000D01*
X158784119Y-104797385D02*
X158784119Y-104734119D01*
X154095524Y-100000000D02*
X155022762Y-99072762D01*
X149050000Y-103800000D02*
X151550000Y-101300000D01*
X154903897Y-91963678D02*
X154903897Y-92196103D01*
X145635348Y-103800000D02*
X149050000Y-103800000D01*
X155022762Y-99072762D02*
X156051840Y-98043684D01*
X158784119Y-104734119D02*
X155022762Y-100972762D01*
X140825894Y-95525894D02*
X142150000Y-96850000D01*
%TO.N,Net-(JP1-A)*%
X149800000Y-97450000D02*
X149800000Y-96125000D01*
X149800000Y-96125000D02*
X149775000Y-96100000D01*
%TO.N,Net-(J1-Pin_3)*%
X143642935Y-93115440D02*
X145650000Y-95122505D01*
X145650000Y-95122505D02*
X145650000Y-97949999D01*
X145650000Y-97949999D02*
X146400001Y-98700000D01*
X146400001Y-98700000D02*
X147137500Y-98700000D01*
%TO.N,Net-(J1-Pin_5)*%
X141727824Y-94722409D02*
X141727824Y-94727824D01*
X144750000Y-99000000D02*
X145750000Y-100000000D01*
X141727824Y-94727824D02*
X144750000Y-97750000D01*
X144750000Y-97750000D02*
X144750000Y-99000000D01*
X145750000Y-100000000D02*
X147137500Y-100000000D01*
%TO.N,Net-(J1-Pin_4)*%
X145950000Y-99350000D02*
X147137500Y-99350000D01*
X145200000Y-96433545D02*
X145200000Y-98600000D01*
X145200000Y-98600000D02*
X145950000Y-99350000D01*
X142685379Y-93918924D02*
X145200000Y-96433545D01*
%TO.N,Net-(J1-Pin_2)*%
X147137500Y-94848965D02*
X147137500Y-98050000D01*
X144600490Y-92311955D02*
X147137500Y-94848965D01*
%TO.N,Net-(J2-Pin_4)*%
X150800000Y-98374999D02*
X147874999Y-101300000D01*
X152700000Y-94200000D02*
X150800000Y-96100000D01*
X154428614Y-94200000D02*
X152700000Y-94200000D01*
X147874999Y-101300000D02*
X147137500Y-101300000D01*
X155861452Y-92767162D02*
X154428614Y-94200000D01*
X150800000Y-96100000D02*
X150800000Y-98374999D01*
%TO.N,Net-(J2-Pin_2)*%
X154100695Y-98050000D02*
X152862500Y-98050000D01*
X157776564Y-94374131D02*
X154100695Y-98050000D01*
%TO.N,Net-(J2-Pin_3)*%
X156819008Y-93580992D02*
X153300000Y-97100000D01*
X151201000Y-98404130D02*
X151201000Y-99099000D01*
X148350000Y-101950000D02*
X147137500Y-101950000D01*
X151201000Y-99099000D02*
X148350000Y-101950000D01*
X153300000Y-97100000D02*
X152505130Y-97100000D01*
X152505130Y-97100000D02*
X151201000Y-98404130D01*
X156819008Y-93570646D02*
X156819008Y-93580992D01*
%TO.N,Net-(J3-Pin_4)*%
X153717100Y-100650000D02*
X152862500Y-100650000D01*
X157826563Y-104759463D02*
X153717100Y-100650000D01*
X157826563Y-105600869D02*
X157826563Y-104759463D01*
%TO.N,Net-(J3-Pin_2)*%
X155911452Y-107207838D02*
X152862500Y-104158886D01*
X146259261Y-107157839D02*
X151467100Y-101950000D01*
X144038549Y-107157839D02*
X146259261Y-107157839D01*
X151467100Y-101950000D02*
X152862500Y-101950000D01*
X152862500Y-104158886D02*
X152862500Y-101950000D01*
%TO.N,Net-(J3-Pin_3)*%
X155500000Y-103000000D02*
X153800000Y-101300000D01*
X153800000Y-101300000D02*
X152862500Y-101300000D01*
X155500000Y-105035346D02*
X155500000Y-103000000D01*
X156869008Y-106404354D02*
X155500000Y-105035346D01*
%TO.N,Net-(JP1-C)*%
X152001470Y-99350000D02*
X151450735Y-99900735D01*
X152862500Y-99350000D02*
X152001470Y-99350000D01*
%TD*%
%TA.AperFunction,Conductor*%
%TO.N,GND*%
G36*
X143287151Y-87464380D02*
G01*
X143339200Y-87510992D01*
X143349041Y-87530536D01*
X143354638Y-87544625D01*
X143354641Y-87544632D01*
X143354642Y-87544633D01*
X143412669Y-87630123D01*
X143412673Y-87630128D01*
X143412676Y-87630132D01*
X143412678Y-87630136D01*
X144646595Y-89100658D01*
X144868233Y-89364796D01*
X144891094Y-89392040D01*
X144891100Y-89392047D01*
X144965201Y-89464024D01*
X144965205Y-89464027D01*
X144965207Y-89464029D01*
X144988461Y-89478372D01*
X145114520Y-89556127D01*
X145114523Y-89556128D01*
X145114529Y-89556132D01*
X145281066Y-89611317D01*
X145455834Y-89626608D01*
X145455836Y-89626607D01*
X145455840Y-89626608D01*
X145629429Y-89601180D01*
X145629432Y-89601178D01*
X145629435Y-89601178D01*
X145756848Y-89550560D01*
X145792476Y-89536406D01*
X145877966Y-89478379D01*
X146337605Y-89092695D01*
X146409597Y-89018580D01*
X146418615Y-89003958D01*
X146439680Y-88985009D01*
X146458522Y-88963846D01*
X146465315Y-88961949D01*
X146470560Y-88957232D01*
X146498526Y-88952679D01*
X146525819Y-88945062D01*
X146532560Y-88947140D01*
X146539522Y-88946007D01*
X146565507Y-88957296D01*
X146592589Y-88965644D01*
X146600085Y-88972317D01*
X146603605Y-88973847D01*
X146618950Y-88989113D01*
X146667106Y-89046218D01*
X146667154Y-89046275D01*
X146712951Y-89100650D01*
X146712959Y-89100658D01*
X146876109Y-89245268D01*
X146876111Y-89245269D01*
X146876113Y-89245271D01*
X147058459Y-89364786D01*
X147058462Y-89364787D01*
X147058463Y-89364788D01*
X147256166Y-89456689D01*
X147256176Y-89456693D01*
X147465072Y-89519048D01*
X147465075Y-89519048D01*
X147465080Y-89519050D01*
X147680814Y-89550560D01*
X147789826Y-89550500D01*
X152210174Y-89550500D01*
X152233031Y-89550500D01*
X152319183Y-89550549D01*
X152534911Y-89519043D01*
X152743820Y-89456688D01*
X152941525Y-89364796D01*
X153123872Y-89245294D01*
X153287033Y-89100692D01*
X153293770Y-89092695D01*
X153357262Y-89017321D01*
X153357268Y-89017326D01*
X153357296Y-89017280D01*
X153375591Y-88995585D01*
X153386071Y-88983158D01*
X153413879Y-88950185D01*
X153413885Y-88950174D01*
X153764560Y-88534328D01*
X153822825Y-88495770D01*
X153892689Y-88494833D01*
X153951968Y-88531815D01*
X153981843Y-88594976D01*
X153974593Y-88660048D01*
X153915196Y-88809563D01*
X153889767Y-88983158D01*
X153905057Y-89157925D01*
X153905058Y-89157927D01*
X153960244Y-89324464D01*
X153960245Y-89324465D01*
X154052342Y-89473781D01*
X154052347Y-89473787D01*
X154113170Y-89536406D01*
X154124336Y-89547901D01*
X154583976Y-89933583D01*
X154669467Y-89991612D01*
X154669474Y-89991615D01*
X154832507Y-90056384D01*
X154832512Y-90056385D01*
X154832514Y-90056386D01*
X155006103Y-90081814D01*
X155180877Y-90066523D01*
X155347414Y-90011338D01*
X155496736Y-89919235D01*
X155570851Y-89847245D01*
X157049273Y-88085329D01*
X157107301Y-87999839D01*
X157132879Y-87935453D01*
X157175922Y-87880419D01*
X157241888Y-87857391D01*
X157309832Y-87873682D01*
X157327802Y-87886226D01*
X162330013Y-92081629D01*
X162368728Y-92139792D01*
X162369853Y-92209652D01*
X162333030Y-92269031D01*
X162315426Y-92282175D01*
X162255121Y-92319373D01*
X162255119Y-92319374D01*
X162255117Y-92319376D01*
X162181014Y-92391354D01*
X162181009Y-92391359D01*
X161298086Y-93443587D01*
X160704804Y-94150634D01*
X160702580Y-94153284D01*
X160644555Y-94238769D01*
X160644552Y-94238775D01*
X160579783Y-94401812D01*
X160554354Y-94575410D01*
X160569644Y-94750177D01*
X160576183Y-94769910D01*
X160624831Y-94916716D01*
X160643832Y-94947522D01*
X160716929Y-95066033D01*
X160716934Y-95066039D01*
X160784057Y-95135144D01*
X160788923Y-95140153D01*
X161248564Y-95525836D01*
X161254438Y-95529823D01*
X161334054Y-95583864D01*
X161334061Y-95583867D01*
X161497094Y-95648636D01*
X161497099Y-95648637D01*
X161497101Y-95648638D01*
X161670690Y-95674066D01*
X161845464Y-95658775D01*
X162012001Y-95603590D01*
X162138313Y-95525679D01*
X162205704Y-95507239D01*
X162272367Y-95528161D01*
X162317137Y-95581803D01*
X162325799Y-95651133D01*
X162298513Y-95710787D01*
X162281861Y-95730689D01*
X162281856Y-95730696D01*
X162281855Y-95730698D01*
X162192491Y-95874112D01*
X162171128Y-95908396D01*
X162171127Y-95908397D01*
X162086156Y-96099722D01*
X162086150Y-96099738D01*
X162028569Y-96301012D01*
X162028565Y-96301033D01*
X162006234Y-96460253D01*
X161999487Y-96508357D01*
X161999500Y-96613040D01*
X161999497Y-96678932D01*
X161999500Y-96678943D01*
X161999500Y-103363943D01*
X161999497Y-103363993D01*
X161999497Y-103386067D01*
X161999485Y-103386104D01*
X161999486Y-103386105D01*
X161999452Y-103542012D01*
X161999453Y-103542015D01*
X162028457Y-103749085D01*
X162028458Y-103749088D01*
X162028459Y-103749093D01*
X162030874Y-103757546D01*
X162074474Y-103910151D01*
X162085903Y-103950151D01*
X162158991Y-104114958D01*
X162170671Y-104141294D01*
X162170677Y-104141307D01*
X162198180Y-104185513D01*
X162216880Y-104252834D01*
X162196215Y-104319577D01*
X162142746Y-104364553D01*
X162073449Y-104373482D01*
X162053889Y-104368722D01*
X161895462Y-104316224D01*
X161895463Y-104316224D01*
X161720695Y-104300933D01*
X161547098Y-104326362D01*
X161547094Y-104326363D01*
X161384061Y-104391132D01*
X161384054Y-104391135D01*
X161341118Y-104420279D01*
X161298564Y-104449163D01*
X161298562Y-104449165D01*
X161298555Y-104449169D01*
X160838931Y-104834840D01*
X160838927Y-104834844D01*
X160766933Y-104908961D01*
X160766930Y-104908965D01*
X160677215Y-105054419D01*
X160674831Y-105058284D01*
X160671045Y-105069709D01*
X160619644Y-105224822D01*
X160604354Y-105399589D01*
X160629783Y-105573187D01*
X160694552Y-105736224D01*
X160694555Y-105736230D01*
X160709931Y-105758883D01*
X160752583Y-105821721D01*
X160752587Y-105821726D01*
X160752590Y-105821730D01*
X160752592Y-105821734D01*
X161971461Y-107274323D01*
X162225898Y-107577549D01*
X162231008Y-107583638D01*
X162231014Y-107583645D01*
X162305115Y-107655622D01*
X162305117Y-107655624D01*
X162305119Y-107655625D01*
X162305121Y-107655627D01*
X162319168Y-107664291D01*
X162355939Y-107686972D01*
X162402663Y-107738920D01*
X162413884Y-107807883D01*
X162386040Y-107871965D01*
X162370501Y-107887538D01*
X157373016Y-112076805D01*
X157308994Y-112104787D01*
X157240007Y-112093714D01*
X157187958Y-112047102D01*
X157178116Y-112027557D01*
X157157301Y-111975161D01*
X157099274Y-111889671D01*
X157099266Y-111889661D01*
X157099264Y-111889657D01*
X155775413Y-110311956D01*
X155620851Y-110127756D01*
X155620848Y-110127753D01*
X155620842Y-110127746D01*
X155546741Y-110055769D01*
X155546736Y-110055765D01*
X155397422Y-109963666D01*
X155397416Y-109963663D01*
X155397414Y-109963662D01*
X155397197Y-109963590D01*
X155230875Y-109908476D01*
X155230876Y-109908476D01*
X155056108Y-109893185D01*
X154882511Y-109918614D01*
X154882507Y-109918615D01*
X154719474Y-109983384D01*
X154719467Y-109983387D01*
X154667416Y-110018717D01*
X154633977Y-110041415D01*
X154633975Y-110041417D01*
X154633968Y-110041421D01*
X154174344Y-110427092D01*
X154174340Y-110427096D01*
X154102346Y-110501213D01*
X154102343Y-110501217D01*
X154010245Y-110650534D01*
X153955057Y-110817074D01*
X153939767Y-110991841D01*
X153965196Y-111165439D01*
X154029965Y-111328476D01*
X154029968Y-111328482D01*
X154029969Y-111328483D01*
X154087996Y-111413973D01*
X154088000Y-111413978D01*
X154088003Y-111413982D01*
X154088005Y-111413986D01*
X155535202Y-113138685D01*
X155541058Y-113152067D01*
X155551027Y-113162747D01*
X155554786Y-113183433D01*
X155563215Y-113202693D01*
X155560907Y-113217117D01*
X155563519Y-113231491D01*
X155555497Y-113250925D01*
X155552176Y-113271685D01*
X155542435Y-113282572D01*
X155536862Y-113296076D01*
X155519607Y-113308088D01*
X155505589Y-113323757D01*
X155491508Y-113327649D01*
X155479520Y-113335996D01*
X155458509Y-113336772D01*
X155438246Y-113342375D01*
X155423042Y-113338084D01*
X155409698Y-113338578D01*
X155377075Y-113325113D01*
X155332904Y-113298979D01*
X155310785Y-113282296D01*
X155244838Y-113219839D01*
X155235314Y-113209749D01*
X155189214Y-113155081D01*
X155189204Y-113155071D01*
X153332893Y-110953781D01*
X153332845Y-110953724D01*
X153287047Y-110899349D01*
X153287044Y-110899345D01*
X153287041Y-110899343D01*
X153287040Y-110899341D01*
X153123890Y-110754731D01*
X152941536Y-110635211D01*
X152743833Y-110543310D01*
X152743823Y-110543306D01*
X152534927Y-110480951D01*
X152534916Y-110480949D01*
X152319192Y-110449440D01*
X152319186Y-110449440D01*
X152210174Y-110449500D01*
X147766969Y-110449500D01*
X147680816Y-110449450D01*
X147465086Y-110480957D01*
X147465085Y-110480957D01*
X147256188Y-110543309D01*
X147256176Y-110543313D01*
X147058479Y-110635202D01*
X147058474Y-110635204D01*
X146876124Y-110754708D01*
X146712976Y-110899299D01*
X146712964Y-110899310D01*
X146643238Y-110982084D01*
X146643196Y-110982134D01*
X146623939Y-111004970D01*
X146623938Y-111004971D01*
X146601955Y-111031037D01*
X146601953Y-111031042D01*
X144804344Y-113162720D01*
X144804344Y-113162721D01*
X144764641Y-113209802D01*
X144764638Y-113209803D01*
X144755113Y-113219895D01*
X144689221Y-113282299D01*
X144667094Y-113298988D01*
X144595008Y-113341636D01*
X144569728Y-113352994D01*
X144489975Y-113378565D01*
X144462803Y-113384025D01*
X144379353Y-113391244D01*
X144351646Y-113390531D01*
X144268686Y-113379035D01*
X144241832Y-113372188D01*
X144229331Y-113367458D01*
X144163492Y-113342551D01*
X144138831Y-113329911D01*
X144081504Y-113291888D01*
X144063256Y-113279784D01*
X144052137Y-113271477D01*
X144023986Y-113247879D01*
X143284207Y-112627740D01*
X143245477Y-112569587D01*
X143244335Y-112499727D01*
X143281143Y-112440339D01*
X143298764Y-112427177D01*
X143351912Y-112394396D01*
X143426027Y-112322406D01*
X144904449Y-110560490D01*
X144962477Y-110475000D01*
X144981507Y-110427099D01*
X145027249Y-110311956D01*
X145027249Y-110311955D01*
X145027250Y-110311953D01*
X145052678Y-110138364D01*
X145052677Y-110138360D01*
X145052678Y-110138358D01*
X145037388Y-109963591D01*
X145022484Y-109918614D01*
X144982202Y-109797053D01*
X144926072Y-109706052D01*
X144890103Y-109647735D01*
X144890098Y-109647729D01*
X144818118Y-109573624D01*
X144818113Y-109573619D01*
X144818112Y-109573618D01*
X144818110Y-109573616D01*
X144358469Y-109187933D01*
X144272979Y-109129905D01*
X144272980Y-109129905D01*
X144272978Y-109129904D01*
X144272971Y-109129901D01*
X144109938Y-109065132D01*
X144109934Y-109065131D01*
X143936336Y-109039702D01*
X143761570Y-109054993D01*
X143595034Y-109110178D01*
X143595023Y-109110183D01*
X143445709Y-109202282D01*
X143371603Y-109274263D01*
X143371598Y-109274268D01*
X142793125Y-109963666D01*
X141895805Y-111033052D01*
X141893169Y-111036193D01*
X141835144Y-111121678D01*
X141835141Y-111121685D01*
X141811683Y-111180734D01*
X141768638Y-111235770D01*
X141702672Y-111258797D01*
X141634728Y-111242504D01*
X141616784Y-111229981D01*
X141539790Y-111165439D01*
X140106158Y-109963661D01*
X138532039Y-108644116D01*
X138493309Y-108585963D01*
X138492167Y-108516103D01*
X138528975Y-108456715D01*
X138546593Y-108443556D01*
X138602436Y-108409112D01*
X138676551Y-108337122D01*
X140154973Y-106575206D01*
X140213001Y-106489716D01*
X140220500Y-106470841D01*
X140277773Y-106326672D01*
X140277773Y-106326671D01*
X140277774Y-106326669D01*
X140303202Y-106153080D01*
X140303201Y-106153076D01*
X140303202Y-106153074D01*
X140288006Y-105979374D01*
X140287912Y-105978307D01*
X140287912Y-105978306D01*
X140283678Y-105965528D01*
X140903897Y-105965528D01*
X140903897Y-105965536D01*
X140918209Y-106129134D01*
X140972761Y-106284042D01*
X141064118Y-106420510D01*
X141065900Y-106422260D01*
X141771229Y-105581683D01*
X141349905Y-105228150D01*
X141018454Y-105623160D01*
X141018449Y-105623165D01*
X140996993Y-105653248D01*
X140930718Y-105803511D01*
X140903897Y-105965528D01*
X140283678Y-105965528D01*
X140232726Y-105811769D01*
X140165543Y-105702847D01*
X140140627Y-105662451D01*
X140140622Y-105662445D01*
X140068642Y-105588340D01*
X140068637Y-105588335D01*
X140068636Y-105588334D01*
X140068634Y-105588332D01*
X139608993Y-105202649D01*
X139560930Y-105170025D01*
X139523502Y-105144620D01*
X139523495Y-105144617D01*
X139360462Y-105079848D01*
X139360458Y-105079847D01*
X139186860Y-105054418D01*
X139012094Y-105069709D01*
X138845558Y-105124894D01*
X138845547Y-105124899D01*
X138696233Y-105216998D01*
X138622127Y-105288979D01*
X138622122Y-105288984D01*
X137758022Y-106318780D01*
X137228898Y-106949366D01*
X137143693Y-107050909D01*
X137085668Y-107136394D01*
X137085665Y-107136401D01*
X137061040Y-107198388D01*
X137017995Y-107253424D01*
X136952029Y-107276450D01*
X136884086Y-107260158D01*
X136866141Y-107247635D01*
X136316703Y-106787055D01*
X136306572Y-106777546D01*
X136286622Y-106756599D01*
X136243955Y-106711800D01*
X136227196Y-106689709D01*
X136184331Y-106617699D01*
X136172900Y-106592434D01*
X136161548Y-106557339D01*
X136147108Y-106512694D01*
X136141578Y-106485522D01*
X136134152Y-106402047D01*
X136134797Y-106374335D01*
X136146108Y-106291285D01*
X136152900Y-106264402D01*
X136182381Y-106185954D01*
X136194972Y-106161259D01*
X136245245Y-106085121D01*
X136253515Y-106074001D01*
X136256097Y-106070909D01*
X136256111Y-106070900D01*
X136256108Y-106070897D01*
X136321935Y-105992049D01*
X137279457Y-104845127D01*
X141671298Y-104845127D01*
X142092622Y-105198661D01*
X142797951Y-104358084D01*
X142795914Y-104356631D01*
X142645658Y-104290361D01*
X142645650Y-104290358D01*
X142483632Y-104263537D01*
X142320031Y-104277850D01*
X142165123Y-104332402D01*
X142028656Y-104423759D01*
X142028653Y-104423761D01*
X142002752Y-104450119D01*
X142002746Y-104450126D01*
X141671298Y-104845127D01*
X137279457Y-104845127D01*
X137645900Y-104406201D01*
X137654231Y-104396222D01*
X137654235Y-104396225D01*
X137658867Y-104390670D01*
X137696461Y-104345640D01*
X137696462Y-104345637D01*
X137701531Y-104339566D01*
X137701890Y-104339070D01*
X137720552Y-104316692D01*
X137830183Y-104140979D01*
X137830183Y-104140976D01*
X137830187Y-104140972D01*
X137830187Y-104140970D01*
X137914633Y-103951878D01*
X137914636Y-103951872D01*
X137956312Y-103808127D01*
X137972307Y-103752961D01*
X137972308Y-103752956D01*
X138002107Y-103548002D01*
X138002316Y-103518786D01*
X138002365Y-103518118D01*
X138002416Y-103510351D01*
X138002417Y-103510348D01*
X138024982Y-100080259D01*
X138025042Y-100073198D01*
X138025063Y-100073127D01*
X138025500Y-100066792D01*
X138025500Y-100002005D01*
X138025503Y-100001188D01*
X138025838Y-99950264D01*
X138025901Y-99940692D01*
X138025900Y-99940690D01*
X138025927Y-99936658D01*
X138025519Y-99930241D01*
X138025500Y-99923038D01*
X138025517Y-99922978D01*
X138025500Y-99922711D01*
X138025500Y-99878712D01*
X138699500Y-99878712D01*
X138699500Y-100121288D01*
X138731162Y-100361789D01*
X138750025Y-100432186D01*
X138793947Y-100596104D01*
X138886773Y-100820205D01*
X138886777Y-100820214D01*
X138901334Y-100845427D01*
X139008064Y-101030289D01*
X139008066Y-101030292D01*
X139008067Y-101030293D01*
X139155733Y-101222736D01*
X139155739Y-101222743D01*
X139327256Y-101394260D01*
X139327262Y-101394265D01*
X139519711Y-101541936D01*
X139729788Y-101663224D01*
X139953900Y-101756054D01*
X140188211Y-101818838D01*
X140368586Y-101842584D01*
X140428711Y-101850500D01*
X140428712Y-101850500D01*
X140671289Y-101850500D01*
X140719388Y-101844167D01*
X140911789Y-101818838D01*
X141146100Y-101756054D01*
X141370212Y-101663224D01*
X141580289Y-101541936D01*
X141772738Y-101394265D01*
X141944265Y-101222738D01*
X142091936Y-101030289D01*
X142213224Y-100820212D01*
X142306054Y-100596100D01*
X142368838Y-100361789D01*
X142400500Y-100121288D01*
X142400500Y-99878712D01*
X142368838Y-99638211D01*
X142306054Y-99403900D01*
X142213224Y-99179788D01*
X142091936Y-98969711D01*
X141991915Y-98839361D01*
X141944266Y-98777263D01*
X141944260Y-98777256D01*
X141772743Y-98605739D01*
X141772736Y-98605733D01*
X141580293Y-98458067D01*
X141580292Y-98458066D01*
X141580289Y-98458064D01*
X141370212Y-98336776D01*
X141370205Y-98336773D01*
X141146104Y-98243947D01*
X140911785Y-98181161D01*
X140671289Y-98149500D01*
X140671288Y-98149500D01*
X140428712Y-98149500D01*
X140428711Y-98149500D01*
X140188214Y-98181161D01*
X139953895Y-98243947D01*
X139729794Y-98336773D01*
X139729785Y-98336777D01*
X139547851Y-98441817D01*
X139523801Y-98455703D01*
X139519706Y-98458067D01*
X139327263Y-98605733D01*
X139327256Y-98605739D01*
X139155739Y-98777256D01*
X139155733Y-98777263D01*
X139008067Y-98969706D01*
X138886777Y-99179785D01*
X138886773Y-99179794D01*
X138793947Y-99403895D01*
X138731161Y-99638214D01*
X138701879Y-99860640D01*
X138699500Y-99878712D01*
X138025500Y-99878712D01*
X138025500Y-96491770D01*
X138025473Y-96491381D01*
X138025465Y-96460253D01*
X138025465Y-96460248D01*
X137996022Y-96251617D01*
X137996020Y-96251604D01*
X137993273Y-96242067D01*
X137962475Y-96135122D01*
X137962838Y-96065254D01*
X138000918Y-96006673D01*
X138035849Y-95985568D01*
X138130427Y-95947996D01*
X138170327Y-95932145D01*
X138170329Y-95932143D01*
X138170334Y-95932142D01*
X138255824Y-95874115D01*
X138670887Y-95525835D01*
X138715456Y-95488437D01*
X138715456Y-95488436D01*
X138715463Y-95488431D01*
X138787455Y-95414316D01*
X138879557Y-95264994D01*
X138930505Y-95111246D01*
X139550223Y-95111246D01*
X139550223Y-95111252D01*
X139564191Y-95195626D01*
X139577067Y-95273398D01*
X139595486Y-95315159D01*
X139643389Y-95423773D01*
X139643394Y-95423782D01*
X139664857Y-95453873D01*
X139664869Y-95453887D01*
X139664871Y-95453890D01*
X140649228Y-96627001D01*
X140675154Y-96653384D01*
X140811731Y-96744813D01*
X140966753Y-96799406D01*
X141130482Y-96813730D01*
X141182589Y-96805103D01*
X141188456Y-96805819D01*
X141193995Y-96803754D01*
X141222735Y-96810006D01*
X141251942Y-96813573D01*
X141257984Y-96817674D01*
X141262268Y-96818606D01*
X141290522Y-96839757D01*
X141315425Y-96864660D01*
X141348910Y-96925983D01*
X141349361Y-96928149D01*
X141380261Y-97083491D01*
X141380264Y-97083501D01*
X141440602Y-97229172D01*
X141440609Y-97229185D01*
X141528210Y-97360288D01*
X141528213Y-97360292D01*
X141639707Y-97471786D01*
X141639711Y-97471789D01*
X141770814Y-97559390D01*
X141770827Y-97559397D01*
X141916498Y-97619735D01*
X141916503Y-97619737D01*
X142054362Y-97647159D01*
X142071153Y-97650499D01*
X142071156Y-97650500D01*
X142071158Y-97650500D01*
X142228844Y-97650500D01*
X142228845Y-97650499D01*
X142383497Y-97619737D01*
X142529179Y-97559394D01*
X142660289Y-97471789D01*
X142771789Y-97360289D01*
X142859394Y-97229179D01*
X142919737Y-97083497D01*
X142926662Y-97048685D01*
X142959047Y-96986774D01*
X143019762Y-96952200D01*
X143089532Y-96955939D01*
X143135960Y-96985195D01*
X144113181Y-97962416D01*
X144146666Y-98023739D01*
X144149500Y-98050097D01*
X144149500Y-98913330D01*
X144149499Y-98913348D01*
X144149499Y-99079054D01*
X144149498Y-99079054D01*
X144156952Y-99106871D01*
X144190423Y-99231785D01*
X144190424Y-99231786D01*
X144206468Y-99259577D01*
X144206469Y-99259578D01*
X144269475Y-99368709D01*
X144269481Y-99368717D01*
X144388349Y-99487585D01*
X144388354Y-99487589D01*
X145381284Y-100480520D01*
X145381286Y-100480521D01*
X145381290Y-100480524D01*
X145475659Y-100535007D01*
X145518216Y-100559577D01*
X145670943Y-100600501D01*
X145670945Y-100600501D01*
X145836662Y-100600501D01*
X145836670Y-100600500D01*
X145951651Y-100600500D01*
X146018690Y-100620185D01*
X146064445Y-100672989D01*
X146074389Y-100742147D01*
X146050027Y-100799985D01*
X146048876Y-100801487D01*
X146045121Y-100804228D01*
X146043135Y-100808430D01*
X146017169Y-100824637D01*
X145992447Y-100842689D01*
X145986624Y-100843703D01*
X145983864Y-100845427D01*
X145955597Y-100849111D01*
X145950500Y-100850000D01*
X145907990Y-100850000D01*
X145907988Y-100850001D01*
X145915441Y-100906622D01*
X145915445Y-100906634D01*
X145923837Y-100926895D01*
X145931304Y-100996364D01*
X145923838Y-101021794D01*
X145914956Y-101043238D01*
X145914955Y-101043239D01*
X145899500Y-101160638D01*
X145899500Y-101439363D01*
X145914953Y-101556753D01*
X145914957Y-101556765D01*
X145923566Y-101577550D01*
X145931033Y-101647019D01*
X145923566Y-101672450D01*
X145914957Y-101693234D01*
X145914955Y-101693239D01*
X145899500Y-101810638D01*
X145899500Y-102089363D01*
X145914953Y-102206753D01*
X145914956Y-102206762D01*
X145975464Y-102352841D01*
X146071718Y-102478282D01*
X146197159Y-102574536D01*
X146343238Y-102635044D01*
X146460639Y-102650500D01*
X147814360Y-102650499D01*
X147814363Y-102650499D01*
X147931753Y-102635046D01*
X147931757Y-102635044D01*
X147931762Y-102635044D01*
X148077841Y-102574536D01*
X148077845Y-102574532D01*
X148084876Y-102570474D01*
X148085882Y-102572216D01*
X148097087Y-102567884D01*
X148116322Y-102555523D01*
X148136594Y-102552608D01*
X148140932Y-102550931D01*
X148151257Y-102550500D01*
X148263331Y-102550500D01*
X148263347Y-102550501D01*
X148270943Y-102550501D01*
X148429054Y-102550501D01*
X148429057Y-102550501D01*
X148581785Y-102509577D01*
X148581787Y-102509575D01*
X148581789Y-102509575D01*
X148581790Y-102509574D01*
X148635988Y-102478283D01*
X148635989Y-102478282D01*
X148718716Y-102430520D01*
X148830520Y-102318716D01*
X148830520Y-102318714D01*
X148840724Y-102308511D01*
X148840728Y-102308506D01*
X150695898Y-100453335D01*
X150703841Y-100448998D01*
X150709267Y-100441751D01*
X150734026Y-100432516D01*
X150757219Y-100419852D01*
X150766248Y-100420497D01*
X150774731Y-100417334D01*
X150800551Y-100422950D01*
X150826911Y-100424836D01*
X150835964Y-100430654D01*
X150843004Y-100432186D01*
X150871258Y-100453337D01*
X150913180Y-100495259D01*
X150946665Y-100556582D01*
X150949499Y-100582940D01*
X150949499Y-100720235D01*
X150929814Y-100787274D01*
X150928601Y-100789126D01*
X150840609Y-100920814D01*
X150840602Y-100920827D01*
X150780264Y-101066498D01*
X150780261Y-101066508D01*
X150749361Y-101221850D01*
X150716976Y-101283761D01*
X150715425Y-101285339D01*
X148837584Y-103163181D01*
X148776261Y-103196666D01*
X148749903Y-103199500D01*
X145556288Y-103199500D01*
X145515367Y-103210464D01*
X145515367Y-103210465D01*
X145478099Y-103220451D01*
X145403562Y-103240423D01*
X145403557Y-103240426D01*
X145266638Y-103319475D01*
X145266630Y-103319481D01*
X145154826Y-103431286D01*
X143553521Y-105032590D01*
X143550266Y-105034367D01*
X143548303Y-105037515D01*
X143519833Y-105050984D01*
X143492198Y-105066075D01*
X143487518Y-105066273D01*
X143485145Y-105067397D01*
X143463077Y-105067312D01*
X143449854Y-105067874D01*
X143447703Y-105067594D01*
X143441207Y-105066519D01*
X143440145Y-105066611D01*
X143433085Y-105065694D01*
X143406059Y-105053790D01*
X143378059Y-105044382D01*
X143374439Y-105039863D01*
X143369143Y-105037531D01*
X143352841Y-105012905D01*
X143334374Y-104989853D01*
X143331535Y-104980718D01*
X143330577Y-104979270D01*
X143330559Y-104977982D01*
X143274114Y-104817697D01*
X143182758Y-104681232D01*
X143180973Y-104679478D01*
X142314949Y-105711567D01*
X142314948Y-105711567D01*
X141448922Y-106743654D01*
X141448922Y-106743655D01*
X141450955Y-106745105D01*
X141450957Y-106745106D01*
X141601217Y-106811378D01*
X141601225Y-106811381D01*
X141770939Y-106839477D01*
X141770558Y-106841777D01*
X141825717Y-106860297D01*
X141869414Y-106914816D01*
X141872808Y-106925727D01*
X141875272Y-106932726D01*
X141875273Y-106932727D01*
X141916891Y-107050909D01*
X141929866Y-107087752D01*
X141964796Y-107139930D01*
X142021295Y-107224327D01*
X142047677Y-107250253D01*
X142265537Y-107433058D01*
X142378147Y-107527549D01*
X142378149Y-107527550D01*
X142408247Y-107549019D01*
X142408253Y-107549023D01*
X142558631Y-107615348D01*
X142720779Y-107642191D01*
X142720779Y-107642190D01*
X142728476Y-107643465D01*
X142728101Y-107645728D01*
X142783384Y-107664291D01*
X142827081Y-107718810D01*
X142830208Y-107728863D01*
X142830238Y-107728853D01*
X142832828Y-107736210D01*
X142832829Y-107736211D01*
X142886119Y-107887538D01*
X142887422Y-107891236D01*
X142947184Y-107980507D01*
X142978851Y-108027811D01*
X143005233Y-108053737D01*
X143064820Y-108103736D01*
X143335703Y-108331033D01*
X143335705Y-108331034D01*
X143365803Y-108352503D01*
X143365809Y-108352507D01*
X143516187Y-108418832D01*
X143678335Y-108445675D01*
X143842064Y-108431351D01*
X143997086Y-108376758D01*
X144133663Y-108285329D01*
X144159589Y-108258946D01*
X144393227Y-107980507D01*
X144520600Y-107828711D01*
X148149500Y-107828711D01*
X148149500Y-108071288D01*
X148180787Y-108308945D01*
X148181162Y-108311789D01*
X148205470Y-108402506D01*
X148243947Y-108546104D01*
X148284545Y-108644116D01*
X148336776Y-108770212D01*
X148458064Y-108980289D01*
X148458066Y-108980292D01*
X148458067Y-108980293D01*
X148605733Y-109172736D01*
X148605739Y-109172743D01*
X148777256Y-109344260D01*
X148777262Y-109344265D01*
X148969711Y-109491936D01*
X149179788Y-109613224D01*
X149403900Y-109706054D01*
X149638211Y-109768838D01*
X149818586Y-109792584D01*
X149878711Y-109800500D01*
X149878712Y-109800500D01*
X150121289Y-109800500D01*
X150169388Y-109794167D01*
X150361789Y-109768838D01*
X150596100Y-109706054D01*
X150820212Y-109613224D01*
X151030289Y-109491936D01*
X151222738Y-109344265D01*
X151394265Y-109172738D01*
X151541936Y-108980289D01*
X151663224Y-108770212D01*
X151663227Y-108770205D01*
X151685239Y-108717064D01*
X154501757Y-108717064D01*
X154833200Y-109112062D01*
X154833201Y-109112063D01*
X154859112Y-109138431D01*
X154859115Y-109138433D01*
X154995582Y-109229790D01*
X155150490Y-109284342D01*
X155314087Y-109298655D01*
X155314095Y-109298655D01*
X155476109Y-109271834D01*
X155476117Y-109271831D01*
X155626372Y-109205562D01*
X155628410Y-109204107D01*
X154923081Y-108363530D01*
X154501757Y-108717064D01*
X151685239Y-108717064D01*
X151688177Y-108709971D01*
X151740767Y-108583005D01*
X151756054Y-108546100D01*
X151818838Y-108311789D01*
X151850500Y-108071288D01*
X151850500Y-107828712D01*
X151841972Y-107763931D01*
X151821682Y-107609811D01*
X151819950Y-107596656D01*
X153734356Y-107596656D01*
X153734356Y-107596664D01*
X153761177Y-107758681D01*
X153827452Y-107908944D01*
X153848908Y-107939027D01*
X153848925Y-107939048D01*
X154180364Y-108334041D01*
X154601688Y-107980507D01*
X153896360Y-107139931D01*
X153896359Y-107139930D01*
X153894578Y-107141682D01*
X153894575Y-107141686D01*
X153803220Y-107278150D01*
X153748668Y-107433058D01*
X153734356Y-107596656D01*
X151819950Y-107596656D01*
X151818838Y-107588213D01*
X151818838Y-107588211D01*
X151756054Y-107353900D01*
X151663224Y-107129788D01*
X151541936Y-106919711D01*
X151464303Y-106818537D01*
X151394266Y-106727263D01*
X151394260Y-106727256D01*
X151222743Y-106555739D01*
X151222736Y-106555733D01*
X151030293Y-106408067D01*
X151030292Y-106408066D01*
X151030289Y-106408064D01*
X150820212Y-106286776D01*
X150797726Y-106277462D01*
X150596104Y-106193947D01*
X150361785Y-106131161D01*
X150121289Y-106099500D01*
X150121288Y-106099500D01*
X149878712Y-106099500D01*
X149878711Y-106099500D01*
X149638214Y-106131161D01*
X149403895Y-106193947D01*
X149179794Y-106286773D01*
X149179785Y-106286777D01*
X148969706Y-106408067D01*
X148777263Y-106555733D01*
X148777256Y-106555739D01*
X148605739Y-106727256D01*
X148605733Y-106727263D01*
X148458067Y-106919706D01*
X148336777Y-107129785D01*
X148336773Y-107129794D01*
X148243947Y-107353895D01*
X148181161Y-107588214D01*
X148149500Y-107828711D01*
X144520600Y-107828711D01*
X144542482Y-107802633D01*
X144600653Y-107763931D01*
X144637471Y-107758339D01*
X146172592Y-107758339D01*
X146172608Y-107758340D01*
X146180204Y-107758340D01*
X146338315Y-107758340D01*
X146338318Y-107758340D01*
X146491046Y-107717416D01*
X146572348Y-107670476D01*
X146627977Y-107638359D01*
X146739781Y-107526555D01*
X146739781Y-107526553D01*
X146749985Y-107516350D01*
X146749988Y-107516345D01*
X151679517Y-102586819D01*
X151706444Y-102572115D01*
X151732263Y-102555523D01*
X151738463Y-102554631D01*
X151740840Y-102553334D01*
X151767198Y-102550500D01*
X151848743Y-102550500D01*
X151915782Y-102570185D01*
X151921099Y-102573924D01*
X151922157Y-102574534D01*
X151922159Y-102574536D01*
X151922160Y-102574536D01*
X151922163Y-102574538D01*
X151995198Y-102604790D01*
X152068238Y-102635044D01*
X152154177Y-102646358D01*
X152154185Y-102646359D01*
X152218082Y-102674625D01*
X152256553Y-102732950D01*
X152262000Y-102769298D01*
X152262000Y-104072216D01*
X152261999Y-104072234D01*
X152261999Y-104237940D01*
X152261998Y-104237940D01*
X152302907Y-104390614D01*
X152302923Y-104390671D01*
X152320019Y-104420282D01*
X152320020Y-104420284D01*
X152320021Y-104420284D01*
X152337246Y-104450119D01*
X152381979Y-104527600D01*
X152381981Y-104527603D01*
X152500849Y-104646471D01*
X152500855Y-104646476D01*
X154424030Y-106569651D01*
X154457515Y-106630974D01*
X154452531Y-106700666D01*
X154410659Y-106756599D01*
X154386389Y-106770787D01*
X154281418Y-106817085D01*
X154279381Y-106818537D01*
X155145408Y-107850626D01*
X155145409Y-107850626D01*
X156011433Y-108882713D01*
X156013214Y-108880964D01*
X156013217Y-108880960D01*
X156104573Y-108744495D01*
X156161716Y-108582230D01*
X156163918Y-108583005D01*
X156191714Y-108531916D01*
X156252986Y-108498337D01*
X156264336Y-108496887D01*
X156271664Y-108495673D01*
X156271666Y-108495674D01*
X156433814Y-108468831D01*
X156584192Y-108402506D01*
X156614305Y-108381026D01*
X156944768Y-108103736D01*
X156971150Y-108077810D01*
X157062580Y-107941233D01*
X157117172Y-107786210D01*
X157117172Y-107786207D01*
X157119763Y-107778851D01*
X157121927Y-107779613D01*
X157149810Y-107728392D01*
X157211090Y-107694827D01*
X157221530Y-107693494D01*
X157221525Y-107693464D01*
X157229221Y-107692189D01*
X157229222Y-107692190D01*
X157391370Y-107665347D01*
X157541748Y-107599022D01*
X157571861Y-107577542D01*
X157902324Y-107300252D01*
X157928706Y-107274326D01*
X158020136Y-107137749D01*
X158074728Y-106982726D01*
X158074728Y-106982723D01*
X158077319Y-106975367D01*
X158079483Y-106976129D01*
X158107361Y-106924911D01*
X158168639Y-106891343D01*
X158179085Y-106890009D01*
X158179080Y-106889979D01*
X158186776Y-106888704D01*
X158186777Y-106888705D01*
X158348925Y-106861862D01*
X158499303Y-106795537D01*
X158529416Y-106774057D01*
X158859879Y-106496767D01*
X158886261Y-106470841D01*
X158977691Y-106334264D01*
X159032283Y-106179241D01*
X159032283Y-106179238D01*
X159034874Y-106171882D01*
X159037038Y-106172644D01*
X159064921Y-106121423D01*
X159126201Y-106087858D01*
X159136641Y-106086525D01*
X159136636Y-106086495D01*
X159144332Y-106085220D01*
X159144333Y-106085221D01*
X159306481Y-106058378D01*
X159456859Y-105992053D01*
X159486972Y-105970573D01*
X159817435Y-105693283D01*
X159843817Y-105667357D01*
X159935247Y-105530780D01*
X159989839Y-105375757D01*
X160004164Y-105212028D01*
X159977320Y-105049881D01*
X159910996Y-104899502D01*
X159910992Y-104899496D01*
X159889529Y-104869405D01*
X159887909Y-104867474D01*
X158905159Y-103696278D01*
X158879233Y-103669895D01*
X158742656Y-103578466D01*
X158742653Y-103578465D01*
X158742652Y-103578464D01*
X158587635Y-103523873D01*
X158587636Y-103523873D01*
X158452293Y-103512032D01*
X158387225Y-103486579D01*
X158375420Y-103476185D01*
X155659581Y-100760346D01*
X155626096Y-100699023D01*
X155623262Y-100672665D01*
X155623262Y-99878712D01*
X157599500Y-99878712D01*
X157599500Y-100121288D01*
X157631162Y-100361789D01*
X157650025Y-100432186D01*
X157693947Y-100596104D01*
X157786773Y-100820205D01*
X157786777Y-100820214D01*
X157801334Y-100845427D01*
X157908064Y-101030289D01*
X157908066Y-101030292D01*
X157908067Y-101030293D01*
X158055733Y-101222736D01*
X158055739Y-101222743D01*
X158227256Y-101394260D01*
X158227262Y-101394265D01*
X158419711Y-101541936D01*
X158629788Y-101663224D01*
X158853900Y-101756054D01*
X159088211Y-101818838D01*
X159268586Y-101842584D01*
X159328711Y-101850500D01*
X159328712Y-101850500D01*
X159571289Y-101850500D01*
X159619388Y-101844167D01*
X159811789Y-101818838D01*
X160046100Y-101756054D01*
X160270212Y-101663224D01*
X160480289Y-101541936D01*
X160672738Y-101394265D01*
X160844265Y-101222738D01*
X160991936Y-101030289D01*
X161113224Y-100820212D01*
X161206054Y-100596100D01*
X161268838Y-100361789D01*
X161300500Y-100121288D01*
X161300500Y-99878712D01*
X161268838Y-99638211D01*
X161206054Y-99403900D01*
X161113224Y-99179788D01*
X160991936Y-98969711D01*
X160891915Y-98839361D01*
X160844266Y-98777263D01*
X160844260Y-98777256D01*
X160672743Y-98605739D01*
X160672736Y-98605733D01*
X160480293Y-98458067D01*
X160480292Y-98458066D01*
X160480289Y-98458064D01*
X160270212Y-98336776D01*
X160270205Y-98336773D01*
X160046104Y-98243947D01*
X159811785Y-98181161D01*
X159571289Y-98149500D01*
X159571288Y-98149500D01*
X159328712Y-98149500D01*
X159328711Y-98149500D01*
X159088214Y-98181161D01*
X158853895Y-98243947D01*
X158629794Y-98336773D01*
X158629785Y-98336777D01*
X158447851Y-98441817D01*
X158423801Y-98455703D01*
X158419706Y-98458067D01*
X158227263Y-98605733D01*
X158227256Y-98605739D01*
X158055739Y-98777256D01*
X158055733Y-98777263D01*
X157908067Y-98969706D01*
X157786777Y-99179785D01*
X157786773Y-99179794D01*
X157693947Y-99403895D01*
X157631161Y-99638214D01*
X157601879Y-99860640D01*
X157599500Y-99878712D01*
X155623262Y-99878712D01*
X155623262Y-99372858D01*
X155631906Y-99343417D01*
X155638430Y-99313431D01*
X155642184Y-99308415D01*
X155642947Y-99305819D01*
X155659572Y-99285186D01*
X155824465Y-99120292D01*
X155885785Y-99086810D01*
X155930112Y-99085285D01*
X156077479Y-99106871D01*
X156077481Y-99106870D01*
X156077483Y-99106871D01*
X156190114Y-99097016D01*
X156246432Y-99092089D01*
X156407421Y-99038744D01*
X156551768Y-98949709D01*
X156623414Y-98880118D01*
X156974818Y-98461329D01*
X157030912Y-98378687D01*
X157093529Y-98221073D01*
X157118108Y-98053266D01*
X157116921Y-98039704D01*
X157130685Y-97971207D01*
X157179298Y-97921022D01*
X157229645Y-97905367D01*
X157242647Y-97904229D01*
X157242648Y-97904229D01*
X157403532Y-97850918D01*
X157547778Y-97761944D01*
X157619367Y-97692407D01*
X157634355Y-97674543D01*
X157634356Y-97674543D01*
X156982452Y-97127531D01*
X156943750Y-97069360D01*
X156942642Y-96999499D01*
X156967169Y-96952836D01*
X157048159Y-96856316D01*
X157011434Y-96825500D01*
X157400367Y-96825500D01*
X157955748Y-97291521D01*
X157970738Y-97273657D01*
X158026787Y-97191081D01*
X158089361Y-97033577D01*
X158113925Y-96865877D01*
X158099154Y-96697048D01*
X158066405Y-96598217D01*
X158064003Y-96528389D01*
X158099735Y-96468347D01*
X158162255Y-96437154D01*
X158204364Y-96436878D01*
X158373924Y-96464948D01*
X158537524Y-96450635D01*
X158692432Y-96396083D01*
X158828899Y-96304726D01*
X158828902Y-96304724D01*
X158854806Y-96278363D01*
X159186256Y-95883356D01*
X158764932Y-95529823D01*
X158054007Y-96377068D01*
X157995836Y-96415770D01*
X157925975Y-96416878D01*
X157879313Y-96392352D01*
X157811540Y-96335484D01*
X157400367Y-96825500D01*
X157011434Y-96825500D01*
X156951638Y-96775325D01*
X156912936Y-96717153D01*
X156911828Y-96647292D01*
X156936354Y-96600629D01*
X157471153Y-95963279D01*
X157529325Y-95924577D01*
X157599186Y-95923469D01*
X157645849Y-95947996D01*
X157713621Y-96004864D01*
X158433623Y-95146801D01*
X159086325Y-95146801D01*
X159507649Y-95500334D01*
X159839089Y-95105341D01*
X159839106Y-95105320D01*
X159860562Y-95075237D01*
X159926837Y-94924974D01*
X159953658Y-94762957D01*
X159953658Y-94762949D01*
X159939346Y-94599351D01*
X159884794Y-94444443D01*
X159793438Y-94307978D01*
X159791653Y-94306224D01*
X159086325Y-95146801D01*
X158433623Y-95146801D01*
X158534371Y-95026735D01*
X158534371Y-95026734D01*
X158534372Y-95026733D01*
X158542609Y-95016917D01*
X159408631Y-93984829D01*
X159406594Y-93983377D01*
X159256338Y-93917107D01*
X159256330Y-93917104D01*
X159086617Y-93889009D01*
X159086997Y-93886713D01*
X159031814Y-93868170D01*
X158988130Y-93813641D01*
X158984739Y-93802733D01*
X158982284Y-93795762D01*
X158982284Y-93795759D01*
X158927692Y-93640736D01*
X158836262Y-93504159D01*
X158809880Y-93478233D01*
X158573919Y-93280239D01*
X158479409Y-93200936D01*
X158479407Y-93200935D01*
X158449309Y-93179466D01*
X158449306Y-93179464D01*
X158449304Y-93179463D01*
X158298926Y-93113138D01*
X158298924Y-93113137D01*
X158129082Y-93085021D01*
X158129455Y-93082762D01*
X158074150Y-93064178D01*
X158030465Y-93009650D01*
X158027348Y-92999622D01*
X158027319Y-92999633D01*
X158024728Y-92992275D01*
X158024728Y-92992274D01*
X157970136Y-92837251D01*
X157878706Y-92700674D01*
X157852324Y-92674748D01*
X157727627Y-92570115D01*
X157521853Y-92397451D01*
X157521851Y-92397450D01*
X157491753Y-92375981D01*
X157491750Y-92375979D01*
X157491748Y-92375978D01*
X157341370Y-92309653D01*
X157341368Y-92309652D01*
X157171526Y-92281536D01*
X157171899Y-92279277D01*
X157116594Y-92260693D01*
X157072909Y-92206165D01*
X157069792Y-92196138D01*
X157069763Y-92196149D01*
X157067172Y-92188791D01*
X157067172Y-92188790D01*
X157012580Y-92033767D01*
X156921150Y-91897190D01*
X156894768Y-91871264D01*
X156730685Y-91733583D01*
X156564297Y-91593967D01*
X156564295Y-91593966D01*
X156534197Y-91572497D01*
X156534194Y-91572495D01*
X156534192Y-91572494D01*
X156383814Y-91506169D01*
X156383812Y-91506168D01*
X156213970Y-91478052D01*
X156214343Y-91475793D01*
X156159038Y-91457208D01*
X156115354Y-91402679D01*
X156112237Y-91392654D01*
X156112209Y-91392665D01*
X156109618Y-91385307D01*
X156109618Y-91385306D01*
X156055026Y-91230283D01*
X155963596Y-91093706D01*
X155937214Y-91067780D01*
X155650576Y-90827263D01*
X155606743Y-90790483D01*
X155606741Y-90790482D01*
X155576643Y-90769013D01*
X155576640Y-90769011D01*
X155576638Y-90769010D01*
X155426260Y-90702685D01*
X155426258Y-90702684D01*
X155264115Y-90675842D01*
X155264107Y-90675842D01*
X155100381Y-90690166D01*
X154945364Y-90744757D01*
X154808783Y-90836188D01*
X154783727Y-90861685D01*
X154782858Y-90862571D01*
X154551109Y-91138759D01*
X153798487Y-92035698D01*
X153777024Y-92065789D01*
X153777019Y-92065798D01*
X153710698Y-92216171D01*
X153710696Y-92216178D01*
X153683853Y-92378319D01*
X153683853Y-92378326D01*
X153693985Y-92494136D01*
X153693783Y-92495136D01*
X153694141Y-92496094D01*
X153686916Y-92529306D01*
X153680218Y-92562636D01*
X153679435Y-92563699D01*
X153679290Y-92564367D01*
X153658140Y-92592622D01*
X153635339Y-92615424D01*
X153574017Y-92648911D01*
X153571848Y-92649362D01*
X153416508Y-92680261D01*
X153416498Y-92680264D01*
X153270827Y-92740602D01*
X153270814Y-92740609D01*
X153139711Y-92828210D01*
X153139707Y-92828213D01*
X153028213Y-92939707D01*
X153028210Y-92939711D01*
X152940609Y-93070814D01*
X152940602Y-93070827D01*
X152880264Y-93216498D01*
X152880261Y-93216510D01*
X152849500Y-93371153D01*
X152849500Y-93475499D01*
X152829815Y-93542538D01*
X152777011Y-93588293D01*
X152725500Y-93599499D01*
X152620943Y-93599499D01*
X152544579Y-93619961D01*
X152468214Y-93640423D01*
X152468209Y-93640426D01*
X152331290Y-93719475D01*
X152331282Y-93719481D01*
X150701069Y-95349695D01*
X150639746Y-95383180D01*
X150570054Y-95378196D01*
X150525707Y-95349695D01*
X150453044Y-95277032D01*
X150453040Y-95277029D01*
X150308705Y-95188001D01*
X150308699Y-95187998D01*
X150308697Y-95187997D01*
X150308694Y-95187996D01*
X150147709Y-95134651D01*
X150048346Y-95124500D01*
X149501662Y-95124500D01*
X149501644Y-95124501D01*
X149402292Y-95134650D01*
X149402289Y-95134651D01*
X149241305Y-95187996D01*
X149241294Y-95188001D01*
X149096959Y-95277029D01*
X149096953Y-95277033D01*
X149087324Y-95286663D01*
X149026000Y-95320146D01*
X148956308Y-95315159D01*
X148911965Y-95286660D01*
X148902732Y-95277427D01*
X148902728Y-95277424D01*
X148758492Y-95188457D01*
X148758481Y-95188452D01*
X148597606Y-95135144D01*
X148498322Y-95125000D01*
X148475000Y-95125000D01*
X148475000Y-97074999D01*
X148498308Y-97074999D01*
X148498322Y-97074998D01*
X148597607Y-97064855D01*
X148758481Y-97011547D01*
X148758492Y-97011542D01*
X148908879Y-96918782D01*
X148910137Y-96920821D01*
X148964317Y-96898947D01*
X149032963Y-96911968D01*
X149083671Y-96960035D01*
X149100342Y-97027887D01*
X149091027Y-97069802D01*
X149030264Y-97216498D01*
X149030261Y-97216510D01*
X148999500Y-97371153D01*
X148999500Y-97528846D01*
X149030261Y-97683489D01*
X149030264Y-97683501D01*
X149090602Y-97829172D01*
X149090609Y-97829185D01*
X149178210Y-97960288D01*
X149178213Y-97960292D01*
X149289707Y-98071786D01*
X149289711Y-98071789D01*
X149420814Y-98159390D01*
X149420827Y-98159397D01*
X149493168Y-98189361D01*
X149566503Y-98219737D01*
X149721153Y-98250499D01*
X149721156Y-98250500D01*
X149775901Y-98250500D01*
X149842940Y-98270185D01*
X149888695Y-98322989D01*
X149898639Y-98392147D01*
X149869614Y-98455703D01*
X149863582Y-98462181D01*
X148556431Y-99769331D01*
X148527634Y-99785055D01*
X148499423Y-99801796D01*
X148497125Y-99801714D01*
X148495108Y-99802816D01*
X148462382Y-99800475D01*
X148429598Y-99799307D01*
X148427709Y-99797996D01*
X148425416Y-99797832D01*
X148399154Y-99778172D01*
X148372203Y-99759462D01*
X148370637Y-99756824D01*
X148369483Y-99755960D01*
X148354192Y-99729110D01*
X148351437Y-99722460D01*
X148343964Y-99652991D01*
X148351435Y-99627545D01*
X148360044Y-99606762D01*
X148375500Y-99489361D01*
X148375499Y-99210640D01*
X148360044Y-99093238D01*
X148355509Y-99082291D01*
X148351435Y-99072455D01*
X148343965Y-99002986D01*
X148351435Y-98977545D01*
X148354682Y-98969706D01*
X148360044Y-98956762D01*
X148375500Y-98839361D01*
X148375499Y-98560640D01*
X148360044Y-98443238D01*
X148351434Y-98422454D01*
X148343965Y-98352986D01*
X148351435Y-98327545D01*
X148353322Y-98322989D01*
X148360044Y-98306762D01*
X148375500Y-98189361D01*
X148375499Y-97910640D01*
X148375499Y-97910636D01*
X148360046Y-97793246D01*
X148360044Y-97793241D01*
X148360044Y-97793238D01*
X148299536Y-97647159D01*
X148203282Y-97521718D01*
X148077841Y-97425464D01*
X147931762Y-97364956D01*
X147918126Y-97363160D01*
X147845813Y-97353640D01*
X147845111Y-97353329D01*
X147844353Y-97353439D01*
X147813226Y-97339224D01*
X147781917Y-97325373D01*
X147781494Y-97324732D01*
X147780797Y-97324414D01*
X147762287Y-97295611D01*
X147743447Y-97267048D01*
X147743299Y-97266067D01*
X147743023Y-97265636D01*
X147738000Y-97230701D01*
X147738000Y-97190483D01*
X147757685Y-97123444D01*
X147810489Y-97077689D01*
X147874603Y-97067125D01*
X147951683Y-97074999D01*
X147975000Y-97074998D01*
X147975000Y-95124999D01*
X147951693Y-95125000D01*
X147951672Y-95125001D01*
X147874601Y-95132875D01*
X147859528Y-95130072D01*
X147844353Y-95132255D01*
X147825876Y-95123816D01*
X147805909Y-95120105D01*
X147794744Y-95109599D01*
X147780797Y-95103230D01*
X147769815Y-95086142D01*
X147755024Y-95072224D01*
X147750747Y-95056471D01*
X147743023Y-95044452D01*
X147738000Y-95009517D01*
X147738000Y-94938024D01*
X147738001Y-94938011D01*
X147738001Y-94769910D01*
X147738001Y-94769908D01*
X147697077Y-94617180D01*
X147650539Y-94536574D01*
X147618020Y-94480249D01*
X147506216Y-94368445D01*
X147506215Y-94368444D01*
X147501885Y-94364114D01*
X147501874Y-94364104D01*
X146087911Y-92950141D01*
X146054426Y-92888818D01*
X146059410Y-92819126D01*
X146101282Y-92763193D01*
X146125554Y-92749004D01*
X146230523Y-92702709D01*
X146232558Y-92701256D01*
X145366534Y-91669168D01*
X145366532Y-91669165D01*
X145358295Y-91659348D01*
X145358294Y-91659346D01*
X145257551Y-91539285D01*
X145910253Y-91539285D01*
X146615581Y-92379861D01*
X146617363Y-92378112D01*
X146617366Y-92378108D01*
X146708722Y-92241643D01*
X146763274Y-92086735D01*
X146777098Y-91928711D01*
X148149500Y-91928711D01*
X148149500Y-92171288D01*
X148180206Y-92404534D01*
X148181162Y-92411789D01*
X148201899Y-92489181D01*
X148243947Y-92646104D01*
X148319379Y-92828213D01*
X148336776Y-92870212D01*
X148458064Y-93080289D01*
X148458066Y-93080292D01*
X148458067Y-93080293D01*
X148605733Y-93272736D01*
X148605739Y-93272743D01*
X148777256Y-93444260D01*
X148777263Y-93444266D01*
X148855320Y-93504161D01*
X148969711Y-93591936D01*
X149179788Y-93713224D01*
X149403900Y-93806054D01*
X149638211Y-93868838D01*
X149791428Y-93889009D01*
X149878711Y-93900500D01*
X149878712Y-93900500D01*
X150121289Y-93900500D01*
X150208572Y-93889009D01*
X150361789Y-93868838D01*
X150596100Y-93806054D01*
X150820212Y-93713224D01*
X151030289Y-93591936D01*
X151222738Y-93444265D01*
X151394265Y-93272738D01*
X151541936Y-93080289D01*
X151663224Y-92870212D01*
X151756054Y-92646100D01*
X151818838Y-92411789D01*
X151850500Y-92171288D01*
X151850500Y-91928712D01*
X151818838Y-91688211D01*
X151756054Y-91453900D01*
X151663224Y-91229788D01*
X151541936Y-91019711D01*
X151478309Y-90936790D01*
X151394266Y-90827263D01*
X151394260Y-90827256D01*
X151222743Y-90655739D01*
X151222736Y-90655733D01*
X151030293Y-90508067D01*
X151030292Y-90508066D01*
X151030289Y-90508064D01*
X150820212Y-90386776D01*
X150820205Y-90386773D01*
X150596104Y-90293947D01*
X150424476Y-90247959D01*
X150361789Y-90231162D01*
X150361788Y-90231161D01*
X150361785Y-90231161D01*
X150121289Y-90199500D01*
X150121288Y-90199500D01*
X149878712Y-90199500D01*
X149878711Y-90199500D01*
X149638214Y-90231161D01*
X149403895Y-90293947D01*
X149179794Y-90386773D01*
X149179785Y-90386777D01*
X148969706Y-90508067D01*
X148777263Y-90655733D01*
X148777256Y-90655739D01*
X148605739Y-90827256D01*
X148605733Y-90827263D01*
X148458067Y-91019706D01*
X148336777Y-91229785D01*
X148336773Y-91229794D01*
X148243947Y-91453895D01*
X148181161Y-91688214D01*
X148149500Y-91928711D01*
X146777098Y-91928711D01*
X146777586Y-91923136D01*
X146777586Y-91923129D01*
X146750765Y-91761112D01*
X146684490Y-91610849D01*
X146663034Y-91580766D01*
X146663017Y-91580745D01*
X146331577Y-91185751D01*
X145910253Y-91539285D01*
X145257551Y-91539285D01*
X144500509Y-90637079D01*
X144500508Y-90637078D01*
X144498727Y-90638830D01*
X144498724Y-90638834D01*
X144407369Y-90775298D01*
X144350227Y-90937564D01*
X144348029Y-90936790D01*
X144320197Y-90987906D01*
X144258914Y-91021464D01*
X144247553Y-91022914D01*
X144078129Y-91050961D01*
X143927750Y-91117287D01*
X143927744Y-91117290D01*
X143897646Y-91138759D01*
X143897644Y-91138760D01*
X143567172Y-91416058D01*
X143567171Y-91416059D01*
X143540793Y-91441981D01*
X143540790Y-91441985D01*
X143449363Y-91578557D01*
X143392179Y-91740941D01*
X143390018Y-91740180D01*
X143362115Y-91791417D01*
X143300829Y-91824971D01*
X143290412Y-91826300D01*
X143290417Y-91826330D01*
X143120574Y-91854446D01*
X142970195Y-91920772D01*
X142970189Y-91920775D01*
X142940091Y-91942244D01*
X142940089Y-91942245D01*
X142609617Y-92219543D01*
X142609616Y-92219544D01*
X142583238Y-92245466D01*
X142583235Y-92245470D01*
X142491808Y-92382042D01*
X142491807Y-92382045D01*
X142439949Y-92529306D01*
X142434624Y-92544426D01*
X142432464Y-92543665D01*
X142404556Y-92594906D01*
X142343268Y-92628456D01*
X142332856Y-92629784D01*
X142332861Y-92629814D01*
X142163018Y-92657930D01*
X142012639Y-92724256D01*
X142012633Y-92724259D01*
X141982535Y-92745728D01*
X141982533Y-92745729D01*
X141652061Y-93023027D01*
X141652060Y-93023028D01*
X141625682Y-93048950D01*
X141625679Y-93048954D01*
X141534252Y-93185526D01*
X141534251Y-93185529D01*
X141500899Y-93280239D01*
X141477068Y-93347910D01*
X141474907Y-93347149D01*
X141447004Y-93398386D01*
X141385718Y-93431940D01*
X141375301Y-93433269D01*
X141375306Y-93433299D01*
X141205463Y-93461415D01*
X141055084Y-93527741D01*
X141055078Y-93527744D01*
X141024980Y-93549213D01*
X141024978Y-93549214D01*
X140694506Y-93826512D01*
X140694505Y-93826513D01*
X140668127Y-93852435D01*
X140668124Y-93852439D01*
X140576697Y-93989011D01*
X140576696Y-93989014D01*
X140528481Y-94125930D01*
X140519513Y-94151395D01*
X140517352Y-94150634D01*
X140489449Y-94201871D01*
X140428163Y-94235425D01*
X140417745Y-94236754D01*
X140417750Y-94236784D01*
X140247907Y-94264900D01*
X140097528Y-94331226D01*
X140097522Y-94331229D01*
X140067424Y-94352698D01*
X140067422Y-94352699D01*
X139736950Y-94629997D01*
X139736949Y-94629998D01*
X139710571Y-94655920D01*
X139710568Y-94655924D01*
X139619141Y-94792496D01*
X139564547Y-94947523D01*
X139550223Y-95111246D01*
X138930505Y-95111246D01*
X138934743Y-95098457D01*
X138934771Y-95098128D01*
X138934835Y-95097412D01*
X138934835Y-95097408D01*
X138950033Y-94923688D01*
X138950032Y-94923686D01*
X138950033Y-94923683D01*
X138924605Y-94750094D01*
X138924604Y-94750092D01*
X138924604Y-94750090D01*
X138859835Y-94587053D01*
X138859832Y-94587047D01*
X138851930Y-94575405D01*
X138801805Y-94501557D01*
X138801797Y-94501547D01*
X138801795Y-94501543D01*
X137614259Y-93086295D01*
X137323382Y-92739642D01*
X137323379Y-92739639D01*
X137323373Y-92739632D01*
X137249272Y-92667655D01*
X137249267Y-92667651D01*
X137232993Y-92657613D01*
X137186268Y-92605665D01*
X137175047Y-92536703D01*
X137202890Y-92472621D01*
X137218426Y-92457050D01*
X139772916Y-90315685D01*
X144883530Y-90315685D01*
X145588860Y-91156262D01*
X146010184Y-90802728D01*
X145678742Y-90407731D01*
X145678741Y-90407730D01*
X145652830Y-90381362D01*
X145652827Y-90381360D01*
X145516360Y-90290003D01*
X145361452Y-90235451D01*
X145197855Y-90221138D01*
X145197847Y-90221138D01*
X145035833Y-90247959D01*
X145035825Y-90247962D01*
X144885568Y-90314232D01*
X144883530Y-90315685D01*
X139772916Y-90315685D01*
X143154143Y-87481288D01*
X143218164Y-87453307D01*
X143287151Y-87464380D01*
G37*
%TD.AperFunction*%
%TD*%
M02*
