%TF.GenerationSoftware,KiCad,Pcbnew,9.0.3*%
%TF.CreationDate,2025-08-07T14:52:45-06:00*%
%TF.ProjectId,EncoderBoard,456e636f-6465-4724-926f-6172642e6b69,rev?*%
%TF.SameCoordinates,Original*%
%TF.FileFunction,Profile,NP*%
%FSLAX46Y46*%
G04 Gerber Fmt 4.6, Leading zero omitted, Abs format (unit mm)*
G04 Created by KiCad (PCBNEW 9.0.3) date 2025-08-07 14:52:45*
%MOMM*%
%LPD*%
G01*
G04 APERTURE LIST*
%TA.AperFunction,Profile*%
%ADD10C,0.050000*%
%TD*%
G04 APERTURE END LIST*
D10*
X137502361Y-103441165D02*
X137524978Y-100003290D01*
X147789817Y-89050000D02*
G75*
G02*
X147025367Y-88694648I-17J999900D01*
G01*
X164010181Y-107166128D02*
X156264110Y-113659466D01*
X137289184Y-95920609D02*
X135872179Y-94241766D01*
X156264110Y-113659466D02*
G75*
G02*
X154857232Y-113537767I-642410J766366D01*
G01*
X152974650Y-88694663D02*
G75*
G02*
X152210183Y-89049987I-764450J644663D01*
G01*
X147789817Y-89050000D02*
X152210183Y-89050000D01*
X143735890Y-86340534D02*
G75*
G02*
X145142768Y-86462233I642410J-766366D01*
G01*
X152974650Y-88694663D02*
X154857062Y-86462422D01*
X152210183Y-110950000D02*
X147789817Y-110950000D01*
X145142774Y-86462228D02*
X147025350Y-88694663D01*
X164135409Y-105758896D02*
G75*
G02*
X164010203Y-107166155I-767609J-640904D01*
G01*
X135872179Y-94241766D02*
G75*
G02*
X135993964Y-92830435I764321J644966D01*
G01*
X152210183Y-110950000D02*
G75*
G02*
X152974633Y-111305352I17J-999900D01*
G01*
X137525000Y-99996711D02*
X137525000Y-96565608D01*
X154857226Y-113537772D02*
X152974650Y-111305337D01*
X143735890Y-113659466D02*
X135989819Y-107166128D01*
X137525000Y-99996711D02*
G75*
G02*
X137524978Y-100003290I-1081700J311D01*
G01*
X135989819Y-107166128D02*
G75*
G02*
X135864627Y-105758926I642481J766328D01*
G01*
X164159329Y-94266020D02*
X162732923Y-95971505D01*
X137502361Y-103441165D02*
G75*
G02*
X137270030Y-104075466I-999961J6565D01*
G01*
X156264142Y-86340893D02*
X164034864Y-92858273D01*
X145142774Y-113537772D02*
G75*
G02*
X143735885Y-113659472I-764474J644672D01*
G01*
X162500000Y-96613060D02*
G75*
G02*
X162732943Y-95971521I1000000J-40D01*
G01*
X162732356Y-104078317D02*
G75*
G02*
X162499974Y-103437440I767644J640917D01*
G01*
X147025350Y-111305337D02*
G75*
G02*
X147789817Y-110950013I764450J-644663D01*
G01*
X147025350Y-111305337D02*
X145142774Y-113537772D01*
X154857062Y-86462422D02*
G75*
G02*
X156264114Y-86340926I764438J-644678D01*
G01*
X162732356Y-104078317D02*
X164135409Y-105758896D01*
X162500000Y-96613060D02*
X162500000Y-103437440D01*
X137289184Y-95920609D02*
G75*
G02*
X137524995Y-96565608I-764184J-644991D01*
G01*
X135864591Y-105758896D02*
X137270026Y-104075463D01*
X164034864Y-92858273D02*
G75*
G02*
X164159372Y-94266056I-642564J-766227D01*
G01*
X135993945Y-92830412D02*
X143735890Y-86340534D01*
M02*
