%TF.GenerationSoftware,KiCad,Pcbnew,9.0.3*%
%TF.CreationDate,2025-08-07T14:52:45-06:00*%
%TF.ProjectId,EncoderBoard,456e636f-6465-4724-926f-6172642e6b69,rev?*%
%TF.SameCoordinates,Original*%
%TF.FileFunction,Legend,Bot*%
%TF.FilePolarity,Positive*%
%FSLAX46Y46*%
G04 Gerber Fmt 4.6, Leading zero omitted, Abs format (unit mm)*
G04 Created by KiCad (PCBNEW 9.0.3) date 2025-08-07 14:52:45*
%MOMM*%
%LPD*%
G01*
G04 APERTURE LIST*
%ADD10C,0.160000*%
%ADD11C,0.120000*%
G04 APERTURE END LIST*
D10*
X146719299Y-103350501D02*
X147719299Y-103683834D01*
X147719299Y-103683834D02*
X146719299Y-104017167D01*
X146814537Y-104302882D02*
X146766918Y-104350501D01*
X146766918Y-104350501D02*
X146719299Y-104445739D01*
X146719299Y-104445739D02*
X146719299Y-104683834D01*
X146719299Y-104683834D02*
X146766918Y-104779072D01*
X146766918Y-104779072D02*
X146814537Y-104826691D01*
X146814537Y-104826691D02*
X146909775Y-104874310D01*
X146909775Y-104874310D02*
X147005013Y-104874310D01*
X147005013Y-104874310D02*
X147147870Y-104826691D01*
X147147870Y-104826691D02*
X147719299Y-104255263D01*
X147719299Y-104255263D02*
X147719299Y-104874310D01*
X139787287Y-94419606D02*
X138806980Y-94807046D01*
X138806980Y-94807046D02*
X139358762Y-93908910D01*
X138378455Y-94296349D02*
X139144499Y-93653562D01*
X139144499Y-93653562D02*
X138991455Y-93471170D01*
X138991455Y-93471170D02*
X138863150Y-93392344D01*
X138863150Y-93392344D02*
X138728975Y-93380605D01*
X138728975Y-93380605D02*
X138625410Y-93405345D01*
X138625410Y-93405345D02*
X138448887Y-93491302D01*
X138448887Y-93491302D02*
X138339452Y-93583129D01*
X138339452Y-93583129D02*
X138224148Y-93742043D01*
X138224148Y-93742043D02*
X138181800Y-93839739D01*
X138181800Y-93839739D02*
X138170062Y-93973914D01*
X138170062Y-93973914D02*
X138225410Y-94113958D01*
X138225410Y-94113958D02*
X138378455Y-94296349D01*
X137735667Y-93530305D02*
X138501712Y-92887517D01*
X138501712Y-92887517D02*
X138348667Y-92705126D01*
X138348667Y-92705126D02*
X138220362Y-92626300D01*
X138220362Y-92626300D02*
X138086187Y-92614561D01*
X138086187Y-92614561D02*
X137982622Y-92639300D01*
X137982622Y-92639300D02*
X137806100Y-92725258D01*
X137806100Y-92725258D02*
X137696665Y-92817085D01*
X137696665Y-92817085D02*
X137581361Y-92975999D01*
X137581361Y-92975999D02*
X137539013Y-93073695D01*
X137539013Y-93073695D02*
X137527274Y-93207869D01*
X137527274Y-93207869D02*
X137582623Y-93347913D01*
X137582623Y-93347913D02*
X137735667Y-93530305D01*
X140179416Y-94302959D02*
X140945460Y-93660171D01*
X140945460Y-93660171D02*
X140184023Y-93863957D01*
X140184023Y-93863957D02*
X140516935Y-93149475D01*
X140516935Y-93149475D02*
X139750891Y-93792263D01*
X140088410Y-92638779D02*
X139965974Y-92492866D01*
X139965974Y-92492866D02*
X139868278Y-92450518D01*
X139868278Y-92450518D02*
X139734104Y-92438779D01*
X139734104Y-92438779D02*
X139557582Y-92524737D01*
X139557582Y-92524737D02*
X139302234Y-92738999D01*
X139302234Y-92738999D02*
X139186929Y-92897913D01*
X139186929Y-92897913D02*
X139175190Y-93032088D01*
X139175190Y-93032088D02*
X139199930Y-93135653D01*
X139199930Y-93135653D02*
X139322366Y-93281566D01*
X139322366Y-93281566D02*
X139420062Y-93323914D01*
X139420062Y-93323914D02*
X139554236Y-93335653D01*
X139554236Y-93335653D02*
X139730759Y-93249695D01*
X139730759Y-93249695D02*
X139986107Y-93035433D01*
X139986107Y-93035433D02*
X140101411Y-92876519D01*
X140101411Y-92876519D02*
X140113150Y-92742344D01*
X140113150Y-92742344D02*
X140088410Y-92638779D01*
X138838492Y-92630826D02*
X138710187Y-92552000D01*
X138710187Y-92552000D02*
X138557142Y-92369609D01*
X138557142Y-92369609D02*
X138532403Y-92266043D01*
X138532403Y-92266043D02*
X138538272Y-92198956D01*
X138538272Y-92198956D02*
X138580620Y-92101260D01*
X138580620Y-92101260D02*
X138653577Y-92040042D01*
X138653577Y-92040042D02*
X138757142Y-92015302D01*
X138757142Y-92015302D02*
X138824229Y-92021172D01*
X138824229Y-92021172D02*
X138921926Y-92063519D01*
X138921926Y-92063519D02*
X139080840Y-92178824D01*
X139080840Y-92178824D02*
X139178536Y-92221171D01*
X139178536Y-92221171D02*
X139245623Y-92227041D01*
X139245623Y-92227041D02*
X139349189Y-92202301D01*
X139349189Y-92202301D02*
X139422145Y-92141083D01*
X139422145Y-92141083D02*
X139464493Y-92043387D01*
X139464493Y-92043387D02*
X139470362Y-91976300D01*
X139470362Y-91976300D02*
X139445623Y-91872734D01*
X139445623Y-91872734D02*
X139292578Y-91690343D01*
X139292578Y-91690343D02*
X139164273Y-91611517D01*
X138159226Y-91895391D02*
X138925271Y-91252603D01*
X143779170Y-108979014D02*
X143013126Y-108336227D01*
X143013126Y-108336227D02*
X142768254Y-108628053D01*
X142768254Y-108628053D02*
X142743515Y-108731619D01*
X142743515Y-108731619D02*
X142749384Y-108798706D01*
X142749384Y-108798706D02*
X142791732Y-108896402D01*
X142791732Y-108896402D02*
X142901167Y-108988229D01*
X142901167Y-108988229D02*
X143004732Y-109012968D01*
X143004732Y-109012968D02*
X143071820Y-109007099D01*
X143071820Y-109007099D02*
X143169516Y-108964751D01*
X143169516Y-108964751D02*
X143414387Y-108672925D01*
X142431556Y-109029314D02*
X143044556Y-109854494D01*
X143044556Y-109854494D02*
X142374946Y-109541273D01*
X142374946Y-109541273D02*
X142799684Y-110146320D01*
X142799684Y-110146320D02*
X141880595Y-109685924D01*
X142401768Y-110620538D02*
X141635724Y-109977750D01*
X141635724Y-109977750D02*
X141968636Y-110692232D01*
X141968636Y-110692232D02*
X141207199Y-110488447D01*
X141207199Y-110488447D02*
X141973243Y-111131234D01*
X147619299Y-99698120D02*
X147619299Y-100317167D01*
X147619299Y-100317167D02*
X148000251Y-99983834D01*
X148000251Y-99983834D02*
X148000251Y-100126691D01*
X148000251Y-100126691D02*
X148047870Y-100221929D01*
X148047870Y-100221929D02*
X148095489Y-100269548D01*
X148095489Y-100269548D02*
X148190727Y-100317167D01*
X148190727Y-100317167D02*
X148428822Y-100317167D01*
X148428822Y-100317167D02*
X148524060Y-100269548D01*
X148524060Y-100269548D02*
X148571680Y-100221929D01*
X148571680Y-100221929D02*
X148619299Y-100126691D01*
X148619299Y-100126691D02*
X148619299Y-99840977D01*
X148619299Y-99840977D02*
X148571680Y-99745739D01*
X148571680Y-99745739D02*
X148524060Y-99698120D01*
X147619299Y-100602882D02*
X148619299Y-100936215D01*
X148619299Y-100936215D02*
X147619299Y-101269548D01*
X147619299Y-101507644D02*
X147619299Y-102126691D01*
X147619299Y-102126691D02*
X148000251Y-101793358D01*
X148000251Y-101793358D02*
X148000251Y-101936215D01*
X148000251Y-101936215D02*
X148047870Y-102031453D01*
X148047870Y-102031453D02*
X148095489Y-102079072D01*
X148095489Y-102079072D02*
X148190727Y-102126691D01*
X148190727Y-102126691D02*
X148428822Y-102126691D01*
X148428822Y-102126691D02*
X148524060Y-102079072D01*
X148524060Y-102079072D02*
X148571680Y-102031453D01*
X148571680Y-102031453D02*
X148619299Y-101936215D01*
X148619299Y-101936215D02*
X148619299Y-101650501D01*
X148619299Y-101650501D02*
X148571680Y-101555263D01*
X148571680Y-101555263D02*
X148524060Y-101507644D01*
X144922284Y-89539519D02*
X145019980Y-89581867D01*
X145019980Y-89581867D02*
X145111807Y-89691301D01*
X145111807Y-89691301D02*
X145167155Y-89831345D01*
X145167155Y-89831345D02*
X145155416Y-89965520D01*
X145155416Y-89965520D02*
X145113069Y-90063216D01*
X145113069Y-90063216D02*
X144997764Y-90222130D01*
X144997764Y-90222130D02*
X144888330Y-90313957D01*
X144888330Y-90313957D02*
X144711807Y-90399914D01*
X144711807Y-90399914D02*
X144608242Y-90424654D01*
X144608242Y-90424654D02*
X144474067Y-90412915D01*
X144474067Y-90412915D02*
X144345762Y-90334089D01*
X144345762Y-90334089D02*
X144284544Y-90261132D01*
X144284544Y-90261132D02*
X144229196Y-90121089D01*
X144229196Y-90121089D02*
X144235065Y-90054001D01*
X144235065Y-90054001D02*
X144490413Y-89839739D01*
X144490413Y-89839739D02*
X144612849Y-89985652D01*
X143886628Y-89786914D02*
X144652673Y-89144127D01*
X144652673Y-89144127D02*
X143519321Y-89349175D01*
X143519321Y-89349175D02*
X144285365Y-88706387D01*
X143213232Y-88984392D02*
X143979276Y-88341604D01*
X143979276Y-88341604D02*
X143826231Y-88159213D01*
X143826231Y-88159213D02*
X143697926Y-88080387D01*
X143697926Y-88080387D02*
X143563752Y-88068648D01*
X143563752Y-88068648D02*
X143460186Y-88093387D01*
X143460186Y-88093387D02*
X143283664Y-88179345D01*
X143283664Y-88179345D02*
X143174229Y-88271172D01*
X143174229Y-88271172D02*
X143058925Y-88430086D01*
X143058925Y-88430086D02*
X143016577Y-88527782D01*
X143016577Y-88527782D02*
X143004839Y-88661956D01*
X143004839Y-88661956D02*
X143060187Y-88802000D01*
X143060187Y-88802000D02*
X143213232Y-88984392D01*
X162520442Y-107380198D02*
X161540135Y-107767638D01*
X161540135Y-107767638D02*
X162091917Y-106869502D01*
X161111610Y-107256941D02*
X161877654Y-106614154D01*
X161877654Y-106614154D02*
X161724610Y-106431762D01*
X161724610Y-106431762D02*
X161596305Y-106352936D01*
X161596305Y-106352936D02*
X161462130Y-106341197D01*
X161462130Y-106341197D02*
X161358565Y-106365937D01*
X161358565Y-106365937D02*
X161182042Y-106451894D01*
X161182042Y-106451894D02*
X161072607Y-106543721D01*
X161072607Y-106543721D02*
X160957303Y-106702635D01*
X160957303Y-106702635D02*
X160914955Y-106800331D01*
X160914955Y-106800331D02*
X160903217Y-106934506D01*
X160903217Y-106934506D02*
X160958565Y-107074550D01*
X160958565Y-107074550D02*
X161111610Y-107256941D01*
X160468822Y-106490897D02*
X161234867Y-105848109D01*
X161234867Y-105848109D02*
X161081822Y-105665718D01*
X161081822Y-105665718D02*
X160953517Y-105586892D01*
X160953517Y-105586892D02*
X160819342Y-105575153D01*
X160819342Y-105575153D02*
X160715777Y-105599892D01*
X160715777Y-105599892D02*
X160539255Y-105685850D01*
X160539255Y-105685850D02*
X160429820Y-105777677D01*
X160429820Y-105777677D02*
X160314516Y-105936591D01*
X160314516Y-105936591D02*
X160272168Y-106034287D01*
X160272168Y-106034287D02*
X160260429Y-106168461D01*
X160260429Y-106168461D02*
X160315778Y-106308505D01*
X160315778Y-106308505D02*
X160468822Y-106490897D01*
X161195326Y-108305615D02*
X160575195Y-108825967D01*
X160575195Y-108825967D02*
X160471629Y-108850707D01*
X160471629Y-108850707D02*
X160404542Y-108844837D01*
X160404542Y-108844837D02*
X160306846Y-108802490D01*
X160306846Y-108802490D02*
X160184410Y-108656576D01*
X160184410Y-108656576D02*
X160159671Y-108553011D01*
X160159671Y-108553011D02*
X160165540Y-108485924D01*
X160165540Y-108485924D02*
X160207888Y-108388227D01*
X160207888Y-108388227D02*
X160828019Y-107867876D01*
X160053864Y-109449902D02*
X159073557Y-109837342D01*
X159073557Y-109837342D02*
X159625339Y-108939206D01*
X158789966Y-110448276D02*
X157870877Y-110908672D01*
X157870877Y-110908672D02*
X158295616Y-110303625D01*
X158295616Y-110303625D02*
X157626006Y-110616846D01*
X157626006Y-110616846D02*
X158239005Y-109791666D01*
X157122283Y-111039519D02*
X157219979Y-111081867D01*
X157219979Y-111081867D02*
X157311806Y-111191301D01*
X157311806Y-111191301D02*
X157367154Y-111331345D01*
X157367154Y-111331345D02*
X157355415Y-111465520D01*
X157355415Y-111465520D02*
X157313068Y-111563216D01*
X157313068Y-111563216D02*
X157197763Y-111722130D01*
X157197763Y-111722130D02*
X157088329Y-111813957D01*
X157088329Y-111813957D02*
X156911806Y-111899914D01*
X156911806Y-111899914D02*
X156808241Y-111924654D01*
X156808241Y-111924654D02*
X156674066Y-111912915D01*
X156674066Y-111912915D02*
X156545761Y-111834089D01*
X156545761Y-111834089D02*
X156484543Y-111761132D01*
X156484543Y-111761132D02*
X156429195Y-111621089D01*
X156429195Y-111621089D02*
X156435064Y-111554001D01*
X156435064Y-111554001D02*
X156690412Y-111339739D01*
X156690412Y-111339739D02*
X156812848Y-111485652D01*
X156086627Y-111286914D02*
X156852672Y-110644127D01*
X156852672Y-110644127D02*
X155719320Y-110849175D01*
X155719320Y-110849175D02*
X156485364Y-110206387D01*
X155413231Y-110484392D02*
X156179275Y-109841604D01*
X156179275Y-109841604D02*
X156026230Y-109659213D01*
X156026230Y-109659213D02*
X155897925Y-109580387D01*
X155897925Y-109580387D02*
X155763751Y-109568648D01*
X155763751Y-109568648D02*
X155660185Y-109593387D01*
X155660185Y-109593387D02*
X155483663Y-109679345D01*
X155483663Y-109679345D02*
X155374228Y-109771172D01*
X155374228Y-109771172D02*
X155258924Y-109930086D01*
X155258924Y-109930086D02*
X155216576Y-110027782D01*
X155216576Y-110027782D02*
X155204838Y-110161956D01*
X155204838Y-110161956D02*
X155260186Y-110302000D01*
X155260186Y-110302000D02*
X155413231Y-110484392D01*
X152930700Y-98880451D02*
X152930700Y-99356641D01*
X152930700Y-99356641D02*
X152454510Y-99404260D01*
X152454510Y-99404260D02*
X152502129Y-99356641D01*
X152502129Y-99356641D02*
X152549748Y-99261403D01*
X152549748Y-99261403D02*
X152549748Y-99023308D01*
X152549748Y-99023308D02*
X152502129Y-98928070D01*
X152502129Y-98928070D02*
X152454510Y-98880451D01*
X152454510Y-98880451D02*
X152359272Y-98832832D01*
X152359272Y-98832832D02*
X152121177Y-98832832D01*
X152121177Y-98832832D02*
X152025939Y-98880451D01*
X152025939Y-98880451D02*
X151978320Y-98928070D01*
X151978320Y-98928070D02*
X151930700Y-99023308D01*
X151930700Y-99023308D02*
X151930700Y-99261403D01*
X151930700Y-99261403D02*
X151978320Y-99356641D01*
X151978320Y-99356641D02*
X152025939Y-99404260D01*
X152930700Y-98547117D02*
X151930700Y-98213784D01*
X151930700Y-98213784D02*
X152930700Y-97880451D01*
X141935065Y-91904001D02*
X141929196Y-91971089D01*
X141929196Y-91971089D02*
X141984544Y-92111132D01*
X141984544Y-92111132D02*
X142045762Y-92184089D01*
X142045762Y-92184089D02*
X142174067Y-92262915D01*
X142174067Y-92262915D02*
X142308242Y-92274654D01*
X142308242Y-92274654D02*
X142411807Y-92249914D01*
X142411807Y-92249914D02*
X142588330Y-92163957D01*
X142588330Y-92163957D02*
X142697764Y-92072130D01*
X142697764Y-92072130D02*
X142813069Y-91913216D01*
X142813069Y-91913216D02*
X142855416Y-91815520D01*
X142855416Y-91815520D02*
X142867155Y-91681345D01*
X142867155Y-91681345D02*
X142811807Y-91541301D01*
X142811807Y-91541301D02*
X142750589Y-91468345D01*
X142750589Y-91468345D02*
X142622284Y-91389519D01*
X142622284Y-91389519D02*
X142555196Y-91383649D01*
X141280539Y-91272131D02*
X141586628Y-91636914D01*
X141586628Y-91636914D02*
X142352673Y-90994127D01*
X141066276Y-91016783D02*
X141832321Y-90373995D01*
X140698969Y-90579043D02*
X141412189Y-90540041D01*
X141465013Y-89936256D02*
X141394581Y-90741303D01*
X144609355Y-95343358D02*
X143609355Y-95343358D01*
X143609355Y-95343358D02*
X143609355Y-95581453D01*
X143609355Y-95581453D02*
X143656974Y-95724310D01*
X143656974Y-95724310D02*
X143752212Y-95819548D01*
X143752212Y-95819548D02*
X143847450Y-95867167D01*
X143847450Y-95867167D02*
X144037926Y-95914786D01*
X144037926Y-95914786D02*
X144180783Y-95914786D01*
X144180783Y-95914786D02*
X144371259Y-95867167D01*
X144371259Y-95867167D02*
X144466497Y-95819548D01*
X144466497Y-95819548D02*
X144561736Y-95724310D01*
X144561736Y-95724310D02*
X144609355Y-95581453D01*
X144609355Y-95581453D02*
X144609355Y-95343358D01*
X144561736Y-96724310D02*
X144609355Y-96629072D01*
X144609355Y-96629072D02*
X144609355Y-96438596D01*
X144609355Y-96438596D02*
X144561736Y-96343358D01*
X144561736Y-96343358D02*
X144466497Y-96295739D01*
X144466497Y-96295739D02*
X144085545Y-96295739D01*
X144085545Y-96295739D02*
X143990307Y-96343358D01*
X143990307Y-96343358D02*
X143942688Y-96438596D01*
X143942688Y-96438596D02*
X143942688Y-96629072D01*
X143942688Y-96629072D02*
X143990307Y-96724310D01*
X143990307Y-96724310D02*
X144085545Y-96771929D01*
X144085545Y-96771929D02*
X144180783Y-96771929D01*
X144180783Y-96771929D02*
X144276021Y-96295739D01*
X144561736Y-97152882D02*
X144609355Y-97248120D01*
X144609355Y-97248120D02*
X144609355Y-97438596D01*
X144609355Y-97438596D02*
X144561736Y-97533834D01*
X144561736Y-97533834D02*
X144466497Y-97581453D01*
X144466497Y-97581453D02*
X144418878Y-97581453D01*
X144418878Y-97581453D02*
X144323640Y-97533834D01*
X144323640Y-97533834D02*
X144276021Y-97438596D01*
X144276021Y-97438596D02*
X144276021Y-97295739D01*
X144276021Y-97295739D02*
X144228402Y-97200501D01*
X144228402Y-97200501D02*
X144133164Y-97152882D01*
X144133164Y-97152882D02*
X144085545Y-97152882D01*
X144085545Y-97152882D02*
X143990307Y-97200501D01*
X143990307Y-97200501D02*
X143942688Y-97295739D01*
X143942688Y-97295739D02*
X143942688Y-97438596D01*
X143942688Y-97438596D02*
X143990307Y-97533834D01*
X144609355Y-98010025D02*
X143942688Y-98010025D01*
X143609355Y-98010025D02*
X143656974Y-97962406D01*
X143656974Y-97962406D02*
X143704593Y-98010025D01*
X143704593Y-98010025D02*
X143656974Y-98057644D01*
X143656974Y-98057644D02*
X143609355Y-98010025D01*
X143609355Y-98010025D02*
X143704593Y-98010025D01*
X143942688Y-98914786D02*
X144752212Y-98914786D01*
X144752212Y-98914786D02*
X144847450Y-98867167D01*
X144847450Y-98867167D02*
X144895069Y-98819548D01*
X144895069Y-98819548D02*
X144942688Y-98724310D01*
X144942688Y-98724310D02*
X144942688Y-98581453D01*
X144942688Y-98581453D02*
X144895069Y-98486215D01*
X144561736Y-98914786D02*
X144609355Y-98819548D01*
X144609355Y-98819548D02*
X144609355Y-98629072D01*
X144609355Y-98629072D02*
X144561736Y-98533834D01*
X144561736Y-98533834D02*
X144514116Y-98486215D01*
X144514116Y-98486215D02*
X144418878Y-98438596D01*
X144418878Y-98438596D02*
X144133164Y-98438596D01*
X144133164Y-98438596D02*
X144037926Y-98486215D01*
X144037926Y-98486215D02*
X143990307Y-98533834D01*
X143990307Y-98533834D02*
X143942688Y-98629072D01*
X143942688Y-98629072D02*
X143942688Y-98819548D01*
X143942688Y-98819548D02*
X143990307Y-98914786D01*
X143942688Y-99390977D02*
X144609355Y-99390977D01*
X144037926Y-99390977D02*
X143990307Y-99438596D01*
X143990307Y-99438596D02*
X143942688Y-99533834D01*
X143942688Y-99533834D02*
X143942688Y-99676691D01*
X143942688Y-99676691D02*
X143990307Y-99771929D01*
X143990307Y-99771929D02*
X144085545Y-99819548D01*
X144085545Y-99819548D02*
X144609355Y-99819548D01*
X144561736Y-100676691D02*
X144609355Y-100581453D01*
X144609355Y-100581453D02*
X144609355Y-100390977D01*
X144609355Y-100390977D02*
X144561736Y-100295739D01*
X144561736Y-100295739D02*
X144466497Y-100248120D01*
X144466497Y-100248120D02*
X144085545Y-100248120D01*
X144085545Y-100248120D02*
X143990307Y-100295739D01*
X143990307Y-100295739D02*
X143942688Y-100390977D01*
X143942688Y-100390977D02*
X143942688Y-100581453D01*
X143942688Y-100581453D02*
X143990307Y-100676691D01*
X143990307Y-100676691D02*
X144085545Y-100724310D01*
X144085545Y-100724310D02*
X144180783Y-100724310D01*
X144180783Y-100724310D02*
X144276021Y-100248120D01*
X144609355Y-101581453D02*
X143609355Y-101581453D01*
X144561736Y-101581453D02*
X144609355Y-101486215D01*
X144609355Y-101486215D02*
X144609355Y-101295739D01*
X144609355Y-101295739D02*
X144561736Y-101200501D01*
X144561736Y-101200501D02*
X144514116Y-101152882D01*
X144514116Y-101152882D02*
X144418878Y-101105263D01*
X144418878Y-101105263D02*
X144133164Y-101105263D01*
X144133164Y-101105263D02*
X144037926Y-101152882D01*
X144037926Y-101152882D02*
X143990307Y-101200501D01*
X143990307Y-101200501D02*
X143942688Y-101295739D01*
X143942688Y-101295739D02*
X143942688Y-101486215D01*
X143942688Y-101486215D02*
X143990307Y-101581453D01*
X144085545Y-103152882D02*
X144133164Y-103295739D01*
X144133164Y-103295739D02*
X144180783Y-103343358D01*
X144180783Y-103343358D02*
X144276021Y-103390977D01*
X144276021Y-103390977D02*
X144418878Y-103390977D01*
X144418878Y-103390977D02*
X144514116Y-103343358D01*
X144514116Y-103343358D02*
X144561736Y-103295739D01*
X144561736Y-103295739D02*
X144609355Y-103200501D01*
X144609355Y-103200501D02*
X144609355Y-102819549D01*
X144609355Y-102819549D02*
X143609355Y-102819549D01*
X143609355Y-102819549D02*
X143609355Y-103152882D01*
X143609355Y-103152882D02*
X143656974Y-103248120D01*
X143656974Y-103248120D02*
X143704593Y-103295739D01*
X143704593Y-103295739D02*
X143799831Y-103343358D01*
X143799831Y-103343358D02*
X143895069Y-103343358D01*
X143895069Y-103343358D02*
X143990307Y-103295739D01*
X143990307Y-103295739D02*
X144037926Y-103248120D01*
X144037926Y-103248120D02*
X144085545Y-103152882D01*
X144085545Y-103152882D02*
X144085545Y-102819549D01*
X143942688Y-103724311D02*
X144609355Y-103962406D01*
X143942688Y-104200501D02*
X144609355Y-103962406D01*
X144609355Y-103962406D02*
X144847450Y-103867168D01*
X144847450Y-103867168D02*
X144895069Y-103819549D01*
X144895069Y-103819549D02*
X144942688Y-103724311D01*
X144514116Y-104581454D02*
X144561736Y-104629073D01*
X144561736Y-104629073D02*
X144609355Y-104581454D01*
X144609355Y-104581454D02*
X144561736Y-104533835D01*
X144561736Y-104533835D02*
X144514116Y-104581454D01*
X144514116Y-104581454D02*
X144609355Y-104581454D01*
X143990307Y-104581454D02*
X144037926Y-104629073D01*
X144037926Y-104629073D02*
X144085545Y-104581454D01*
X144085545Y-104581454D02*
X144037926Y-104533835D01*
X144037926Y-104533835D02*
X143990307Y-104581454D01*
X143990307Y-104581454D02*
X144085545Y-104581454D01*
X145219299Y-95248120D02*
X146219299Y-95486215D01*
X146219299Y-95486215D02*
X145505013Y-95676691D01*
X145505013Y-95676691D02*
X146219299Y-95867167D01*
X146219299Y-95867167D02*
X145219299Y-96105263D01*
X146171680Y-96867167D02*
X146219299Y-96771929D01*
X146219299Y-96771929D02*
X146219299Y-96581453D01*
X146219299Y-96581453D02*
X146171680Y-96486215D01*
X146171680Y-96486215D02*
X146076441Y-96438596D01*
X146076441Y-96438596D02*
X145695489Y-96438596D01*
X145695489Y-96438596D02*
X145600251Y-96486215D01*
X145600251Y-96486215D02*
X145552632Y-96581453D01*
X145552632Y-96581453D02*
X145552632Y-96771929D01*
X145552632Y-96771929D02*
X145600251Y-96867167D01*
X145600251Y-96867167D02*
X145695489Y-96914786D01*
X145695489Y-96914786D02*
X145790727Y-96914786D01*
X145790727Y-96914786D02*
X145885965Y-96438596D01*
X146171680Y-97295739D02*
X146219299Y-97390977D01*
X146219299Y-97390977D02*
X146219299Y-97581453D01*
X146219299Y-97581453D02*
X146171680Y-97676691D01*
X146171680Y-97676691D02*
X146076441Y-97724310D01*
X146076441Y-97724310D02*
X146028822Y-97724310D01*
X146028822Y-97724310D02*
X145933584Y-97676691D01*
X145933584Y-97676691D02*
X145885965Y-97581453D01*
X145885965Y-97581453D02*
X145885965Y-97438596D01*
X145885965Y-97438596D02*
X145838346Y-97343358D01*
X145838346Y-97343358D02*
X145743108Y-97295739D01*
X145743108Y-97295739D02*
X145695489Y-97295739D01*
X145695489Y-97295739D02*
X145600251Y-97343358D01*
X145600251Y-97343358D02*
X145552632Y-97438596D01*
X145552632Y-97438596D02*
X145552632Y-97581453D01*
X145552632Y-97581453D02*
X145600251Y-97676691D01*
X145552632Y-98010025D02*
X145552632Y-98390977D01*
X145219299Y-98152882D02*
X146076441Y-98152882D01*
X146076441Y-98152882D02*
X146171680Y-98200501D01*
X146171680Y-98200501D02*
X146219299Y-98295739D01*
X146219299Y-98295739D02*
X146219299Y-98390977D01*
X146219299Y-98867168D02*
X146171680Y-98771930D01*
X146171680Y-98771930D02*
X146076441Y-98724311D01*
X146076441Y-98724311D02*
X145219299Y-98724311D01*
X145552632Y-99152883D02*
X146219299Y-99390978D01*
X145552632Y-99629073D02*
X146219299Y-99390978D01*
X146219299Y-99390978D02*
X146457394Y-99295740D01*
X146457394Y-99295740D02*
X146505013Y-99248121D01*
X146505013Y-99248121D02*
X146552632Y-99152883D01*
X145695489Y-101105264D02*
X145743108Y-101248121D01*
X145743108Y-101248121D02*
X145790727Y-101295740D01*
X145790727Y-101295740D02*
X145885965Y-101343359D01*
X145885965Y-101343359D02*
X146028822Y-101343359D01*
X146028822Y-101343359D02*
X146124060Y-101295740D01*
X146124060Y-101295740D02*
X146171680Y-101248121D01*
X146171680Y-101248121D02*
X146219299Y-101152883D01*
X146219299Y-101152883D02*
X146219299Y-100771931D01*
X146219299Y-100771931D02*
X145219299Y-100771931D01*
X145219299Y-100771931D02*
X145219299Y-101105264D01*
X145219299Y-101105264D02*
X145266918Y-101200502D01*
X145266918Y-101200502D02*
X145314537Y-101248121D01*
X145314537Y-101248121D02*
X145409775Y-101295740D01*
X145409775Y-101295740D02*
X145505013Y-101295740D01*
X145505013Y-101295740D02*
X145600251Y-101248121D01*
X145600251Y-101248121D02*
X145647870Y-101200502D01*
X145647870Y-101200502D02*
X145695489Y-101105264D01*
X145695489Y-101105264D02*
X145695489Y-100771931D01*
X146219299Y-101914788D02*
X146171680Y-101819550D01*
X146171680Y-101819550D02*
X146124060Y-101771931D01*
X146124060Y-101771931D02*
X146028822Y-101724312D01*
X146028822Y-101724312D02*
X145743108Y-101724312D01*
X145743108Y-101724312D02*
X145647870Y-101771931D01*
X145647870Y-101771931D02*
X145600251Y-101819550D01*
X145600251Y-101819550D02*
X145552632Y-101914788D01*
X145552632Y-101914788D02*
X145552632Y-102057645D01*
X145552632Y-102057645D02*
X145600251Y-102152883D01*
X145600251Y-102152883D02*
X145647870Y-102200502D01*
X145647870Y-102200502D02*
X145743108Y-102248121D01*
X145743108Y-102248121D02*
X146028822Y-102248121D01*
X146028822Y-102248121D02*
X146124060Y-102200502D01*
X146124060Y-102200502D02*
X146171680Y-102152883D01*
X146171680Y-102152883D02*
X146219299Y-102057645D01*
X146219299Y-102057645D02*
X146219299Y-101914788D01*
X145552632Y-103105264D02*
X146219299Y-103105264D01*
X145552632Y-102676693D02*
X146076441Y-102676693D01*
X146076441Y-102676693D02*
X146171680Y-102724312D01*
X146171680Y-102724312D02*
X146219299Y-102819550D01*
X146219299Y-102819550D02*
X146219299Y-102962407D01*
X146219299Y-102962407D02*
X146171680Y-103057645D01*
X146171680Y-103057645D02*
X146124060Y-103105264D01*
X146171680Y-104010026D02*
X146219299Y-103914788D01*
X146219299Y-103914788D02*
X146219299Y-103724312D01*
X146219299Y-103724312D02*
X146171680Y-103629074D01*
X146171680Y-103629074D02*
X146124060Y-103581455D01*
X146124060Y-103581455D02*
X146028822Y-103533836D01*
X146028822Y-103533836D02*
X145743108Y-103533836D01*
X145743108Y-103533836D02*
X145647870Y-103581455D01*
X145647870Y-103581455D02*
X145600251Y-103629074D01*
X145600251Y-103629074D02*
X145552632Y-103724312D01*
X145552632Y-103724312D02*
X145552632Y-103914788D01*
X145552632Y-103914788D02*
X145600251Y-104010026D01*
X146219299Y-104438598D02*
X145219299Y-104438598D01*
X146219299Y-104867169D02*
X145695489Y-104867169D01*
X145695489Y-104867169D02*
X145600251Y-104819550D01*
X145600251Y-104819550D02*
X145552632Y-104724312D01*
X145552632Y-104724312D02*
X145552632Y-104581455D01*
X145552632Y-104581455D02*
X145600251Y-104486217D01*
X145600251Y-104486217D02*
X145647870Y-104438598D01*
X146219299Y-105771931D02*
X145695489Y-105771931D01*
X145695489Y-105771931D02*
X145600251Y-105724312D01*
X145600251Y-105724312D02*
X145552632Y-105629074D01*
X145552632Y-105629074D02*
X145552632Y-105438598D01*
X145552632Y-105438598D02*
X145600251Y-105343360D01*
X146171680Y-105771931D02*
X146219299Y-105676693D01*
X146219299Y-105676693D02*
X146219299Y-105438598D01*
X146219299Y-105438598D02*
X146171680Y-105343360D01*
X146171680Y-105343360D02*
X146076441Y-105295741D01*
X146076441Y-105295741D02*
X145981203Y-105295741D01*
X145981203Y-105295741D02*
X145885965Y-105343360D01*
X145885965Y-105343360D02*
X145838346Y-105438598D01*
X145838346Y-105438598D02*
X145838346Y-105676693D01*
X145838346Y-105676693D02*
X145790727Y-105771931D01*
X146219299Y-106248122D02*
X145552632Y-106248122D01*
X145743108Y-106248122D02*
X145647870Y-106295741D01*
X145647870Y-106295741D02*
X145600251Y-106343360D01*
X145600251Y-106343360D02*
X145552632Y-106438598D01*
X145552632Y-106438598D02*
X145552632Y-106533836D01*
X146219299Y-107295741D02*
X145219299Y-107295741D01*
X146171680Y-107295741D02*
X146219299Y-107200503D01*
X146219299Y-107200503D02*
X146219299Y-107010027D01*
X146219299Y-107010027D02*
X146171680Y-106914789D01*
X146171680Y-106914789D02*
X146124060Y-106867170D01*
X146124060Y-106867170D02*
X146028822Y-106819551D01*
X146028822Y-106819551D02*
X145743108Y-106819551D01*
X145743108Y-106819551D02*
X145647870Y-106867170D01*
X145647870Y-106867170D02*
X145600251Y-106914789D01*
X145600251Y-106914789D02*
X145552632Y-107010027D01*
X145552632Y-107010027D02*
X145552632Y-107200503D01*
X145552632Y-107200503D02*
X145600251Y-107295741D01*
X140062906Y-106768097D02*
X140087645Y-106664531D01*
X140087645Y-106664531D02*
X140179472Y-106555096D01*
X140179472Y-106555096D02*
X140307777Y-106476270D01*
X140307777Y-106476270D02*
X140441952Y-106464532D01*
X140441952Y-106464532D02*
X140545517Y-106489271D01*
X140545517Y-106489271D02*
X140722040Y-106575229D01*
X140722040Y-106575229D02*
X140831475Y-106667056D01*
X140831475Y-106667056D02*
X140946779Y-106825970D01*
X140946779Y-106825970D02*
X140989126Y-106923666D01*
X140989126Y-106923666D02*
X141000865Y-107057840D01*
X141000865Y-107057840D02*
X140945517Y-107197884D01*
X140945517Y-107197884D02*
X140884299Y-107270841D01*
X140884299Y-107270841D02*
X140755994Y-107349667D01*
X140755994Y-107349667D02*
X140688907Y-107355536D01*
X140688907Y-107355536D02*
X140433558Y-107141273D01*
X140433558Y-107141273D02*
X140555994Y-106995360D01*
X140486383Y-107745059D02*
X139720338Y-107102271D01*
X139720338Y-107102271D02*
X140119076Y-108182798D01*
X140119076Y-108182798D02*
X139353031Y-107540011D01*
X139812986Y-108547581D02*
X139046942Y-107904794D01*
X139046942Y-107904794D02*
X138893897Y-108087185D01*
X138893897Y-108087185D02*
X138838549Y-108227229D01*
X138838549Y-108227229D02*
X138850287Y-108361404D01*
X138850287Y-108361404D02*
X138892635Y-108459100D01*
X138892635Y-108459100D02*
X139007939Y-108618014D01*
X139007939Y-108618014D02*
X139117374Y-108709841D01*
X139117374Y-108709841D02*
X139293896Y-108795798D01*
X139293896Y-108795798D02*
X139397462Y-108820538D01*
X139397462Y-108820538D02*
X139531636Y-108808799D01*
X139531636Y-108808799D02*
X139659942Y-108729973D01*
X139659942Y-108729973D02*
X139812986Y-108547581D01*
X141229416Y-93402959D02*
X141995460Y-92760171D01*
X141995460Y-92760171D02*
X141234023Y-92963957D01*
X141234023Y-92963957D02*
X141566935Y-92249475D01*
X141566935Y-92249475D02*
X140800891Y-92892263D01*
X140494801Y-92527480D02*
X141260846Y-91884692D01*
X140255800Y-92168566D02*
X140127495Y-92089740D01*
X140127495Y-92089740D02*
X139974450Y-91907349D01*
X139974450Y-91907349D02*
X139949710Y-91803783D01*
X139949710Y-91803783D02*
X139955580Y-91736696D01*
X139955580Y-91736696D02*
X139997927Y-91639000D01*
X139997927Y-91639000D02*
X140070884Y-91577782D01*
X140070884Y-91577782D02*
X140174450Y-91553042D01*
X140174450Y-91553042D02*
X140241537Y-91558912D01*
X140241537Y-91558912D02*
X140339233Y-91601259D01*
X140339233Y-91601259D02*
X140498147Y-91716564D01*
X140498147Y-91716564D02*
X140595843Y-91758911D01*
X140595843Y-91758911D02*
X140662930Y-91764781D01*
X140662930Y-91764781D02*
X140766496Y-91740041D01*
X140766496Y-91740041D02*
X140839453Y-91678823D01*
X140839453Y-91678823D02*
X140881800Y-91581127D01*
X140881800Y-91581127D02*
X140887670Y-91514040D01*
X140887670Y-91514040D02*
X140862930Y-91410474D01*
X140862930Y-91410474D02*
X140709885Y-91228083D01*
X140709885Y-91228083D02*
X140581580Y-91149257D01*
X140220142Y-90644430D02*
X140097707Y-90498517D01*
X140097707Y-90498517D02*
X140000011Y-90456169D01*
X140000011Y-90456169D02*
X139865836Y-90444430D01*
X139865836Y-90444430D02*
X139689314Y-90530388D01*
X139689314Y-90530388D02*
X139433966Y-90744650D01*
X139433966Y-90744650D02*
X139318661Y-90903564D01*
X139318661Y-90903564D02*
X139306923Y-91037739D01*
X139306923Y-91037739D02*
X139331662Y-91141304D01*
X139331662Y-91141304D02*
X139454098Y-91287218D01*
X139454098Y-91287218D02*
X139551794Y-91329565D01*
X139551794Y-91329565D02*
X139685969Y-91341304D01*
X139685969Y-91341304D02*
X139862491Y-91255347D01*
X139862491Y-91255347D02*
X140117839Y-91041084D01*
X140117839Y-91041084D02*
X140233143Y-90882170D01*
X140233143Y-90882170D02*
X140244882Y-90747995D01*
X140244882Y-90747995D02*
X140220142Y-90644430D01*
X143085065Y-90954001D02*
X143079196Y-91021089D01*
X143079196Y-91021089D02*
X143134544Y-91161132D01*
X143134544Y-91161132D02*
X143195762Y-91234089D01*
X143195762Y-91234089D02*
X143324067Y-91312915D01*
X143324067Y-91312915D02*
X143458242Y-91324654D01*
X143458242Y-91324654D02*
X143561807Y-91299914D01*
X143561807Y-91299914D02*
X143738330Y-91213957D01*
X143738330Y-91213957D02*
X143847764Y-91122130D01*
X143847764Y-91122130D02*
X143963069Y-90963216D01*
X143963069Y-90963216D02*
X144005416Y-90865520D01*
X144005416Y-90865520D02*
X144017155Y-90731345D01*
X144017155Y-90731345D02*
X143961807Y-90591301D01*
X143961807Y-90591301D02*
X143900589Y-90518345D01*
X143900589Y-90518345D02*
X143772284Y-90439519D01*
X143772284Y-90439519D02*
X143705196Y-90433649D01*
X142803715Y-90692784D02*
X142675410Y-90613958D01*
X142675410Y-90613958D02*
X142522366Y-90431566D01*
X142522366Y-90431566D02*
X142497626Y-90328001D01*
X142497626Y-90328001D02*
X142503495Y-90260913D01*
X142503495Y-90260913D02*
X142545843Y-90163217D01*
X142545843Y-90163217D02*
X142618800Y-90101999D01*
X142618800Y-90101999D02*
X142722365Y-90077260D01*
X142722365Y-90077260D02*
X142789453Y-90083129D01*
X142789453Y-90083129D02*
X142887149Y-90125477D01*
X142887149Y-90125477D02*
X143046063Y-90240781D01*
X143046063Y-90240781D02*
X143143759Y-90283129D01*
X143143759Y-90283129D02*
X143210846Y-90288998D01*
X143210846Y-90288998D02*
X143314412Y-90264259D01*
X143314412Y-90264259D02*
X143387368Y-90203041D01*
X143387368Y-90203041D02*
X143429716Y-90105345D01*
X143429716Y-90105345D02*
X143435585Y-90038257D01*
X143435585Y-90038257D02*
X143410846Y-89934692D01*
X143410846Y-89934692D02*
X143257801Y-89752300D01*
X143257801Y-89752300D02*
X143129496Y-89673474D01*
X142124450Y-89957348D02*
X142890494Y-89314561D01*
X142890494Y-89314561D02*
X141757142Y-89519609D01*
X141757142Y-89519609D02*
X142523187Y-88876821D01*
X156757727Y-87912399D02*
X157309509Y-88810534D01*
X157309509Y-88810534D02*
X156329202Y-88423095D01*
X156880984Y-89321231D02*
X156114939Y-88678443D01*
X156114939Y-88678443D02*
X155961895Y-88860835D01*
X155961895Y-88860835D02*
X155906546Y-89000879D01*
X155906546Y-89000879D02*
X155918285Y-89135053D01*
X155918285Y-89135053D02*
X155960633Y-89232749D01*
X155960633Y-89232749D02*
X156075937Y-89391663D01*
X156075937Y-89391663D02*
X156185372Y-89483490D01*
X156185372Y-89483490D02*
X156361894Y-89569448D01*
X156361894Y-89569448D02*
X156465460Y-89594187D01*
X156465460Y-89594187D02*
X156599634Y-89582448D01*
X156599634Y-89582448D02*
X156727939Y-89503622D01*
X156727939Y-89503622D02*
X156880984Y-89321231D01*
X156238196Y-90087275D02*
X155472152Y-89444488D01*
X155472152Y-89444488D02*
X155319107Y-89626879D01*
X155319107Y-89626879D02*
X155263759Y-89766923D01*
X155263759Y-89766923D02*
X155275497Y-89901098D01*
X155275497Y-89901098D02*
X155317845Y-89998794D01*
X155317845Y-89998794D02*
X155433149Y-90157708D01*
X155433149Y-90157708D02*
X155542584Y-90249535D01*
X155542584Y-90249535D02*
X155719107Y-90335492D01*
X155719107Y-90335492D02*
X155822672Y-90360232D01*
X155822672Y-90360232D02*
X155956847Y-90348493D01*
X155956847Y-90348493D02*
X156085152Y-90269667D01*
X156085152Y-90269667D02*
X156238196Y-90087275D01*
X157452836Y-90329450D02*
X157397487Y-90469494D01*
X157397487Y-90469494D02*
X157403357Y-90536581D01*
X157403357Y-90536581D02*
X157445705Y-90634277D01*
X157445705Y-90634277D02*
X157555139Y-90726104D01*
X157555139Y-90726104D02*
X157658705Y-90750843D01*
X157658705Y-90750843D02*
X157725792Y-90744974D01*
X157725792Y-90744974D02*
X157823488Y-90702626D01*
X157823488Y-90702626D02*
X158068360Y-90410800D01*
X158068360Y-90410800D02*
X157302315Y-89768012D01*
X157302315Y-89768012D02*
X157088053Y-90023360D01*
X157088053Y-90023360D02*
X157063313Y-90126926D01*
X157063313Y-90126926D02*
X157069183Y-90194013D01*
X157069183Y-90194013D02*
X157111530Y-90291709D01*
X157111530Y-90291709D02*
X157184487Y-90352927D01*
X157184487Y-90352927D02*
X157288053Y-90377667D01*
X157288053Y-90377667D02*
X157355140Y-90371797D01*
X157355140Y-90371797D02*
X157452836Y-90329450D01*
X157452836Y-90329450D02*
X157667099Y-90074102D01*
X159067474Y-91280238D02*
X158761385Y-91645021D01*
X159347562Y-91390935D02*
X158367255Y-91003495D01*
X158367255Y-91003495D02*
X158919037Y-91901631D01*
X160366589Y-92681135D02*
X159600544Y-92038347D01*
X161360054Y-92520155D02*
X161384794Y-92416590D01*
X161384794Y-92416590D02*
X161476621Y-92307155D01*
X161476621Y-92307155D02*
X161604926Y-92228329D01*
X161604926Y-92228329D02*
X161739100Y-92216590D01*
X161739100Y-92216590D02*
X161842666Y-92241330D01*
X161842666Y-92241330D02*
X162019188Y-92327287D01*
X162019188Y-92327287D02*
X162128623Y-92419114D01*
X162128623Y-92419114D02*
X162243927Y-92578028D01*
X162243927Y-92578028D02*
X162286275Y-92675724D01*
X162286275Y-92675724D02*
X162298014Y-92809899D01*
X162298014Y-92809899D02*
X162242665Y-92949943D01*
X162242665Y-92949943D02*
X162181447Y-93022899D01*
X162181447Y-93022899D02*
X162053142Y-93101725D01*
X162053142Y-93101725D02*
X161986055Y-93107594D01*
X161986055Y-93107594D02*
X161730707Y-92893332D01*
X161730707Y-92893332D02*
X161853142Y-92747419D01*
X161783531Y-93497117D02*
X161017487Y-92854329D01*
X161017487Y-92854329D02*
X161416224Y-93934857D01*
X161416224Y-93934857D02*
X160650179Y-93292069D01*
X161110135Y-94299640D02*
X160344090Y-93656852D01*
X160344090Y-93656852D02*
X160191045Y-93839244D01*
X160191045Y-93839244D02*
X160135697Y-93979288D01*
X160135697Y-93979288D02*
X160147436Y-94113462D01*
X160147436Y-94113462D02*
X160189783Y-94211158D01*
X160189783Y-94211158D02*
X160305088Y-94370072D01*
X160305088Y-94370072D02*
X160414523Y-94461899D01*
X160414523Y-94461899D02*
X160591045Y-94547857D01*
X160591045Y-94547857D02*
X160694610Y-94572596D01*
X160694610Y-94572596D02*
X160828785Y-94560857D01*
X160828785Y-94560857D02*
X160957090Y-94482031D01*
X160957090Y-94482031D02*
X161110135Y-94299640D01*
X141604953Y-107426792D02*
X142156735Y-108324927D01*
X142156735Y-108324927D02*
X141176428Y-107937488D01*
X141728209Y-108835624D02*
X140962165Y-108192836D01*
X140962165Y-108192836D02*
X140809120Y-108375228D01*
X140809120Y-108375228D02*
X140753772Y-108515272D01*
X140753772Y-108515272D02*
X140765511Y-108649446D01*
X140765511Y-108649446D02*
X140807858Y-108747142D01*
X140807858Y-108747142D02*
X140923163Y-108906056D01*
X140923163Y-108906056D02*
X141032597Y-108997883D01*
X141032597Y-108997883D02*
X141209120Y-109083841D01*
X141209120Y-109083841D02*
X141312685Y-109108580D01*
X141312685Y-109108580D02*
X141446860Y-109096841D01*
X141446860Y-109096841D02*
X141575165Y-109018015D01*
X141575165Y-109018015D02*
X141728209Y-108835624D01*
X141085422Y-109601668D02*
X140319377Y-108958881D01*
X140319377Y-108958881D02*
X140166333Y-109141272D01*
X140166333Y-109141272D02*
X140110984Y-109281316D01*
X140110984Y-109281316D02*
X140122723Y-109415491D01*
X140122723Y-109415491D02*
X140165071Y-109513187D01*
X140165071Y-109513187D02*
X140280375Y-109672101D01*
X140280375Y-109672101D02*
X140389810Y-109763928D01*
X140389810Y-109763928D02*
X140566332Y-109849885D01*
X140566332Y-109849885D02*
X140669898Y-109874625D01*
X140669898Y-109874625D02*
X140804072Y-109862886D01*
X140804072Y-109862886D02*
X140932377Y-109784060D01*
X140932377Y-109784060D02*
X141085422Y-109601668D01*
D11*
%TO.C,JP1*%
X149000000Y-98600000D02*
X149000000Y-101400000D01*
X149700000Y-102050000D02*
X150300000Y-102050000D01*
X150300000Y-97950000D02*
X149700000Y-97950000D01*
X151000000Y-101400000D02*
X151000000Y-98600000D01*
X151200000Y-98800000D02*
X151500000Y-98500000D01*
X151200000Y-98800000D02*
X151500000Y-99100000D01*
X151500000Y-98500000D02*
X151500000Y-99100000D01*
X149000000Y-98650000D02*
G75*
G02*
X149700000Y-97950000I699999J1D01*
G01*
X149700000Y-102050000D02*
G75*
G02*
X149000000Y-101350000I0J700000D01*
G01*
X150300000Y-97950000D02*
G75*
G02*
X151000000Y-98650000I1J-699999D01*
G01*
X151000000Y-101350000D02*
G75*
G02*
X150300000Y-102050000I-700000J0D01*
G01*
%TD*%
M02*
